<?xml version="1.0" standalone="no"?>
<!DOCTYPE svg PUBLIC "-//W3C//DTD SVG 1.1//EN" "http://www.w3.org/Graphics/SVG/1.1/DTD/svg11.dtd" >
<svg>
<metadata>
Created by FontForge 20110222 at Thu Mar  7 11:50:03 2013
 By www-data
Sephora typeface, 2012 Copyright ZeCraft, France. All rights reserved. Commissioned by BETC for Sephora. This font software may not be reproduced, modified, without the express written approval of ZeCraft. Whatever the use is, third parties are not authorized to use this font without a proper license from ZeCraft - Typofonderie. Current version of the end user license: http://typofonderie.com/licensing/end-user-license-agreement/
ZeCraft / http://www.zecraft.com / http://www.typofonderie.com / +33 (0)1 46 54 26 92 phone / France
</metadata>
<defs>
<font id="SephoraPro-Bold" horiz-adv-x="724" >
  <font-face 
    font-family="Sephora Pro"
    font-weight="700"
    font-stretch="normal"
    units-per-em="1000"
    panose-1="2 11 8 3 3 2 2 3 1 1"
    ascent="750"
    descent="-250"
    x-height="700"
    cap-height="700"
    bbox="-157 -230 1367 1011"
    underline-thickness="130"
    underline-position="-34"
    stemh="132"
    stemv="159"
    unicode-range="U+000D-FB02"
  />
<missing-glyph horiz-adv-x="500" 
d="M426 0h-351v700h351v-700zM143 475l211 -426l41 -42v444l-127 128v-55l86 -114v-180l-211 425l-40 40v-394l111 -109v58l-71 96v129z" />
    <glyph glyph-name=".notdef" horiz-adv-x="500" 
d="M426 0h-351v700h351v-700zM143 475l211 -426l41 -42v444l-127 128v-55l86 -114v-180l-211 425l-40 40v-394l111 -109v58l-71 96v129z" />
    <glyph glyph-name=".null" horiz-adv-x="0" 
 />
    <glyph glyph-name=".null" horiz-adv-x="0" 
 />
    <glyph glyph-name="CR" unicode="&#xd;" horiz-adv-x="0" 
 />
    <glyph glyph-name="space" unicode=" " horiz-adv-x="300" 
 />
    <glyph glyph-name="space" unicode="&#xa0;" horiz-adv-x="300" 
 />
    <glyph glyph-name="nbspace" horiz-adv-x="600" 
 />
    <glyph glyph-name="a" unicode="a" 
d="M547 0l-56 157h-260l-55 -157h-163l260 700h175l263 -700h-164zM360 525l-79 -225h159z" />
    <glyph glyph-name="A" unicode="A" 
d="M85 194l41 112h470l42 -112h-553zM159 394l41 112h321l42 -112h-404zM273 700h175l40 -106h-255zM547 0l-38 106h162l40 -106h-164zM176 0h-163l39 106h161z" />
    <glyph glyph-name="a.alt" unicode="&#xe0ae;" 
d="M547 0l-56 157h-260l-55 -157h-163l260 700h175l263 -700h-164z" />
    <glyph glyph-name="a.alt" unicode="&#xe54a;" 
d="M547 0l-56 157h-260l-55 -157h-163l260 700h175l263 -700h-164z" />
    <glyph glyph-name="b" unicode="b" horiz-adv-x="671" 
d="M593 511c0 -56 -27 -119 -101 -145c93 -14 134 -93 134 -155c0 -112 -80 -211 -236 -211h-318v700h312c131 0 209 -77 209 -189zM470 213c0 36 -19 78 -90 78h-155v-152h155c71 0 90 39 90 74zM225 561v-140h132c63 0 80 37 80 68c0 33 -17 72 -79 72h-133z" />
    <glyph glyph-name="B" unicode="B" horiz-adv-x="671" 
d="M626 211c0 -6 0 -12 -1 -17h-553v112h497c36 -17 57 -64 57 -95zM593 506c-1 -40 -17 -93 -69 -112h-452v112h521zM390 0h-318v106h527c-35 -62 -106 -106 -209 -106zM384 700c95 0 162 -41 192 -106h-504v106h312z" />
    <glyph glyph-name="b.alt" unicode="&#xe8ef;" horiz-adv-x="671" 
d="M593 511c0 -56 -27 -119 -101 -145c93 -14 134 -93 134 -155c0 -112 -80 -211 -236 -211h-318v700h312c131 0 209 -77 209 -189z" />
    <glyph glyph-name="c" unicode="c" horiz-adv-x="619" 
d="M400 -10c-191 0 -360 131 -360 360s169 360 360 360c79 0 131 -18 164 -36v-155c-33 25 -91 47 -154 47c-121 0 -212 -89 -212 -216s92 -216 212 -216c63 0 121 22 154 47v-155c-33 -18 -96 -36 -164 -36z" />
    <glyph glyph-name="C" unicode="C" horiz-adv-x="619" 
d="M564 674v-80h-437c67 75 166 116 273 116c79 0 131 -18 164 -36zM400 -10c-106 0 -205 40 -273 116h437v-80c-33 -18 -96 -36 -164 -36zM201 306c8 -45 29 -83 58 -112h-188c-15 33 -25 71 -29 112h159zM259 506c-29 -29 -50 -68 -58 -112h-159c4 41 14 78 29 112h188z
" />
    <glyph glyph-name="d" unicode="d" horiz-adv-x="736" 
d="M292 139c201 0 246 115 246 211s-45 211 -247 211h-66v-422h67zM696 350c0 -212 -143 -350 -387 -350h-237v700h237c244 0 387 -140 387 -350z" />
    <glyph glyph-name="D" unicode="D" horiz-adv-x="736" 
d="M693 306c-4 -41 -13 -79 -28 -112h-593v112h621zM664 506c16 -34 25 -72 29 -112h-621v112h592zM309 0h-237v106h532c-66 -68 -167 -106 -295 -106zM309 700c128 0 228 -39 295 -106h-532v106h237z" />
    <glyph glyph-name="d.alt" unicode="&#xe8f0;" horiz-adv-x="736" 
d="M696 350c0 -212 -143 -350 -387 -350h-237v700h237c244 0 387 -140 387 -350z" />
    <glyph glyph-name="e" unicode="e" horiz-adv-x="583" 
d="M535 700v-139h-310v-134h288v-139h-288v-149h310v-139h-463v700h463z" />
    <glyph glyph-name="E" unicode="E" horiz-adv-x="583" 
d="M535 700v-141h-310v-132h288v-139h-288v-149h310v-139h-463v700h463z" />
    <glyph glyph-name="f" unicode="f" horiz-adv-x="562" 
d="M524 700v-139h-299v-149h277v-139h-277v-273h-153v700h452z" />
    <glyph glyph-name="F" unicode="F" horiz-adv-x="562" 
d="M524 700v-141h-299v-147h277v-139h-277v-273h-153v700h452z" />
    <glyph glyph-name="g" unicode="g" horiz-adv-x="763" 
d="M388 252v142h336v-56c0 -211 -134 -348 -333 -348c-183 0 -351 128 -351 360c0 225 173 360 378 360c97 0 173 -18 224 -52v-152c-60 38 -135 60 -224 60c-141 0 -220 -94 -220 -216c0 -134 85 -216 200 -216c122 0 159 79 159 118h-169z" />
    <glyph glyph-name="G" unicode="G" horiz-adv-x="763" 
d="M643 658v-64h-511c70 75 173 116 287 116c97 0 173 -18 224 -52zM392 -10c-103 0 -200 40 -266 116h525c-58 -74 -149 -116 -259 -116zM389 194v112h335c-3 -41 -11 -78 -23 -112h-312zM258 506c-30 -30 -48 -68 -56 -112h-159c5 41 15 78 30 112h185zM202 306
c7 -46 25 -84 52 -112h-183c-14 33 -24 71 -28 112h159z" />
    <glyph glyph-name="h" unicode="h" horiz-adv-x="743" 
d="M671 700v-700h-153v277h-293v-277h-153v700h153v-284h293v284h153z" />
    <glyph glyph-name="H" unicode="H" horiz-adv-x="743" 
d="M671 700v-700h-153v277h-293v-277h-153v700h153v-284h293v284h153z" />
    <glyph glyph-name="i" unicode="i" horiz-adv-x="297" 
d="M225 700v-700h-153v700h153z" />
    <glyph glyph-name="I" unicode="I" horiz-adv-x="297" 
d="M72 394v112h153v-112h-153zM72 194v112h153v-112h-153zM225 700v-106h-153v106h153zM225 0h-153v106h153v-106z" />
    <glyph glyph-name="j" unicode="j" horiz-adv-x="401" 
d="M336 700v-453c0 -152 -96 -252 -238 -252c-32 0 -57 4 -72 8v144c6 -3 25 -8 47 -8c66 0 111 31 111 136v425h152z" />
    <glyph glyph-name="J" unicode="J" horiz-adv-x="401" 
d="M98 -5c-32 0 -57 4 -72 8v103h275c-40 -70 -112 -111 -203 -111zM170 194c9 20 14 46 14 81v31h152v-59c0 -19 -2 -36 -5 -53h-161zM184 394v112h152v-112h-152zM336 700v-106h-152v106h152z" />
    <glyph glyph-name="k" unicode="k" horiz-adv-x="709" 
d="M654 700l-268 -335l308 -365h-210l-259 315v-315h-153v700h153v-317l240 317h189z" />
    <glyph glyph-name="K" unicode="K" horiz-adv-x="709" 
d="M324 194l-92 112h204l94 -112h-206zM484 0l-87 106h207l90 -106h-210zM233 394l85 112h180l-89 -112h-176zM654 700l-85 -106h-185l81 106h189zM72 394v112h153v-112h-153zM72 194v112h153v-112h-153zM225 700v-106h-153v106h153zM225 0h-153v106h153v-106z" />
    <glyph glyph-name="l" unicode="l" horiz-adv-x="549" 
d="M72 700h153v-561h284v-139h-437v700z" />
    <glyph glyph-name="L" unicode="L" horiz-adv-x="549" 
d="M509 0h-437v106h437v-106zM72 194v112h153v-112h-153zM72 394v112h153v-112h-153zM72 700h153v-106h-153v106z" />
    <glyph glyph-name="m" unicode="m" horiz-adv-x="884" 
d="M430 132l-205 305v-437h-153v700h151l221 -341l221 341h147v-700h-153v437l-205 -305h-24z" />
    <glyph glyph-name="M" unicode="M" horiz-adv-x="884" 
d="M421 394h-349v112h276zM812 394h-346l73 112h273v-112zM388 194l-75 112h258l-76 -112h-107zM72 700h151l68 -106h-219v106zM812 700v-106h-216l69 106h147zM72 194v112h153v-112h-153zM659 194v112h153v-112h-153zM225 0h-153v106h153v-106zM812 0h-153v106h153v-106z
" />
    <glyph glyph-name="n" unicode="n" horiz-adv-x="761" 
d="M689 700v-700h-134l-330 434v-434h-153v700h135l330 -435v435h152z" />
    <glyph glyph-name="N" unicode="N" horiz-adv-x="761" 
d="M439 394h-367v112h282zM322 306h367v-112h-282zM72 700h135l80 -106h-215v106zM555 0l-81 106h215v-106h-134zM72 194v112h153v-112h-153zM537 394v112h152v-112h-152zM225 0h-153v106h153v-106zM689 700v-106h-152v106h152z" />
    <glyph glyph-name="o" unicode="o" horiz-adv-x="800" 
d="M760 350c0 -223 -170 -360 -360 -360s-360 137 -360 360s170 360 360 360s360 -137 360 -360zM198 350c0 -125 88 -216 202 -216s202 91 202 216s-88 216 -202 216s-202 -91 -202 -216z" />
    <glyph glyph-name="O" unicode="O" horiz-adv-x="800" 
d="M728 506c15 -34 25 -72 29 -112h-715c5 40 15 78 30 112h656zM72 194c-15 33 -25 71 -30 112h715c-4 -41 -14 -79 -29 -112h-656zM400 710c104 0 203 -42 270 -116h-541c68 74 166 116 271 116zM400 -10c-105 0 -203 41 -271 116h541c-67 -75 -166 -116 -270 -116z" />
    <glyph glyph-name="o.alt" unicode="&#xe8f1;" horiz-adv-x="800" 
d="M760 350c0 -223 -170 -360 -360 -360s-360 137 -360 360s170 360 360 360s360 -137 360 -360z" />
    <glyph glyph-name="p" unicode="p" horiz-adv-x="633" 
d="M333 194h-108v-194h-153v700h261c177 0 280 -102 280 -252c0 -135 -93 -254 -280 -254zM458 447c0 52 -25 114 -133 114h-100v-228h100c108 0 133 62 133 114z" />
    <glyph glyph-name="P" unicode="P" horiz-adv-x="633" 
d="M613 448c0 -19 -2 -37 -6 -54h-535v112h535c3 -19 6 -38 6 -58zM333 194h-261v112h500c-44 -67 -124 -112 -239 -112zM333 700c110 0 191 -40 237 -106h-498v106h261zM225 0h-153v106h153v-106z" />
    <glyph glyph-name="p.alt" unicode="&#xe1d5;" horiz-adv-x="633" 
d="M333 194h-108v-194h-153v700h261c177 0 280 -102 280 -252c0 -135 -93 -254 -280 -254z" />
    <glyph glyph-name="q" unicode="q" horiz-adv-x="800" 
d="M760 350c0 -101 -35 -183 -90 -244l110 -141h-172l-47 60c-49 -23 -104 -35 -161 -35c-190 0 -360 137 -360 360s170 360 360 360s360 -137 360 -360zM198 350c0 -125 88 -216 202 -216c24 0 47 4 68 11l-123 161h170l57 -74c19 33 30 74 30 118c0 125 -88 216 -202 216
s-202 -91 -202 -216z" />
    <glyph glyph-name="Q" unicode="Q" horiz-adv-x="800" 
d="M400 -10c-105 0 -203 41 -271 116h541l110 -141h-172l-47 60c-49 -23 -104 -35 -161 -35zM400 710c104 0 203 -42 270 -116h-541c68 74 166 116 271 116zM758 306c-5 -41 -15 -79 -31 -112h-297l-85 112h170l57 -74c12 21 21 47 26 74h160zM42 394c5 40 15 78 30 112h185
c-28 -29 -47 -68 -55 -112h-160zM72 194c-15 33 -25 71 -30 112h160c8 -45 27 -83 55 -112h-185zM728 506c15 -34 25 -72 29 -112h-159c-8 44 -27 83 -55 112h185z" />
    <glyph glyph-name="r" unicode="r" horiz-adv-x="664" 
d="M464 0l-190 250h-49v-250h-153v700h291c155 0 248 -92 248 -224c0 -99 -56 -187 -165 -216l207 -260h-189zM456 469c0 35 -23 92 -110 92h-121v-188h121c87 0 110 49 110 96z" />
    <glyph glyph-name="R" unicode="R" horiz-adv-x="664" 
d="M611 476c0 -29 -5 -57 -14 -82h-525v112h537c1 -10 2 -20 2 -30zM363 700c102 0 177 -41 217 -106h-508v106h291zM536 306c-25 -21 -54 -37 -90 -46l52 -66h-426v112h464zM464 0l-81 106h185l85 -106h-189zM225 0h-153v106h153v-106z" />
    <glyph glyph-name="r.alt" unicode="&#xe8d5;" horiz-adv-x="664" 
d="M464 0l-190 250h-49v-250h-153v700h291c155 0 248 -92 248 -224c0 -99 -56 -187 -165 -216l207 -260h-189z" />
    <glyph glyph-name="s" unicode="s" horiz-adv-x="611" 
d="M560 204c0 -121 -86 -214 -290 -214c-63 0 -151 16 -194 47v144c45 -30 130 -54 196 -54c96 0 131 24 131 67c0 122 -336 59 -336 314c0 133 121 202 266 202c78 0 144 -18 177 -36v-143c-43 23 -107 42 -168 42c-66 0 -118 -10 -118 -59c0 -116 336 -57 336 -310z" />
    <glyph glyph-name="S" unicode="S" horiz-adv-x="611" 
d="M270 -10c-63 0 -151 16 -194 47v69h461c-38 -70 -123 -116 -267 -116zM510 674v-80h-423c41 76 136 116 246 116c78 0 144 -18 177 -36zM224 506c9 -60 116 -70 207 -112h-333c-19 28 -31 65 -31 112h157zM560 204v-10h-157c0 64 -93 77 -181 112h313
c15 -27 25 -61 25 -102z" />
    <glyph glyph-name="t" unicode="t" horiz-adv-x="608" 
d="M578 700v-139h-197v-561h-152v561h-199v139h548z" />
    <glyph glyph-name="T" unicode="T" horiz-adv-x="608" 
d="M578 700v-106h-548v106h548zM229 194v112h152v-112h-152zM229 394v112h152v-112h-152zM381 0h-152v106h152v-106z" />
    <glyph glyph-name="u" unicode="u" horiz-adv-x="717" 
d="M358 -10c-185 0 -292 99 -292 309v401h153v-423c0 -84 50 -143 141 -143s141 59 141 143v423h150v-401c0 -210 -108 -309 -293 -309z" />
    <glyph glyph-name="U" unicode="U" horiz-adv-x="717" 
d="M358 -10c-114 0 -199 38 -247 116h494c-48 -78 -133 -116 -247 -116zM219 277c0 -32 7 -60 21 -83h-164c-7 31 -10 66 -10 105v7h153v-29zM66 394v112h153v-112h-153zM651 299c0 -39 -4 -74 -11 -105h-160c14 23 21 51 21 83v29h150v-7zM501 394v112h150v-112h-150z
M219 700v-106h-153v106h153zM651 700v-106h-150v106h150z" />
    <glyph glyph-name="v" unicode="v" 
d="M360 206l187 494h164l-268 -700h-165l-265 700h163z" />
    <glyph glyph-name="V" unicode="V" 
d="M360 206l38 100h162l-43 -112h-312l-43 112h161zM278 0l-40 106h245l-40 -106h-165zM431 394l43 112h162l-43 -112h-162zM129 394l-43 112h162l42 -112h-161zM711 700l-41 -106h-163l40 106h164zM13 700h163l39 -106h-162z" />
    <glyph glyph-name="w" unicode="w" horiz-adv-x="1040" 
d="M452 700h140l140 -498l127 498h159l-191 -700h-178l-130 433l-130 -433h-176l-191 700h163l127 -498z" />
    <glyph glyph-name="W" unicode="W" horiz-adv-x="1040" 
d="M22 700h996l-29 -106h-938zM105 394l-30 112h890l-31 -112h-829zM557 306h353l-30 -112h-290zM129 306h352l-34 -112h-287zM649 0l-32 106h239l-29 -106h-178zM213 0l-29 106h237l-32 -106h-176z" />
    <glyph glyph-name="w.alt" unicode="&#xe54d;" horiz-adv-x="1040" 
d="M22 700h996l-191 -700h-178l-130 433l-130 -433h-176z" />
    <glyph glyph-name="x" unicode="x" horiz-adv-x="740" 
d="M698 700l-227 -346l244 -354h-191l-164 245l-158 -245h-177l241 361l-229 339h191l147 -233l143 233h180z" />
    <glyph glyph-name="X" unicode="X" horiz-adv-x="740" 
d="M576 194h-416l78 112h257zM173 506h392l-77 -112h-236zM524 0l-71 106h186l76 -106h-191zM37 700h191l67 -106h-184zM698 700l-73 -106h-172l65 106h180zM202 0h-177l73 106h172z" />
    <glyph glyph-name="y" unicode="y" horiz-adv-x="676" 
d="M663 700l-248 -464v-236h-152v236l-250 464h171l154 -305l153 305h172z" />
    <glyph glyph-name="Y" unicode="Y" horiz-adv-x="676" 
d="M663 700l-57 -106h-536l-57 106h650zM178 394l-61 112h442l-60 -112h-321zM263 236l-38 70h227l-37 -70v-42h-152v42zM415 0h-152v106h152v-106z" />
    <glyph glyph-name="y.alt" unicode="&#xe0b4;" horiz-adv-x="676" 
d="M663 700l-248 -464v-236h-152v236l-250 464h650z" />
    <glyph glyph-name="z" unicode="z" horiz-adv-x="654" 
d="M380 561h-303v139h506v-94l-324 -467h340v-139h-544v94z" />
    <glyph glyph-name="Z" unicode="Z" horiz-adv-x="644" 
d="M55 0v106h534v-106h-534zM561 700v-106h-474v106h474zM122 194l75 112h163l-75 -112h-163zM256 394l75 112h163l-75 -112h-163z" />
    <glyph glyph-name="agrave" unicode="&#xe0;" 
d="M392 794l31 -94h25l263 -700h-164l-56 157h-260l-55 -157h-163l260 700h28l-31 94h122zM360 525l-79 -225h159z" />
    <glyph glyph-name="Agrave" unicode="&#xc0;" 
d="M85 194l41 112h470l42 -112h-553zM159 394l41 112h321l42 -112h-404zM392 794l31 -94h25l40 -106h-255l40 106h28l-31 94h122zM547 0l-38 106h162l40 -106h-164zM176 0h-163l39 106h161z" />
    <glyph glyph-name="agrave.alt" unicode="&#xe1b8;" 
d="M392 794l31 -94h25l263 -700h-164l-56 157h-260l-55 -157h-163l260 700h28l-31 94h122z" />
    <glyph glyph-name="aacute" unicode="&#xe1;" 
d="M547 0l-56 157h-260l-55 -157h-163l260 700h26l32 94h122l-32 -94h27l263 -700h-164zM360 525l-79 -225h159z" />
    <glyph glyph-name="Aacute" unicode="&#xc1;" 
d="M85 194l41 112h470l42 -112h-553zM159 394l41 112h321l42 -112h-404zM273 700h26l32 94h122l-32 -94h27l40 -106h-255zM547 0l-38 106h162l40 -106h-164zM176 0h-163l39 106h161z" />
    <glyph glyph-name="aacute.alt" unicode="&#xe1b9;" 
d="M547 0l-56 157h-260l-55 -157h-163l260 700h26l32 94h122l-32 -94h27l263 -700h-164z" />
    <glyph glyph-name="acircumflex" unicode="&#xe2;" 
d="M547 0l-56 157h-260l-55 -157h-163l246 663h-59l88 131h147l89 -131h-62l249 -663h-164zM360 525l-79 -225h159z" />
    <glyph glyph-name="Acircumflex" unicode="&#xc2;" 
d="M85 194l41 112h470l42 -112h-553zM524 663h-62l26 -69h-255l26 69h-59l88 131h147zM159 394l41 112h321l42 -112h-404zM547 0l-38 106h162l40 -106h-164zM176 0h-163l39 106h161z" />
    <glyph glyph-name="acircumflex.alt" unicode="&#xe1ba;" 
d="M547 0l-56 157h-260l-55 -157h-163l246 663h-59l88 131h147l89 -131h-62l249 -663h-164z" />
    <glyph glyph-name="atilde" unicode="&#xe3;" 
d="M199 658v52c0 68 47 84 79 84c42 0 109 -30 138 -30c20 0 25 9 25 30h83v-52c0 -56 -32 -77 -61 -83l248 -659h-164l-56 157h-260l-55 -157h-163l244 658h-58zM360 525l-79 -225h159z" />
    <glyph glyph-name="Atilde" unicode="&#xc3;" 
d="M85 194l41 112h470l42 -112h-553zM199 658v52c0 68 47 84 79 84c42 0 109 -30 138 -30c20 0 25 9 25 30h83v-52c0 -56 -32 -77 -61 -83l25 -65h-255l24 64h-58zM159 394l41 112h321l42 -112h-404zM547 0l-38 106h162l40 -106h-164zM176 0h-163l39 106h161z" />
    <glyph glyph-name="atilde.alt" unicode="&#xe1bb;" 
d="M199 658v52c0 68 47 84 79 84c42 0 109 -30 138 -30c20 0 25 9 25 30h83v-52c0 -56 -32 -77 -61 -83l248 -659h-164l-56 157h-260l-55 -157h-163l244 658h-58z" />
    <glyph glyph-name="adieresis" unicode="&#xe4;" 
d="M213 663v131h116v-94h65v94h116v-131h-48l249 -663h-164l-56 157h-260l-55 -157h-163l246 663h-46zM360 525l-79 -225h159z" />
    <glyph glyph-name="Adieresis" unicode="&#xc4;" 
d="M85 194l41 112h470l42 -112h-553zM213 663v131h116v-94h65v94h116v-131h-48l26 -69h-255l26 69h-46zM159 394l41 112h321l42 -112h-404zM547 0l-38 106h162l40 -106h-164zM176 0h-163l39 106h161z" />
    <glyph glyph-name="adieresis.alt" unicode="&#xe1bc;" 
d="M213 663v131h116v-94h65v94h116v-131h-48l249 -663h-164l-56 157h-260l-55 -157h-163l246 663h-46z" />
    <glyph glyph-name="amacron" unicode="&#x101;" 
d="M213 680v114h297v-114h-55l256 -680h-164l-56 157h-260l-55 -157h-163l252 680h-52zM360 525l-79 -225h159z" />
    <glyph glyph-name="Amacron" unicode="&#x100;" 
d="M85 194l41 112h470l42 -112h-553zM213 680v114h297v-114h-55l33 -86h-255l32 86h-52zM159 394l41 112h321l42 -112h-404zM547 0l-38 106h162l40 -106h-164zM176 0h-163l39 106h161z" />
    <glyph glyph-name="amacron.alt" unicode="&#xe1bd;" 
d="M213 680v114h297v-114h-55l256 -680h-164l-56 157h-260l-55 -157h-163l252 680h-52z" />
    <glyph glyph-name="abreve" unicode="&#x103;" 
d="M547 0l-56 157h-260l-55 -157h-163l256 689c-38 25 -56 65 -56 105h112c0 -23 15 -43 37 -43s37 20 37 43h112c0 -41 -19 -82 -58 -107l258 -687h-164zM360 525l-79 -225h159z" />
    <glyph glyph-name="Abreve" unicode="&#x102;" 
d="M85 194l41 112h470l42 -112h-553zM511 794c0 -41 -19 -82 -58 -107l35 -93h-255l36 95c-38 25 -56 65 -56 105h112c0 -23 15 -43 37 -43s37 20 37 43h112zM159 394l41 112h321l42 -112h-404zM547 0l-38 106h162l40 -106h-164zM176 0h-163l39 106h161z" />
    <glyph glyph-name="abreve.alt" unicode="&#xe1be;" 
d="M547 0l-56 157h-260l-55 -157h-163l256 689c-38 25 -56 65 -56 105h112c0 -23 15 -43 37 -43s37 20 37 43h112c0 -41 -19 -82 -58 -107l258 -687h-164z" />
    <glyph glyph-name="aring" unicode="&#xe5;" 
d="M547 0l-56 157h-260l-55 -157h-163l258 696c-34 24 -50 62 -50 100c0 61 44 125 141 125s141 -64 141 -125c0 -39 -17 -78 -53 -102l261 -694h-164zM360 525l-79 -225h159zM362 837c-28 0 -41 -22 -41 -41s13 -42 41 -42s40 23 40 42s-12 41 -40 41z" />
    <glyph glyph-name="Aring" unicode="&#xc5;" 
d="M503 796c0 -39 -17 -78 -53 -102l38 -100h-255l38 102c-34 24 -50 62 -50 100c0 61 44 125 141 125s141 -64 141 -125zM85 194l41 112h470l42 -112h-553zM159 394l41 112h321l42 -112h-404zM547 0l-38 106h162l40 -106h-164zM176 0h-163l39 106h161zM362 837
c-28 0 -41 -22 -41 -41s13 -42 41 -42s40 23 40 42s-12 41 -40 41z" />
    <glyph glyph-name="aring.alt" unicode="&#xe1bf;" 
d="M547 0l-56 157h-260l-55 -157h-163l258 696c-34 24 -50 62 -50 100c0 61 44 125 141 125s141 -64 141 -125c0 -39 -17 -78 -53 -102l261 -694h-164zM362 837c-28 0 -41 -22 -41 -41s13 -42 41 -42s40 23 40 42s-12 41 -40 41z" />
    <glyph glyph-name="aringacute" unicode="&#x1fb;" 
d="M547 0l-56 157h-260l-55 -157h-163l258 696c-34 24 -50 62 -50 100c0 50 30 102 94 119l32 96h122l-35 -105c47 -23 69 -67 69 -110c0 -39 -17 -78 -53 -102l261 -694h-164zM360 525l-79 -225h159zM362 837c-28 0 -41 -22 -41 -41s13 -42 41 -42s40 23 40 42
s-12 41 -40 41z" />
    <glyph glyph-name="Aringacute" unicode="&#x1fa;" 
d="M503 796c0 -39 -17 -78 -53 -102l38 -100h-255l38 102c-34 24 -50 62 -50 100c0 50 30 102 94 119l32 96h122l-35 -105c47 -23 69 -67 69 -110zM85 194l41 112h470l42 -112h-553zM159 394l41 112h321l42 -112h-404zM547 0l-38 106h162l40 -106h-164zM176 0h-163l39 106
h161zM362 837c-28 0 -41 -22 -41 -41s13 -42 41 -42s40 23 40 42s-12 41 -40 41z" />
    <glyph glyph-name="aringacute.alt" unicode="&#xe1c0;" 
d="M547 0l-56 157h-260l-55 -157h-163l258 696c-34 24 -50 62 -50 100c0 50 30 102 94 119l32 96h122l-35 -105c47 -23 69 -67 69 -110c0 -39 -17 -78 -53 -102l261 -694h-164zM362 837c-28 0 -41 -22 -41 -41s13 -42 41 -42s40 23 40 42s-12 41 -40 41z" />
    <glyph glyph-name="aogonek" unicode="&#x105;" 
d="M711 0h-64c-20 -24 -32 -55 -33 -88h-122c-1 31 15 72 50 101l-51 144h-260l-55 -157h-163l260 700h175zM360 525l-79 -225h159z" />
    <glyph glyph-name="Aogonek" unicode="&#x104;" 
d="M85 194l41 112h470l42 -112h-553zM159 394l41 112h321l42 -112h-404zM492 -88c-1 31 15 72 50 101l-33 93h162l40 -106h-64c-20 -24 -32 -55 -33 -88h-122zM273 700h175l40 -106h-255zM176 0h-163l39 106h161z" />
    <glyph glyph-name="aogonek.alt" unicode="&#xe1c1;" 
d="M711 0h-64c-20 -24 -32 -55 -33 -88h-122c-1 31 15 72 50 101l-51 144h-260l-55 -157h-163l260 700h175z" />
    <glyph glyph-name="ae" unicode="&#xe6;" horiz-adv-x="967" 
d="M919 700v-139h-293l7 -134h264v-139h-257l8 -149h271v-139h-422l-9 162h-233l-87 -162h-168l377 700h542zM468 555l-137 -254h150z" />
    <glyph glyph-name="AE" unicode="&#xc6;" horiz-adv-x="967" 
d="M919 700v-141h-293l7 -132h264v-139h-257l8 -149h271v-139h-422l-9 162h-233l-87 -162h-168l377 700h542zM468 555l-137 -254h150z" />
    <glyph glyph-name="ae.alt" unicode="&#xe35f;" horiz-adv-x="967" 
d="M919 700v-141h-293l7 -132h264v-139h-257l7 -149h272v-139h-264v-1l-158 1l-9 162h-233l-87 -162h-168l377 700h542z" />
    <glyph glyph-name="aeacute" unicode="&#x1fd;" horiz-adv-x="967" 
d="M919 700v-139h-293l7 -134h264v-139h-257l8 -149h271v-139h-422l-9 162h-233l-87 -162h-168l377 700h133l32 94h122l-32 -94h287zM468 555l-137 -254h150z" />
    <glyph glyph-name="AEacute" unicode="&#x1fc;" horiz-adv-x="967" 
d="M919 700v-141h-293l7 -132h264v-139h-257l8 -149h271v-139h-422l-9 162h-233l-87 -162h-168l377 700h133l32 94h122l-32 -94h287zM468 555l-137 -254h150z" />
    <glyph glyph-name="aeacute.alt" unicode="&#xe360;" horiz-adv-x="967" 
d="M919 700v-141h-293l7 -132h264v-139h-257l7 -149h272v-139h-264v-1l-158 1l-9 162h-233l-87 -162h-168l377 700h133l32 94h122l-32 -94h287z" />
    <glyph glyph-name="cacute" unicode="&#x107;" horiz-adv-x="619" 
d="M400 -10c-191 0 -360 131 -360 360c0 191 117 313 267 349l32 95h122l-29 -85c61 -4 103 -20 132 -35v-155c-33 25 -91 47 -154 47c-121 0 -212 -89 -212 -216s92 -216 212 -216c63 0 121 22 154 47v-155c-33 -18 -96 -36 -164 -36z" />
    <glyph glyph-name="Cacute" unicode="&#x106;" horiz-adv-x="619" 
d="M564 674v-80h-437c47 52 110 88 180 105l32 95h122l-29 -85c61 -4 103 -20 132 -35zM400 -10c-106 0 -205 40 -273 116h437v-80c-33 -18 -96 -36 -164 -36zM259 506c-29 -29 -50 -68 -58 -112h-159c4 41 14 78 29 112h188zM201 306c8 -45 29 -83 58 -112h-188
c-15 33 -25 71 -29 112h159z" />
    <glyph glyph-name="ccircumflex" unicode="&#x109;" horiz-adv-x="619" 
d="M400 -10c-191 0 -360 131 -360 360c0 151 74 260 179 316l86 128h147l69 -102c17 -5 31 -12 43 -18v-155c-33 25 -91 47 -154 47c-121 0 -212 -89 -212 -216s92 -216 212 -216c63 0 121 22 154 47v-155c-33 -18 -96 -36 -164 -36z" />
    <glyph glyph-name="Ccircumflex" unicode="&#x108;" horiz-adv-x="619" 
d="M564 674v-80h-437c26 29 57 53 92 72l86 128h147l69 -102c17 -5 31 -12 43 -18zM400 -10c-106 0 -205 40 -273 116h437v-80c-33 -18 -96 -36 -164 -36zM259 506c-29 -29 -50 -68 -58 -112h-159c4 41 14 78 29 112h188zM201 306c8 -45 29 -83 58 -112h-188
c-15 33 -25 71 -29 112h159z" />
    <glyph glyph-name="ccaron" unicode="&#x10d;" horiz-adv-x="619" 
d="M400 -10c-191 0 -360 131 -360 360c0 184 108 304 250 345l-66 99h125l37 -63l37 63h124l-62 -92c34 -7 59 -18 79 -28v-155c-33 25 -91 47 -154 47c-121 0 -212 -89 -212 -216s92 -216 212 -216c63 0 121 22 154 47v-155c-33 -18 -96 -36 -164 -36z" />
    <glyph glyph-name="Ccaron" unicode="&#x10c;" horiz-adv-x="619" 
d="M564 674v-80h-437c43 48 100 83 163 101l-66 99h125l37 -63l37 63h124l-62 -92c34 -7 59 -18 79 -28zM400 -10c-106 0 -205 40 -273 116h437v-80c-33 -18 -96 -36 -164 -36zM259 506c-29 -29 -50 -68 -58 -112h-159c4 41 14 78 29 112h188zM201 306c8 -45 29 -83 58 -112
h-188c-15 33 -25 71 -29 112h159z" />
    <glyph glyph-name="cdotaccent" unicode="&#x10b;" horiz-adv-x="619" 
d="M400 -10c-191 0 -360 131 -360 360c0 204 134 329 298 355v89h116v-87c50 -6 85 -20 110 -33v-155c-33 25 -91 47 -154 47c-121 0 -212 -89 -212 -216s92 -216 212 -216c63 0 121 22 154 47v-155c-33 -18 -96 -36 -164 -36z" />
    <glyph glyph-name="Cdotaccent" unicode="&#x10a;" horiz-adv-x="619" 
d="M564 674v-80h-437c54 60 128 99 211 111v89h116v-87c50 -6 85 -20 110 -33zM400 -10c-106 0 -205 40 -273 116h437v-80c-33 -18 -96 -36 -164 -36zM259 506c-29 -29 -50 -68 -58 -112h-159c4 41 14 78 29 112h188zM201 306c8 -45 29 -83 58 -112h-188
c-15 33 -25 71 -29 112h159z" />
    <glyph glyph-name="ccedilla" unicode="&#xe7;" horiz-adv-x="619" 
d="M310 -88v4c22 23 34 51 41 77c-170 20 -311 147 -311 357c0 229 169 360 360 360c79 0 131 -18 164 -36v-155c-33 25 -91 47 -154 47c-121 0 -212 -89 -212 -216s92 -216 212 -216c63 0 121 22 154 47v-155c-20 -11 -51 -22 -88 -28c-5 -27 -18 -58 -35 -86h-131z" />
    <glyph glyph-name="Ccedilla" unicode="&#xc7;" horiz-adv-x="619" 
d="M310 -88v4c22 23 34 51 41 77c-87 10 -167 49 -224 113h437v-80c-20 -11 -51 -22 -88 -28c-5 -27 -18 -58 -35 -86h-131zM564 674v-80h-437c67 75 166 116 273 116c79 0 131 -18 164 -36zM259 506c-29 -29 -50 -68 -58 -112h-159c4 41 14 78 29 112h188zM201 306
c8 -45 29 -83 58 -112h-188c-15 33 -25 71 -29 112h159z" />
    <glyph glyph-name="dcaron" unicode="&#x10f;" horiz-adv-x="736" 
d="M696 350c0 -212 -143 -350 -387 -350h-237v700h168l-63 94h125l37 -63l37 63h124l-72 -107c171 -39 268 -164 268 -337zM292 139c201 0 246 115 246 211s-45 211 -247 211h-66v-422h67z" />
    <glyph glyph-name="Dcaron" unicode="&#x10e;" horiz-adv-x="736" 
d="M72 594v106h168l-63 94h125l37 -63l37 63h124l-72 -107c72 -17 131 -49 176 -93h-532zM693 306c-4 -41 -13 -79 -28 -112h-593v112h621zM664 506c16 -34 25 -72 29 -112h-621v112h592zM309 0h-237v106h532c-66 -68 -167 -106 -295 -106z" />
    <glyph glyph-name="dcaron.alt" unicode="&#xe8f2;" horiz-adv-x="736" 
d="M696 350c0 -212 -143 -350 -387 -350h-237v700h168l-63 94h125l37 -63l37 63h124l-72 -107c171 -39 268 -164 268 -337z" />
    <glyph glyph-name="dcroat" unicode="&#x111;" horiz-adv-x="736" 
d="M0 294v113h72v293h237c244 0 387 -140 387 -350c0 -212 -143 -350 -387 -350h-237v294h-72zM292 139c201 0 246 115 246 211s-45 211 -247 211h-66v-154h153v-113h-153v-155h67z" />
    <glyph glyph-name="Dcroat" unicode="&#x110;" horiz-adv-x="736" 
d="M0 294v113h72v293h237c244 0 387 -140 387 -350c0 -212 -143 -350 -387 -350h-237v294h-72zM292 139c201 0 246 115 246 211s-45 211 -247 211h-66v-154h153v-113h-153v-155h67z" />
    <glyph glyph-name="dcroat.alt" unicode="&#xe8f3;" horiz-adv-x="736" 
d="M0 294v113h72v293h237c244 0 387 -140 387 -350c0 -212 -143 -350 -387 -350h-237v294h-72z" />
    <glyph glyph-name="egrave" unicode="&#xe8;" horiz-adv-x="583" 
d="M338 794l31 -94h166v-139h-310v-134h288v-139h-288v-149h310v-139h-463v700h175l-31 94h122z" />
    <glyph glyph-name="Egrave" unicode="&#xc8;" horiz-adv-x="583" 
d="M338 794l31 -94h166v-139h-310v-134h288v-139h-288v-149h310v-139h-463v700h175l-31 94h122z" />
    <glyph glyph-name="eacute" unicode="&#xe9;" horiz-adv-x="583" 
d="M535 700v-139h-310v-134h288v-139h-288v-149h310v-139h-463v700h173l32 94h122l-32 -94h168z" />
    <glyph glyph-name="Eacute" unicode="&#xc9;" horiz-adv-x="583" 
d="M535 700v-139h-310v-134h288v-139h-288v-149h310v-139h-463v700h173l32 94h122l-32 -94h168z" />
    <glyph glyph-name="ecircumflex" unicode="&#xea;" horiz-adv-x="583" 
d="M535 700v-139h-310v-134h288v-139h-288v-149h310v-139h-463v700h94l63 94h147l64 -94h95z" />
    <glyph glyph-name="Ecircumflex" unicode="&#xca;" horiz-adv-x="583" 
d="M535 700v-139h-310v-134h288v-139h-288v-149h310v-139h-463v700h89l53 94h177l53 -94h91z" />
    <glyph glyph-name="ecaron" unicode="&#x11b;" horiz-adv-x="583" 
d="M535 700v-139h-310v-134h288v-139h-288v-149h310v-139h-463v700h132l-63 94h125l37 -63l37 63h124l-63 -94h134z" />
    <glyph glyph-name="Ecaron" unicode="&#x11a;" horiz-adv-x="583" 
d="M535 700v-139h-310v-134h288v-139h-288v-149h310v-139h-463v700h132l-63 94h125l37 -63l37 63h124l-63 -94h134z" />
    <glyph glyph-name="edieresis" unicode="&#xeb;" horiz-adv-x="583" 
d="M535 700v-139h-310v-134h288v-139h-288v-149h310v-139h-463v700h83v94h116v-94h65v94h116v-94h83z" />
    <glyph glyph-name="Edieresis" unicode="&#xcb;" horiz-adv-x="583" 
d="M535 700v-139h-310v-134h288v-139h-288v-149h310v-139h-463v700h83v94h116v-94h65v94h116v-94h83z" />
    <glyph glyph-name="emacron" unicode="&#x113;" horiz-adv-x="583" 
d="M535 700v-139h-310v-134h288v-139h-288v-149h310v-139h-463v700h83v94h297v-94h83z" />
    <glyph glyph-name="Emacron" unicode="&#x112;" horiz-adv-x="583" 
d="M535 700v-139h-310v-134h288v-139h-288v-149h310v-139h-463v700h83v94h297v-94h83z" />
    <glyph glyph-name="ebreve" unicode="&#x115;" horiz-adv-x="583" 
d="M535 700v-139h-310v-134h288v-139h-288v-149h310v-139h-463v700h123c-27 25 -41 59 -41 94h112c0 -23 15 -43 37 -43s37 20 37 43h112c0 -35 -14 -69 -42 -94h125z" />
    <glyph glyph-name="Ebreve" unicode="&#x114;" horiz-adv-x="583" 
d="M535 700v-139h-310v-134h288v-139h-288v-149h310v-139h-463v700h123c-27 25 -41 59 -41 94h112c0 -23 15 -43 37 -43s37 20 37 43h112c0 -35 -14 -69 -42 -94h125z" />
    <glyph glyph-name="edotaccent" unicode="&#x117;" horiz-adv-x="583" 
d="M535 700v-139h-310v-134h288v-139h-288v-149h310v-139h-463v700h173v94h116v-94h174z" />
    <glyph glyph-name="Edotaccent" unicode="&#x116;" horiz-adv-x="583" 
d="M535 700v-139h-310v-134h288v-139h-288v-149h310v-139h-463v700h173v94h116v-94h174z" />
    <glyph glyph-name="eogonek" unicode="&#x119;" horiz-adv-x="583" 
d="M535 700v-139h-310v-134h288v-139h-288v-149h310v-139h-26c-20 -24 -32 -55 -33 -88h-122c-1 27 11 61 36 88h-318v700h463z" />
    <glyph glyph-name="Eogonek" unicode="&#x118;" horiz-adv-x="583" 
d="M535 700v-139h-310v-134h288v-139h-288v-149h310v-139h-26c-20 -24 -32 -55 -33 -88h-122c-1 27 11 61 36 88h-318v700h463z" />
    <glyph glyph-name="fi.cap" unicode="&#xe09f;" horiz-adv-x="859" 
d="M524 700v-139h-299v-149h277v-139h-277v-273h-153v700h452zM787 700v-700h-153v700h153z" />
    <glyph glyph-name="fl.cap" unicode="&#xe0a0;" horiz-adv-x="1111" 
d="M524 700v-139h-299v-149h277v-139h-277v-273h-153v700h452zM634 700h153v-561h284v-139h-437v700z" />
    <glyph glyph-name="gcircumflex" unicode="&#x11d;" horiz-adv-x="763" 
d="M388 252v142h336v-56c0 -211 -134 -348 -333 -348c-183 0 -351 128 -351 360c0 152 78 263 193 319l84 125h147l63 -93c46 -9 85 -23 115 -43v-152c-60 38 -135 60 -224 60c-141 0 -220 -94 -220 -216c0 -134 85 -216 200 -216c122 0 159 79 159 118h-169z" />
    <glyph glyph-name="Gcircumflex" unicode="&#x11c;" horiz-adv-x="763" 
d="M643 658v-64h-511c29 31 63 55 102 74l84 126h147l63 -93c46 -9 85 -23 115 -43zM392 -10c-103 0 -200 40 -266 116h525c-58 -74 -149 -116 -259 -116zM389 194v112h335c-3 -41 -11 -78 -23 -112h-312zM258 506c-30 -30 -48 -68 -56 -112h-159c5 41 15 78 30 112h185z
M202 306c7 -46 25 -84 52 -112h-183c-14 33 -24 71 -28 112h159z" />
    <glyph glyph-name="gbreve" unicode="&#x11f;" horiz-adv-x="763" 
d="M388 252v142h336v-56c0 -211 -134 -348 -333 -348c-183 0 -351 128 -351 360c0 174 104 294 246 340c-36 25 -54 65 -54 104h112c0 -23 15 -43 37 -43s37 20 37 43h112c0 -32 -12 -64 -36 -88c61 -7 111 -24 148 -48v-152c-60 38 -135 60 -224 60
c-141 0 -220 -94 -220 -216c0 -134 85 -216 200 -216c122 0 159 79 159 118h-169z" />
    <glyph glyph-name="Gbreve" unicode="&#x11e;" horiz-adv-x="763" 
d="M643 658v-64h-511c41 44 95 77 155 96c-36 25 -54 65 -54 104h112c0 -23 15 -43 37 -43s37 20 37 43h112c0 -32 -12 -64 -36 -88c61 -7 111 -24 148 -48zM392 -10c-103 0 -200 40 -266 116h525c-58 -74 -149 -116 -259 -116zM389 194v112h335c-3 -41 -11 -78 -23 -112
h-312zM258 506c-30 -30 -48 -68 -56 -112h-159c5 41 15 78 30 112h185zM202 306c7 -46 25 -84 52 -112h-183c-14 33 -24 71 -28 112h159z" />
    <glyph glyph-name="gdotaccent" unicode="&#x121;" horiz-adv-x="763" 
d="M388 252v142h336v-56c0 -211 -134 -348 -333 -348c-183 0 -351 128 -351 360c0 189 122 315 283 350v94h116v-84c87 -3 155 -21 203 -52v-152c-60 38 -135 60 -224 60c-141 0 -220 -94 -220 -216c0 -134 85 -216 200 -216c122 0 159 79 159 118h-169z" />
    <glyph glyph-name="Gdotaccent" unicode="&#x120;" horiz-adv-x="763" 
d="M643 658v-64h-511c50 53 116 89 192 106v94h116v-84c87 -3 155 -21 203 -52zM392 -10c-103 0 -200 40 -266 116h525c-58 -74 -149 -116 -259 -116zM389 194v112h335c-3 -41 -11 -78 -23 -112h-312zM258 506c-30 -30 -48 -68 -56 -112h-159c5 41 15 78 30 112h185z
M202 306c7 -46 25 -84 52 -112h-183c-14 33 -24 71 -28 112h159z" />
    <glyph glyph-name="gcommaaccent" unicode="&#x123;" horiz-adv-x="763" 
d="M388 252v142h336v-56c0 -211 -134 -348 -333 -348c-183 0 -351 128 -351 360c0 225 173 360 378 360c97 0 173 -18 224 -52v-152c-60 38 -135 60 -224 60c-141 0 -220 -94 -220 -216c0 -134 85 -216 200 -216c122 0 159 79 159 118h-169zM324 -30h152l-62 -121h-128z" />
    <glyph glyph-name="Gcommaaccent" unicode="&#x122;" horiz-adv-x="763" 
d="M325 -30h152l-62 -121h-128zM643 658v-64h-511c70 75 173 116 287 116c97 0 173 -18 224 -52zM392 -10c-103 0 -200 40 -266 116h525c-58 -74 -149 -116 -259 -116zM389 194v112h335c-3 -41 -11 -78 -23 -112h-312zM258 506c-30 -30 -48 -68 -56 -112h-159
c5 41 15 78 30 112h185zM202 306c7 -46 25 -84 52 -112h-183c-14 33 -24 71 -28 112h159z" />
    <glyph glyph-name="hcircumflex" unicode="&#x125;" horiz-adv-x="743" 
d="M671 700v-700h-153v277h-293v-277h-153v700h153v-13l72 107h147l74 -109v15h153zM225 416h293v247h-110l-37 63l-37 -63h-109v-247z" />
    <glyph glyph-name="Hcircumflex" unicode="&#x124;" horiz-adv-x="743" 
d="M671 700v-700h-153v277h-293v-277h-153v700h153v-13l72 107h147l74 -109v15h153zM225 416h293v247h-110l-37 63l-37 -63h-109v-247z" />
    <glyph glyph-name="hbar" unicode="&#x127;" horiz-adv-x="743" 
d="M671 700v-93h60v-113h-60v-494h-153v277h-293v-277h-153v494h-60v113h60v93h153v-93h293v93h153zM225 416h293v78h-293v-78z" />
    <glyph glyph-name="Hbar" unicode="&#x126;" horiz-adv-x="743" 
d="M671 700v-93h60v-113h-60v-494h-153v277h-293v-277h-153v494h-60v113h60v93h153v-93h293v93h153zM225 416h293v78h-293v-78z" />
    <glyph glyph-name="igrave" unicode="&#xec;" horiz-adv-x="297" 
d="M179 794l31 -94h15v-700h-153v700h16l-31 94h122z" />
    <glyph glyph-name="Igrave" unicode="&#xcc;" horiz-adv-x="297" 
d="M179 794l31 -94h15v-106h-153v106h16l-31 94h122zM72 194v112h153v-112h-153zM72 394v112h153v-112h-153zM225 0h-153v106h153v-106z" />
    <glyph glyph-name="iacute" unicode="&#xed;" horiz-adv-x="297" 
d="M225 700v-700h-153v700h15l32 94h122l-32 -94h16z" />
    <glyph glyph-name="Iacute" unicode="&#xcd;" horiz-adv-x="297" 
d="M225 700v-106h-153v106h15l32 94h122l-32 -94h16zM72 194v112h153v-112h-153zM72 394v112h153v-112h-153zM225 0h-153v106h153v-106z" />
    <glyph glyph-name="icircumflex" unicode="&#xee;" horiz-adv-x="297" 
d="M311 663h-86v-663h-153v663h-85l88 131h147z" />
    <glyph glyph-name="Icircumflex" unicode="&#xce;" horiz-adv-x="297" 
d="M311 663h-86v-69h-153v69h-85l88 131h147zM72 394v112h153v-112h-153zM72 194v112h153v-112h-153zM225 0h-153v106h153v-106z" />
    <glyph glyph-name="itilde" unicode="&#x129;" horiz-adv-x="297" 
d="M-14 658v52c0 68 47 84 79 84c42 0 109 -30 138 -30c20 0 25 9 25 30h83v-52c0 -68 -47 -84 -79 -84h-7v-658h-153v658h-86z" />
    <glyph glyph-name="Itilde" unicode="&#x128;" horiz-adv-x="297" 
d="M-14 658v52c0 68 47 84 79 84c42 0 109 -30 138 -30c20 0 25 9 25 30h83v-52c0 -68 -47 -84 -79 -84h-7v-64h-153v64h-86zM72 394v112h153v-112h-153zM72 194v112h153v-112h-153zM225 0h-153v106h153v-106z" />
    <glyph glyph-name="idieresis" unicode="&#xef;" horiz-adv-x="297" 
d="M0 663v131h116v-94h65v94h116v-131h-72v-663h-153v663h-72z" />
    <glyph glyph-name="Idieresis" unicode="&#xcf;" horiz-adv-x="297" 
d="M0 663v131h116v-94h65v94h116v-131h-72v-69h-153v69h-72zM72 194v112h153v-112h-153zM72 394v112h153v-112h-153zM225 0h-153v106h153v-106z" />
    <glyph glyph-name="imacron" unicode="&#x12b;" horiz-adv-x="297" 
d="M0 680v114h297v-114h-72v-680h-153v680h-72z" />
    <glyph glyph-name="Imacron" unicode="&#x12a;" horiz-adv-x="297" 
d="M0 680v114h297v-114h-72v-86h-153v86h-72zM72 394v112h153v-112h-153zM72 194v112h153v-112h-153zM225 0h-153v106h153v-106z" />
    <glyph glyph-name="ibreve" unicode="&#x12d;" horiz-adv-x="297" 
d="M225 0h-153v679c-49 23 -72 69 -72 115h112c0 -23 15 -43 37 -43s37 20 37 43h112c0 -46 -24 -92 -73 -115v-679z" />
    <glyph glyph-name="Ibreve" unicode="&#x12c;" horiz-adv-x="297" 
d="M298 794c0 -46 -24 -92 -73 -115v-85h-153v85c-49 23 -72 69 -72 115h112c0 -23 15 -43 37 -43s37 20 37 43h112zM72 194v112h153v-112h-153zM72 394v112h153v-112h-153zM225 0h-153v106h153v-106z" />
    <glyph glyph-name="iogonek" unicode="&#x12f;" horiz-adv-x="297" 
d="M225 700v-700h-26c-20 -24 -32 -55 -33 -88h-122c-1 27 11 61 36 88h-8v700h153z" />
    <glyph glyph-name="Iogonek" unicode="&#x12e;" horiz-adv-x="297" 
d="M225 0h-26c-20 -24 -32 -55 -33 -88h-122c-1 27 11 61 36 88h-8v106h153v-106zM72 394v112h153v-112h-153zM72 194v112h153v-112h-153zM225 700v-106h-153v106h153z" />
    <glyph glyph-name="dotlessi" unicode="&#x131;" horiz-adv-x="297" 
d="M225 700v-700h-153v700h153z" />
    <glyph glyph-name="dotlessI" unicode="&#xe8ee;" horiz-adv-x="297" 
d="M72 394v112h153v-112h-153zM72 194v112h153v-112h-153zM225 700v-106h-153v106h153zM225 0h-153v106h153v-106z" />
    <glyph glyph-name="i.TRK" unicode="&#xe84b;" horiz-adv-x="297" 
d="M225 700v-700h-153v700h19v94h116v-94h18z" />
    <glyph glyph-name="Idotaccent" unicode="&#x130;" horiz-adv-x="297" 
d="M225 700v-106h-153v106h19v94h116v-94h18zM72 194v112h153v-112h-153zM72 394v112h153v-112h-153zM225 0h-153v106h153v-106z" />
    <glyph glyph-name="ij" unicode="&#x133;" horiz-adv-x="698" 
d="M225 700v-700h-153v700h153zM633 700v-453c0 -152 -96 -252 -238 -252c-32 0 -57 4 -72 8v144c6 -3 25 -8 47 -8c66 0 111 31 111 136v425h152z" />
    <glyph glyph-name="IJ" unicode="&#x132;" horiz-adv-x="698" 
d="M225 700v-700h-153v700h153zM633 700v-453c0 -152 -96 -252 -238 -252c-32 0 -57 4 -72 8v144c6 -3 25 -8 47 -8c66 0 111 31 111 136v425h152z" />
    <glyph glyph-name="jcircumflex" unicode="&#x135;" horiz-adv-x="401" 
d="M421 663h-85v-416c0 -152 -96 -252 -238 -252c-32 0 -57 4 -72 8v144c6 -3 25 -8 47 -8c66 0 111 31 111 136v388h-87l88 131h147z" />
    <glyph glyph-name="Jcircumflex" unicode="&#x134;" horiz-adv-x="401" 
d="M421 663h-85v-69h-152v69h-87l88 131h147zM98 -5c-32 0 -57 4 -72 8v103h275c-40 -70 -112 -111 -203 -111zM170 194c9 20 14 46 14 81v31h152v-59c0 -19 -2 -36 -5 -53h-161zM184 394v112h152v-112h-152z" />
    <glyph glyph-name="kcommaaccent" unicode="&#x137;" horiz-adv-x="709" 
d="M654 700l-268 -335l308 -365h-210l-259 315v-315h-153v700h153v-317l240 317h189zM267 -30h152l-62 -121h-128z" />
    <glyph glyph-name="Kcommaaccent" unicode="&#x136;" horiz-adv-x="709" 
d="M324 194l-92 112h204l94 -112h-206zM484 0l-87 106h207l90 -106h-210zM233 394l85 112h180l-89 -112h-176zM654 700l-85 -106h-185l81 106h189zM72 394v112h153v-112h-153zM72 194v112h153v-112h-153zM225 700v-106h-153v106h153zM225 0h-153v106h153v-106zM267 -30h152
l-62 -121h-128z" />
    <glyph glyph-name="lacute" unicode="&#x13a;" horiz-adv-x="549" 
d="M72 700h15l32 94h122l-32 -94h16v-561h284v-139h-437v700z" />
    <glyph glyph-name="Lacute" unicode="&#x139;" horiz-adv-x="549" 
d="M509 0h-437v106h437v-106zM72 700h15l32 94h122l-32 -94h16v-106h-153v106zM72 194v112h153v-112h-153zM72 394v112h153v-112h-153z" />
    <glyph glyph-name="lcaron" unicode="&#x13e;" horiz-adv-x="549" 
d="M329 700h143l-86 -194h-119zM72 700h153v-561h284v-139h-437v700z" />
    <glyph glyph-name="Lcaron" unicode="&#x13d;" horiz-adv-x="549" 
d="M329 700h143l-86 -194h-119zM509 0h-437v106h437v-106zM72 194v112h153v-112h-153zM72 394v112h153v-112h-153zM72 700h153v-106h-153v106z" />
    <glyph glyph-name="lcommaaccent" unicode="&#x13c;" horiz-adv-x="549" 
d="M72 700h153v-561h284v-139h-437v700zM218 -30h152l-62 -121h-128z" />
    <glyph glyph-name="Lcommaaccent" unicode="&#x13b;" horiz-adv-x="549" 
d="M509 0h-437v106h437v-106zM72 194v112h153v-112h-153zM72 394v112h153v-112h-153zM72 700h153v-106h-153v106zM218 -30h152l-62 -121h-128z" />
    <glyph glyph-name="lslash" unicode="&#x142;" horiz-adv-x="549" 
d="M72 700h153v-273l174 64v-113l-174 -64v-175h284v-139h-437v257l-63 -23v113l63 23v330z" />
    <glyph glyph-name="Lslash" unicode="&#x141;" horiz-adv-x="549" 
d="M72 700h153v-290l174 54v-110l-174 -54v-161h284v-139h-437v253l-63 -19v110l63 19v337z" />
    <glyph glyph-name="ldot" unicode="&#x140;" horiz-adv-x="549" 
d="M341 325v159h152v-159h-152zM72 700h153v-561h284v-139h-437v700z" />
    <glyph glyph-name="Ldot" unicode="&#x13f;" horiz-adv-x="549" 
d="M351 331v138h138v-138h-138zM509 0h-437v106h437v-106zM72 194v112h153v-112h-153zM72 394v112h153v-112h-153zM72 700h153v-106h-153v106z" />
    <glyph glyph-name="nacute" unicode="&#x144;" horiz-adv-x="761" 
d="M689 700v-700h-134l-330 434v-434h-153v700h135l330 -435v435h152zM324 663l44 131h122l-44 -131h-122z" />
    <glyph glyph-name="Nacute" unicode="&#x143;" horiz-adv-x="761" 
d="M439 394h-367v112h282zM322 306h367v-112h-282zM72 700h135l80 -106h-215v106zM555 0l-81 106h215v-106h-134zM72 194v112h153v-112h-153zM537 394v112h152v-112h-152zM225 0h-153v106h153v-106zM689 700v-106h-152v106h152zM324 663l44 131h122l-44 -131h-122z" />
    <glyph glyph-name="ncaron" unicode="&#x148;" horiz-adv-x="761" 
d="M689 700v-700h-134l-330 434v-434h-153v700h135l330 -435v435h152zM453 663h-147l-88 131h125l37 -63l37 63h124z" />
    <glyph glyph-name="Ncaron" unicode="&#x147;" horiz-adv-x="761" 
d="M439 394h-367v112h282zM322 306h367v-112h-282zM72 700h135l80 -106h-215v106zM555 0l-81 106h215v-106h-134zM72 194v112h153v-112h-153zM537 394v112h152v-112h-152zM225 0h-153v106h153v-106zM689 700v-106h-152v106h152zM453 663h-147l-88 131h125l37 -63l37 63h124z
" />
    <glyph glyph-name="ntilde" unicode="&#xf1;" horiz-adv-x="761" 
d="M689 700v-700h-134l-330 434v-434h-153v700h135l11 -15v25c0 68 47 84 79 84c42 0 109 -30 138 -30c20 0 25 9 25 30h83v-52c0 -68 -47 -84 -79 -84c-42 0 -109 30 -138 30c-20 0 -25 -9 -25 -30h-62l298 -393v435h152z" />
    <glyph glyph-name="Ntilde" unicode="&#xd1;" horiz-adv-x="761" 
d="M72 700h135l11 -15v25c0 68 47 84 79 84c42 0 109 -30 138 -30c20 0 25 9 25 30h83v-52c0 -68 -47 -84 -79 -84c-42 0 -109 30 -138 30c-20 0 -25 -9 -25 -30h-63l49 -64h-215v106zM322 306h367v-112h-282zM439 394h-367v112h282zM555 0l-81 106h215v-106h-134zM72 194
v112h153v-112h-153zM537 394v112h152v-112h-152zM225 0h-153v106h153v-106zM689 700v-106h-152v106h152z" />
    <glyph glyph-name="ncommaaccent" unicode="&#x146;" horiz-adv-x="761" 
d="M689 700v-700h-134l-330 434v-434h-153v700h135l330 -435v435h152zM323 -30h152l-62 -121h-128z" />
    <glyph glyph-name="Ncommaaccent" unicode="&#x145;" horiz-adv-x="761" 
d="M439 394h-367v112h282zM322 306h367v-112h-282zM72 700h135l80 -106h-215v106zM555 0l-81 106h215v-106h-134zM72 194v112h153v-112h-153zM537 394v112h152v-112h-152zM225 0h-153v106h153v-106zM689 700v-106h-152v106h152zM323 -30h152l-62 -121h-128z" />
    <glyph glyph-name="ograve" unicode="&#xf2;" horiz-adv-x="800" 
d="M439 794l30 -91c160 -29 291 -158 291 -353c0 -223 -170 -360 -360 -360s-360 137 -360 360c0 201 139 333 306 356l-29 88h122zM198 350c0 -125 88 -216 202 -216s202 91 202 216s-88 216 -202 216s-202 -91 -202 -216z" />
    <glyph glyph-name="Ograve" unicode="&#xd2;" horiz-adv-x="800" 
d="M72 194c-15 33 -25 71 -30 112h715c-4 -41 -14 -79 -29 -112h-656zM728 506c15 -34 25 -72 29 -112h-715c5 40 15 78 30 112h656zM439 794l30 -91c78 -14 149 -52 201 -109h-541c56 61 133 100 217 112l-29 88h122zM400 -10c-105 0 -203 41 -271 116h541
c-67 -75 -166 -116 -270 -116z" />
    <glyph glyph-name="ograve.alt" unicode="&#xe8f4;" horiz-adv-x="800" 
d="M439 794l30 -91c160 -29 291 -158 291 -353c0 -223 -170 -360 -360 -360s-360 137 -360 360c0 201 139 333 306 356l-29 88h122z" />
    <glyph glyph-name="oacute" unicode="&#xf3;" horiz-adv-x="800" 
d="M760 350c0 -223 -170 -360 -360 -360s-360 137 -360 360c0 195 130 324 290 353l31 91h122l-30 -88c168 -23 307 -154 307 -356zM198 350c0 -125 88 -216 202 -216s202 91 202 216s-88 216 -202 216s-202 -91 -202 -216z" />
    <glyph glyph-name="Oacute" unicode="&#xd3;" horiz-adv-x="800" 
d="M72 194c-15 33 -25 71 -30 112h715c-4 -41 -14 -79 -29 -112h-656zM728 506c15 -34 25 -72 29 -112h-715c5 40 15 78 30 112h656zM483 794l-30 -88c84 -12 161 -51 217 -112h-541c52 57 123 96 201 110l31 90h122zM400 -10c-105 0 -203 41 -271 116h541
c-67 -75 -166 -116 -270 -116z" />
    <glyph glyph-name="oacute.alt" unicode="&#xe8f5;" horiz-adv-x="800" 
d="M760 350c0 -223 -170 -360 -360 -360s-360 137 -360 360c0 195 130 324 290 353l31 91h122l-30 -88c168 -23 307 -154 307 -356z" />
    <glyph glyph-name="ocircumflex" unicode="&#xf4;" horiz-adv-x="800" 
d="M760 350c0 -223 -170 -360 -360 -360s-360 137 -360 360c0 161 88 276 209 329l77 115h147l78 -115c120 -53 209 -168 209 -329zM198 350c0 -125 88 -216 202 -216s202 91 202 216s-88 216 -202 216s-202 -91 -202 -216z" />
    <glyph glyph-name="Ocircumflex" unicode="&#xd4;" horiz-adv-x="800" 
d="M72 194c-15 33 -25 71 -30 112h715c-4 -41 -14 -79 -29 -112h-656zM728 506c15 -34 25 -72 29 -112h-715c5 40 15 78 30 112h656zM311 794h177l65 -116c45 -20 84 -48 117 -84h-541c33 36 73 64 117 84zM400 -10c-105 0 -203 41 -271 116h541
c-67 -75 -166 -116 -270 -116z" />
    <glyph glyph-name="ocircumflex.alt" unicode="&#xe8f6;" horiz-adv-x="800" 
d="M760 350c0 -223 -170 -360 -360 -360s-360 137 -360 360c0 161 88 276 209 329l77 115h147l78 -115c120 -53 209 -168 209 -329z" />
    <glyph glyph-name="otilde" unicode="&#xf5;" horiz-adv-x="800" 
d="M760 350c0 -223 -170 -360 -360 -360s-360 137 -360 360c0 155 82 269 197 324v36c0 68 47 84 79 84c42 0 109 -30 138 -30c20 0 25 9 25 30h83v-52c0 -28 -8 -47 -19 -60c124 -50 217 -168 217 -332zM198 350c0 -125 88 -216 202 -216s202 91 202 216s-88 216 -202 216
s-202 -91 -202 -216z" />
    <glyph glyph-name="Otilde" unicode="&#xd5;" horiz-adv-x="800" 
d="M72 194c-15 33 -25 71 -30 112h715c-4 -41 -14 -79 -29 -112h-656zM728 506c15 -34 25 -72 29 -112h-715c5 40 15 78 30 112h656zM562 742c0 -28 -8 -47 -19 -60c48 -20 92 -50 127 -88h-541c30 33 67 60 108 79v37c0 68 47 84 79 84c42 0 109 -30 138 -30
c20 0 25 9 25 30h83v-52zM400 -10c-105 0 -203 41 -271 116h541c-67 -75 -166 -116 -270 -116z" />
    <glyph glyph-name="otilde.alt" unicode="&#xe8f7;" horiz-adv-x="800" 
d="M760 350c0 -223 -170 -360 -360 -360s-360 137 -360 360c0 155 82 269 197 324v36c0 68 47 84 79 84c42 0 109 -30 138 -30c20 0 25 9 25 30h83v-52c0 -28 -8 -47 -19 -60c124 -50 217 -168 217 -332z" />
    <glyph glyph-name="odieresis" unicode="&#xf6;" horiz-adv-x="800" 
d="M760 350c0 -223 -170 -360 -360 -360s-360 137 -360 360c0 161 89 278 211 330v114h116v-86c11 1 22 2 33 2c10 0 21 -1 32 -2v86h116v-114c122 -51 212 -168 212 -330zM198 350c0 -125 88 -216 202 -216s202 91 202 216s-88 216 -202 216s-202 -91 -202 -216z" />
    <glyph glyph-name="Odieresis" unicode="&#xd6;" horiz-adv-x="800" 
d="M72 194c-15 33 -25 71 -30 112h715c-4 -41 -14 -79 -29 -112h-656zM728 506c15 -34 25 -72 29 -112h-715c5 40 15 78 30 112h656zM400 710c10 0 21 0 32 -1v85h116v-114c46 -20 88 -49 122 -86h-541c34 37 75 66 122 86v114h116v-85c11 1 22 1 33 1zM400 -10
c-105 0 -203 41 -271 116h541c-67 -75 -166 -116 -270 -116z" />
    <glyph glyph-name="odieresis.alt" unicode="&#xe8f8;" horiz-adv-x="800" 
d="M760 350c0 -223 -170 -360 -360 -360s-360 137 -360 360c0 161 89 278 211 330v114h116v-86c11 1 22 2 33 2c10 0 21 -1 32 -2v86h116v-114c122 -51 212 -168 212 -330z" />
    <glyph glyph-name="omacron" unicode="&#x14d;" horiz-adv-x="800" 
d="M760 350c0 -223 -170 -360 -360 -360s-360 137 -360 360c0 161 89 278 211 330v114h297v-114c122 -51 212 -168 212 -330zM198 350c0 -125 88 -216 202 -216s202 91 202 216s-88 216 -202 216s-202 -91 -202 -216z" />
    <glyph glyph-name="Omacron" unicode="&#x14c;" horiz-adv-x="800" 
d="M72 194c-15 33 -25 71 -30 112h715c-4 -41 -14 -79 -29 -112h-656zM728 506c15 -34 25 -72 29 -112h-715c5 40 15 78 30 112h656zM251 680v114h297v-114c46 -20 88 -49 122 -86h-541c34 37 75 66 122 86zM400 -10c-105 0 -203 41 -271 116h541
c-67 -75 -166 -116 -270 -116z" />
    <glyph glyph-name="omacron.alt" unicode="&#xe8f9;" horiz-adv-x="800" 
d="M760 350c0 -223 -170 -360 -360 -360s-360 137 -360 360c0 161 89 278 211 330v114h297v-114c122 -51 212 -168 212 -330z" />
    <glyph glyph-name="obreve" unicode="&#x14f;" horiz-adv-x="800" 
d="M760 350c0 -223 -170 -360 -360 -360s-360 137 -360 360c0 181 112 306 257 346c-31 25 -46 62 -46 98h112c0 -23 15 -43 37 -43s37 20 37 43h112c0 -36 -16 -73 -46 -98c144 -40 257 -165 257 -346zM198 350c0 -125 88 -216 202 -216s202 91 202 216s-88 216 -202 216
s-202 -91 -202 -216z" />
    <glyph glyph-name="Obreve" unicode="&#x14e;" horiz-adv-x="800" 
d="M72 194c-15 33 -25 71 -30 112h715c-4 -41 -14 -79 -29 -112h-656zM728 506c15 -34 25 -72 29 -112h-715c5 40 15 78 30 112h656zM549 794c0 -36 -16 -73 -46 -98c64 -18 122 -53 167 -102h-541c45 49 103 84 168 102c-31 25 -46 62 -46 98h112c0 -23 15 -43 37 -43
s37 20 37 43h112zM400 -10c-105 0 -203 41 -271 116h541c-67 -75 -166 -116 -270 -116z" />
    <glyph glyph-name="obreve.alt" unicode="&#xe8fa;" horiz-adv-x="800" 
d="M760 350c0 -223 -170 -360 -360 -360s-360 137 -360 360c0 181 112 306 257 346c-31 25 -46 62 -46 98h112c0 -23 15 -43 37 -43s37 20 37 43h112c0 -36 -16 -73 -46 -98c144 -40 257 -165 257 -346z" />
    <glyph glyph-name="ohungarumlaut" unicode="&#x151;" horiz-adv-x="800" 
d="M760 350c0 -223 -170 -360 -360 -360s-360 137 -360 360c0 151 78 263 188 319l42 125h122l-29 -86c12 1 24 2 37 2c7 0 15 -1 22 -1l29 85h122l-37 -109c128 -49 224 -168 224 -335zM198 350c0 -125 88 -216 202 -216s202 91 202 216s-88 216 -202 216
s-202 -91 -202 -216z" />
    <glyph glyph-name="Ohungarumlaut" unicode="&#x150;" horiz-adv-x="800" 
d="M72 194c-15 33 -25 71 -30 112h715c-4 -41 -14 -79 -29 -112h-656zM728 506c15 -34 25 -72 29 -112h-715c5 40 15 78 30 112h656zM400 710c7 0 15 0 22 -1l29 85h122l-37 -109c51 -20 97 -51 134 -91h-541c28 31 62 56 99 75l42 125h122l-29 -86c12 1 24 2 37 2zM400 -10
c-105 0 -203 41 -271 116h541c-67 -75 -166 -116 -270 -116z" />
    <glyph glyph-name="ohungarumlaut.alt" unicode="&#xe8fb;" horiz-adv-x="800" 
d="M760 350c0 -223 -170 -360 -360 -360s-360 137 -360 360c0 151 78 263 188 319l42 125h122l-29 -86c12 1 24 2 37 2c7 0 15 -1 22 -1l29 85h122l-37 -109c128 -49 224 -168 224 -335z" />
    <glyph glyph-name="oslash" unicode="&#xf8;" horiz-adv-x="800" 
d="M760 350c0 -223 -170 -360 -360 -360c-65 0 -127 16 -181 45l-28 -35h-143l83 104c-56 61 -91 144 -91 246c0 223 170 360 360 360c64 0 126 -16 180 -45l28 35h143l-83 -104c57 -61 92 -145 92 -246zM602 350c0 46 -12 88 -33 122l-256 -319c26 -13 56 -19 87 -19
c114 0 202 91 202 216zM198 350c0 -46 12 -88 33 -122l254 319c-26 12 -54 19 -85 19c-114 0 -202 -91 -202 -216z" />
    <glyph glyph-name="Oslash" unicode="&#xd8;" horiz-adv-x="800" 
d="M760 350c0 -223 -170 -360 -360 -360c-65 0 -127 16 -181 45l-28 -35h-143l83 104c-56 61 -91 144 -91 246c0 223 170 360 360 360c64 0 126 -16 180 -45l28 35h143l-83 -104c57 -61 92 -145 92 -246zM602 350c0 46 -12 88 -33 122l-256 -319c26 -13 56 -19 87 -19
c114 0 202 91 202 216zM198 350c0 -46 12 -88 33 -122l254 319c-26 12 -54 19 -85 19c-114 0 -202 -91 -202 -216z" />
    <glyph glyph-name="oslashacute" unicode="&#x1ff;" horiz-adv-x="800" 
d="M760 350c0 -223 -170 -360 -360 -360c-65 0 -127 16 -181 45l-28 -35h-143l83 104c-56 61 -91 144 -91 246c0 195 130 324 290 353l31 91h122l-30 -88c45 -6 88 -20 127 -41l28 35h143l-83 -104c57 -61 92 -145 92 -246zM602 350c0 46 -12 88 -33 122l-256 -319
c26 -13 56 -19 87 -19c114 0 202 91 202 216zM198 350c0 -46 12 -88 33 -122l254 319c-26 12 -54 19 -85 19c-114 0 -202 -91 -202 -216z" />
    <glyph glyph-name="Oslashacute" unicode="&#x1fe;" horiz-adv-x="800" 
d="M760 350c0 -223 -170 -360 -360 -360c-65 0 -127 16 -181 45l-28 -35h-143l83 104c-56 61 -91 144 -91 246c0 195 130 324 290 353l31 91h122l-30 -88c45 -6 88 -20 127 -41l28 35h143l-83 -104c57 -61 92 -145 92 -246zM602 350c0 46 -12 88 -33 122l-256 -319
c26 -13 56 -19 87 -19c114 0 202 91 202 216zM198 350c0 -46 12 -88 33 -122l254 319c-26 12 -54 19 -85 19c-114 0 -202 -91 -202 -216z" />
    <glyph glyph-name="oe" unicode="&#x153;" horiz-adv-x="1012" 
d="M964 0h-537c-244 0 -387 139 -387 349c0 212 143 351 387 351h537v-139h-300v-134h278v-139h-278v-149h300v-139zM445 139h66v422h-67c-201 0 -246 -115 -246 -211s45 -211 247 -211z" />
    <glyph glyph-name="OE" unicode="&#x152;" horiz-adv-x="1012" 
d="M964 0h-537c-244 0 -387 139 -387 349c0 212 143 351 387 351h537v-139h-300v-134h278v-139h-278v-149h300v-139zM445 139h66v422h-67c-201 0 -246 -115 -246 -211s45 -211 247 -211z" />
    <glyph glyph-name="oe.alt" unicode="&#xe78b;" horiz-adv-x="1012" 
d="M964 0h-537c-244 0 -387 139 -387 349c0 212 143 351 387 351h537v-139h-300v-134h278v-139h-278v-149h300v-139z" />
    <glyph glyph-name="racute" unicode="&#x155;" horiz-adv-x="664" 
d="M464 0l-190 250h-49v-250h-153v700h168l32 94h122l-32 -94h1c155 0 248 -92 248 -224c0 -99 -56 -187 -165 -216l207 -260h-189zM456 469c0 35 -23 92 -110 92h-121v-188h121c87 0 110 49 110 96z" />
    <glyph glyph-name="Racute" unicode="&#x154;" horiz-adv-x="664" 
d="M611 476c0 -29 -5 -57 -14 -82h-525v112h537c1 -10 2 -20 2 -30zM363 700c102 0 177 -41 217 -106h-508v106h168l32 94h122l-32 -94h1zM536 306c-25 -21 -54 -37 -90 -46l52 -66h-426v112h464zM464 0l-81 106h185l85 -106h-189zM225 0h-153v106h153v-106z" />
    <glyph glyph-name="racute.alt" unicode="&#xe8d8;" horiz-adv-x="664" 
d="M464 0l-190 250h-49v-250h-153v700h168l32 94h122l-32 -94h1c155 0 248 -92 248 -224c0 -99 -56 -187 -165 -216l207 -260h-189z" />
    <glyph glyph-name="rcaron" unicode="&#x159;" horiz-adv-x="664" 
d="M464 0l-190 250h-49v-250h-153v700h132l-63 94h125l37 -63l37 63h124l-65 -96c133 -14 212 -101 212 -222c0 -99 -56 -187 -165 -216l207 -260h-189zM456 469c0 35 -23 92 -110 92h-121v-188h121c87 0 110 49 110 96z" />
    <glyph glyph-name="Rcaron" unicode="&#x158;" horiz-adv-x="664" 
d="M464 794l-65 -96c84 -8 146 -47 181 -104h-508v106h132l-63 94h125l37 -63l37 63h124zM611 476c0 -29 -5 -57 -14 -82h-525v112h537c1 -10 2 -20 2 -30zM536 306c-25 -21 -54 -37 -90 -46l52 -66h-426v112h464zM464 0l-81 106h185l85 -106h-189zM225 0h-153v106h153v-106
z" />
    <glyph glyph-name="rcaron.alt" unicode="&#xe8db;" horiz-adv-x="664" 
d="M464 0l-190 250h-49v-250h-153v700h132l-63 94h125l37 -63l37 63h124l-65 -96c133 -14 212 -101 212 -222c0 -99 -56 -187 -165 -216l207 -260h-189z" />
    <glyph glyph-name="rcommaaccent" unicode="&#x157;" horiz-adv-x="664" 
d="M464 0l-190 250h-49v-250h-153v700h291c155 0 248 -92 248 -224c0 -99 -56 -187 -165 -216l207 -260h-189zM456 469c0 35 -23 92 -110 92h-121v-188h121c87 0 110 49 110 96zM265 -30h152l-62 -121h-128z" />
    <glyph glyph-name="Rcommaaccent" unicode="&#x156;" horiz-adv-x="664" 
d="M265 -30h152l-62 -121h-128zM611 476c0 -29 -5 -57 -14 -82h-525v112h537c1 -10 2 -20 2 -30zM363 700c102 0 177 -41 217 -106h-508v106h291zM536 306c-25 -21 -54 -37 -90 -46l52 -66h-426v112h464zM464 0l-81 106h185l85 -106h-189zM225 0h-153v106h153v-106z" />
    <glyph glyph-name="rcommaaccent.alt" unicode="&#xe8de;" horiz-adv-x="664" 
d="M464 0l-190 250h-49v-250h-153v700h291c155 0 248 -92 248 -224c0 -99 -56 -187 -165 -216l207 -260h-189zM265 -30h152l-62 -121h-128z" />
    <glyph glyph-name="germandbls" unicode="&#xdf;" horiz-adv-x="1192" 
d="M560 204c0 -121 -86 -214 -290 -214c-63 0 -151 16 -194 47v144c45 -30 130 -54 196 -54c96 0 131 24 131 67c0 122 -336 59 -336 314c0 133 121 202 266 202c78 0 144 -18 177 -36v-143c-43 23 -107 42 -168 42c-66 0 -118 -10 -118 -59c0 -116 336 -57 336 -310z
M1141 204c0 -121 -86 -214 -290 -214c-63 0 -151 16 -194 47v144c45 -30 130 -54 196 -54c96 0 131 24 131 67c0 122 -336 59 -336 314c0 133 121 202 266 202c78 0 144 -18 177 -36v-143c-43 23 -107 42 -168 42c-66 0 -118 -10 -118 -59c0 -116 336 -57 336 -310z" />
    <glyph glyph-name="germandbls.cap" unicode="&#xe0aa;" horiz-adv-x="1222" 
d="M270 -10c-63 0 -151 16 -194 47v69h461c-38 -70 -123 -116 -267 -116zM510 674v-80h-423c41 76 136 116 246 116c78 0 144 -18 177 -36zM224 506c9 -60 116 -70 207 -112h-333c-19 28 -31 65 -31 112h157zM560 204v-10h-157c0 64 -93 77 -181 112h313
c15 -27 25 -61 25 -102zM881 -10c-63 0 -151 16 -194 47v69h461c-38 -70 -123 -116 -267 -116zM1121 674v-80h-423c41 76 136 116 246 116c78 0 144 -18 177 -36zM835 506c9 -60 116 -70 207 -112h-333c-19 28 -31 65 -31 112h157zM1171 204v-10h-157c0 64 -93 77 -181 112
h313c15 -27 25 -61 25 -102z" />
    <glyph glyph-name="sacute" unicode="&#x15b;" horiz-adv-x="611" 
d="M560 204c0 -121 -86 -214 -290 -214c-63 0 -151 16 -194 47v144c45 -30 130 -54 196 -54c96 0 131 24 131 67c0 122 -336 59 -336 314c0 106 77 172 182 194l31 92h122l-29 -86c60 -5 110 -19 137 -34v-143c-43 23 -107 42 -168 42c-66 0 -118 -10 -118 -59
c0 -116 336 -57 336 -310z" />
    <glyph glyph-name="Sacute" unicode="&#x15a;" horiz-adv-x="611" 
d="M510 674v-80h-423c29 54 87 90 157 106l32 94h122l-29 -85c62 -5 113 -20 141 -35zM270 -10c-63 0 -151 16 -194 47v69h461c-38 -70 -123 -116 -267 -116zM224 506c9 -60 116 -70 207 -112h-333c-19 28 -31 65 -31 112h157zM560 204v-10h-157c0 64 -93 77 -181 112h313
c15 -27 25 -61 25 -102z" />
    <glyph glyph-name="scircumflex" unicode="&#x15d;" horiz-adv-x="611" 
d="M560 204c0 -121 -86 -214 -290 -214c-63 0 -151 16 -194 47v144c45 -30 130 -54 196 -54c96 0 131 24 131 67c0 122 -336 59 -336 314c0 73 36 127 94 160l84 126h147l68 -101c21 -6 37 -13 50 -19v-143c-43 23 -107 42 -168 42c-66 0 -118 -10 -118 -59
c0 -116 336 -57 336 -310z" />
    <glyph glyph-name="Scircumflex" unicode="&#x15c;" horiz-adv-x="611" 
d="M510 674v-80h-423c15 28 38 52 66 70l88 130h147l67 -100c23 -6 41 -13 55 -20zM270 -10c-63 0 -151 16 -194 47v69h461c-38 -70 -123 -116 -267 -116zM224 506c9 -60 116 -70 207 -112h-333c-19 28 -31 65 -31 112h157zM560 204v-10h-157c0 64 -93 77 -181 112h313
c15 -27 25 -61 25 -102z" />
    <glyph glyph-name="scaron" unicode="&#x161;" horiz-adv-x="611" 
d="M560 204c0 -121 -86 -214 -290 -214c-63 0 -151 16 -194 47v144c45 -30 130 -54 196 -54c96 0 131 24 131 67c0 122 -336 59 -336 314c0 94 61 156 148 184l-68 102h125l37 -63l37 63h124l-61 -90c44 -7 79 -19 101 -30v-143c-43 23 -107 42 -168 42
c-66 0 -118 -10 -118 -59c0 -116 336 -57 336 -310z" />
    <glyph glyph-name="Scaron" unicode="&#x160;" horiz-adv-x="611" 
d="M510 674v-80h-423c25 46 69 79 125 97l-69 103h125l37 -63l37 63h124l-60 -89c45 -7 82 -19 104 -31zM270 -10c-63 0 -151 16 -194 47v69h461c-38 -70 -123 -116 -267 -116zM224 506c9 -60 116 -70 207 -112h-333c-19 28 -31 65 -31 112h157zM560 204v-10h-157
c0 64 -93 77 -181 112h313c15 -27 25 -61 25 -102z" />
    <glyph glyph-name="scedilla" unicode="&#x15f;" horiz-adv-x="611" 
d="M220 -88v4c21 22 34 49 41 74c-62 2 -144 17 -185 47v144c45 -30 130 -54 196 -54c96 0 131 24 131 67c0 122 -336 59 -336 314c0 133 121 202 266 202c78 0 144 -18 177 -36v-143c-43 23 -107 42 -168 42c-66 0 -118 -10 -118 -59c0 -116 336 -57 336 -310
c0 -95 -53 -172 -173 -201c-5 -27 -17 -61 -36 -91h-131z" />
    <glyph glyph-name="Scedilla" unicode="&#x15e;" horiz-adv-x="611" 
d="M216 -88v4c21 22 34 49 41 74c-62 2 -141 18 -181 47v69h461c-27 -49 -77 -86 -154 -104c-5 -27 -18 -61 -36 -90h-131zM510 674v-80h-423c41 76 136 116 246 116c78 0 144 -18 177 -36zM224 506c9 -60 116 -70 207 -112h-333c-19 28 -31 65 -31 112h157zM560 204v-10
h-157c0 64 -93 77 -181 112h313c15 -27 25 -61 25 -102z" />
    <glyph glyph-name="scommaaccent" unicode="&#x219;" horiz-adv-x="611" 
d="M560 204c0 -121 -86 -214 -290 -214c-63 0 -151 16 -194 47v144c45 -30 130 -54 196 -54c96 0 131 24 131 67c0 122 -336 59 -336 314c0 133 121 202 266 202c78 0 144 -18 177 -36v-143c-43 23 -107 42 -168 42c-66 0 -118 -10 -118 -59c0 -116 336 -57 336 -310z
M252 -30h152l-62 -121h-128z" />
    <glyph glyph-name="Scommaaccent" unicode="&#x218;" horiz-adv-x="611" 
d="M248 -30h152l-62 -121h-128zM270 -10c-63 0 -151 16 -194 47v69h461c-38 -70 -123 -116 -267 -116zM510 674v-80h-423c41 76 136 116 246 116c78 0 144 -18 177 -36zM224 506c9 -60 116 -70 207 -112h-333c-19 28 -31 65 -31 112h157zM560 204v-10h-157
c0 64 -93 77 -181 112h313c15 -27 25 -61 25 -102z" />
    <glyph glyph-name="tcaron" unicode="&#x165;" horiz-adv-x="608" 
d="M578 700v-139h-197v-561h-152v561h-199v139h178l-63 94h125l37 -63l37 63h124l-63 -94h173z" />
    <glyph glyph-name="Tcaron" unicode="&#x164;" horiz-adv-x="608" 
d="M578 700v-106h-548v106h178l-63 94h125l37 -63l37 63h124l-63 -94h173zM229 194v112h152v-112h-152zM229 394v112h152v-112h-152zM381 0h-152v106h152v-106z" />
    <glyph glyph-name="tcommaaccent" unicode="&#x163;" horiz-adv-x="608" 
d="M578 700v-139h-197v-561h-152v561h-199v139h548zM228 -30h152l-62 -121h-128z" />
    <glyph glyph-name="tcommaaccent" unicode="&#x21b;" horiz-adv-x="608" 
d="M578 700v-139h-197v-561h-152v561h-199v139h548zM228 -30h152l-62 -121h-128z" />
    <glyph glyph-name="Tcommaaccent" unicode="&#x162;" horiz-adv-x="608" 
d="M228 -30h152l-62 -121h-128zM578 700v-106h-548v106h548zM229 194v112h152v-112h-152zM229 394v112h152v-112h-152zM381 0h-152v106h152v-106z" />
    <glyph glyph-name="Tcommaaccent" unicode="&#x21a;" horiz-adv-x="608" 
d="M228 -30h152l-62 -121h-128zM578 700v-106h-548v106h548zM229 194v112h152v-112h-152zM229 394v112h152v-112h-152zM381 0h-152v106h152v-106z" />
    <glyph glyph-name="tbar" unicode="&#x167;" horiz-adv-x="608" 
d="M578 700v-139h-197v-184h132v-115h-132v-262h-152v262h-134v115h134v184h-199v139h548z" />
    <glyph glyph-name="Tbar" unicode="&#x166;" horiz-adv-x="608" 
d="M578 700v-139h-197v-184h132v-115h-132v-262h-152v262h-134v115h134v184h-199v139h548z" />
    <glyph glyph-name="ugrave" unicode="&#xf9;" horiz-adv-x="717" 
d="M358 -10c-185 0 -292 99 -292 309v401h153v-423c0 -84 50 -143 141 -143s141 59 141 143v423h150v-401c0 -210 -108 -309 -293 -309zM387 794l44 -131h-122l-44 131h122z" />
    <glyph glyph-name="Ugrave" unicode="&#xd9;" horiz-adv-x="717" 
d="M358 -10c-114 0 -199 38 -247 116h494c-48 -78 -133 -116 -247 -116zM219 277c0 -32 7 -60 21 -83h-164c-7 31 -10 66 -10 105v7h153v-29zM66 394v112h153v-112h-153zM651 299c0 -39 -4 -74 -11 -105h-160c14 23 21 51 21 83v29h150v-7zM501 394v112h150v-112h-150z
M219 700v-106h-153v106h153zM651 700v-106h-150v106h150zM387 794l44 -131h-122l-44 131h122z" />
    <glyph glyph-name="uacute" unicode="&#xfa;" horiz-adv-x="717" 
d="M358 -10c-185 0 -292 99 -292 309v401h153v-423c0 -84 50 -143 141 -143s141 59 141 143v423h150v-401c0 -210 -108 -309 -293 -309zM285 663l44 131h122l-44 -131h-122z" />
    <glyph glyph-name="Uacute" unicode="&#xda;" horiz-adv-x="717" 
d="M285 663l44 131h122l-44 -131h-122zM358 -10c-114 0 -199 38 -247 116h494c-48 -78 -133 -116 -247 -116zM219 277c0 -32 7 -60 21 -83h-164c-7 31 -10 66 -10 105v7h153v-29zM66 394v112h153v-112h-153zM651 299c0 -39 -4 -74 -11 -105h-160c14 23 21 51 21 83v29h150
v-7zM501 394v112h150v-112h-150zM219 700v-106h-153v106h153zM651 700v-106h-150v106h150z" />
    <glyph glyph-name="ucircumflex" unicode="&#xfb;" horiz-adv-x="717" 
d="M358 -10c-185 0 -292 99 -292 309v401h153v-6l67 100h147l68 -100v6h150v-401c0 -210 -108 -309 -293 -309zM360 134c91 0 141 59 141 143v386h-104l-37 63l-37 -63h-104v-386c0 -84 50 -143 141 -143z" />
    <glyph glyph-name="Ucircumflex" unicode="&#xdb;" horiz-adv-x="717" 
d="M219 700v-6l67 100h147l68 -100v6h150v-106h-150v69h-104l-37 63l-37 -63h-104v-69h-153v106h153zM358 -10c-114 0 -199 38 -247 116h494c-48 -78 -133 -116 -247 -116zM219 277c0 -32 7 -60 21 -83h-164c-7 31 -10 66 -10 105v7h153v-29zM66 394v112h153v-112h-153z
M651 299c0 -39 -4 -74 -11 -105h-160c14 23 21 51 21 83v29h150v-7zM501 394v112h150v-112h-150z" />
    <glyph glyph-name="utilde" unicode="&#x169;" horiz-adv-x="717" 
d="M358 -10c-185 0 -292 99 -292 309v401h130v10c0 68 47 84 79 84c42 0 109 -30 138 -30c20 0 25 9 25 30h83v-52c0 -17 -3 -31 -8 -42h138v-401c0 -210 -108 -309 -293 -309zM360 134c91 0 141 59 141 143v404c-17 -18 -41 -23 -59 -23c-42 0 -109 30 -138 30
c-20 0 -25 -9 -25 -30h-60v-381c0 -84 50 -143 141 -143z" />
    <glyph glyph-name="Utilde" unicode="&#x168;" horiz-adv-x="717" 
d="M651 700v-106h-150v87c-17 -18 -41 -23 -59 -23c-42 0 -109 30 -138 30c-20 0 -25 -9 -25 -30h-60v-64h-153v106h130v10c0 68 47 84 79 84c42 0 109 -30 138 -30c20 0 25 9 25 30h83v-52c0 -17 -3 -31 -8 -42h138zM358 -10c-114 0 -199 38 -247 116h494
c-48 -78 -133 -116 -247 -116zM219 277c0 -32 7 -60 21 -83h-164c-7 31 -10 66 -10 105v7h153v-29zM66 394v112h153v-112h-153zM651 299c0 -39 -4 -74 -11 -105h-160c14 23 21 51 21 83v29h150v-7zM501 394v112h150v-112h-150z" />
    <glyph glyph-name="udieresis" unicode="&#xfc;" horiz-adv-x="717" 
d="M391 663v131h116v-94h144v-401c0 -210 -108 -309 -293 -309s-292 99 -292 309v401h144v94h116v-131h-107v-386c0 -84 50 -143 141 -143s141 59 141 143v386h-110z" />
    <glyph glyph-name="Udieresis" unicode="&#xdc;" horiz-adv-x="717" 
d="M358 -10c-114 0 -199 38 -247 116h494c-48 -78 -133 -116 -247 -116zM326 663h-107v-69h-153v106h144v94h116v-131zM391 663v131h116v-94h144v-106h-150v69h-110zM219 277c0 -32 7 -60 21 -83h-164c-7 31 -10 66 -10 105v7h153v-29zM66 394v112h153v-112h-153zM651 299
c0 -39 -4 -74 -11 -105h-160c14 23 21 51 21 83v29h150v-7zM501 394v112h150v-112h-150z" />
    <glyph glyph-name="umacron" unicode="&#x16b;" horiz-adv-x="717" 
d="M358 -10c-185 0 -292 99 -292 309v401h144v94h297v-94h144v-401c0 -210 -108 -309 -293 -309zM360 134c91 0 141 59 141 143v403h-282v-403c0 -84 50 -143 141 -143z" />
    <glyph glyph-name="Umacron" unicode="&#x16a;" horiz-adv-x="717" 
d="M651 700v-106h-150v86h-282v-86h-153v106h144v94h297v-94h144zM358 -10c-114 0 -199 38 -247 116h494c-48 -78 -133 -116 -247 -116zM219 277c0 -32 7 -60 21 -83h-164c-7 31 -10 66 -10 105v7h153v-29zM66 394v112h153v-112h-153zM651 299c0 -39 -4 -74 -11 -105h-160
c14 23 21 51 21 83v29h150v-7zM501 394v112h150v-112h-150z" />
    <glyph glyph-name="ubreve" unicode="&#x16d;" horiz-adv-x="717" 
d="M358 -10c-185 0 -292 99 -292 309v401h153v-423c0 -84 50 -143 141 -143s141 59 141 143v423h150v-401c0 -210 -108 -309 -293 -309zM358 663c-100 0 -149 66 -149 131h112c0 -23 15 -43 37 -43s37 20 37 43h112c0 -65 -49 -131 -149 -131z" />
    <glyph glyph-name="Ubreve" unicode="&#x16c;" horiz-adv-x="717" 
d="M358 663c-100 0 -149 66 -149 131h112c0 -23 15 -43 37 -43s37 20 37 43h112c0 -65 -49 -131 -149 -131zM358 -10c-114 0 -199 38 -247 116h494c-48 -78 -133 -116 -247 -116zM219 277c0 -32 7 -60 21 -83h-164c-7 31 -10 66 -10 105v7h153v-29zM66 394v112h153v-112
h-153zM651 299c0 -39 -4 -74 -11 -105h-160c14 23 21 51 21 83v29h150v-7zM501 394v112h150v-112h-150zM219 700v-106h-153v106h153zM651 700v-106h-150v106h150z" />
    <glyph glyph-name="uring" unicode="&#x16f;" horiz-adv-x="717" 
d="M358 -10c-185 0 -292 99 -292 309v401h153v-423c0 -84 50 -143 141 -143s141 59 141 143v423h150v-401c0 -210 -108 -309 -293 -309zM358 837c-28 0 -41 -22 -41 -41s13 -42 41 -42s40 23 40 42s-12 41 -40 41zM358 670c-97 0 -141 64 -141 126c0 61 44 125 141 125
s141 -64 141 -125c0 -62 -44 -126 -141 -126z" />
    <glyph glyph-name="Uring" unicode="&#x16e;" horiz-adv-x="717" 
d="M358 837c-28 0 -41 -22 -41 -41s13 -42 41 -42s40 23 40 42s-12 41 -40 41zM358 670c-97 0 -141 64 -141 126c0 61 44 125 141 125s141 -64 141 -125c0 -62 -44 -126 -141 -126zM358 -10c-114 0 -199 38 -247 116h494c-48 -78 -133 -116 -247 -116zM219 277
c0 -32 7 -60 21 -83h-164c-7 31 -10 66 -10 105v7h153v-29zM66 394v112h153v-112h-153zM651 299c0 -39 -4 -74 -11 -105h-160c14 23 21 51 21 83v29h150v-7zM501 394v112h150v-112h-150zM219 700v-106h-153v106h153zM651 700v-106h-150v106h150z" />
    <glyph glyph-name="uhungarumlaut" unicode="&#x171;" horiz-adv-x="717" 
d="M383 663l44 131h122l-32 -94h134v-401c0 -210 -108 -309 -293 -309s-292 99 -292 309v401h148l32 94h122l-44 -131h-105v-386c0 -84 50 -143 141 -143s141 59 141 143v386h-118z" />
    <glyph glyph-name="Uhungarumlaut" unicode="&#x170;" horiz-adv-x="717" 
d="M358 -10c-114 0 -199 38 -247 116h494c-48 -78 -133 -116 -247 -116zM324 663h-105v-69h-153v106h148l32 94h122zM383 663l44 131h122l-32 -94h134v-106h-150v69h-118zM219 277c0 -32 7 -60 21 -83h-164c-7 31 -10 66 -10 105v7h153v-29zM66 394v112h153v-112h-153z
M651 299c0 -39 -4 -74 -11 -105h-160c14 23 21 51 21 83v29h150v-7zM501 394v112h150v-112h-150z" />
    <glyph glyph-name="uogonek" unicode="&#x173;" horiz-adv-x="717" 
d="M358 -10c-185 0 -292 99 -292 309v401h153v-423c0 -84 50 -143 141 -143s141 59 141 143v423h150v-401c0 -143 -50 -234 -139 -278c-35 -24 -54 -65 -56 -109h-122c-1 23 8 53 27 78h-3z" />
    <glyph glyph-name="Uogonek" unicode="&#x172;" horiz-adv-x="717" 
d="M358 -10c-114 0 -199 38 -247 116h494c-23 -38 -55 -66 -94 -85c-34 -25 -53 -65 -55 -109h-122c-1 23 8 53 27 78h-3zM219 277c0 -32 7 -60 21 -83h-164c-7 31 -10 66 -10 105v7h153v-29zM66 394v112h153v-112h-153zM651 299c0 -39 -4 -74 -11 -105h-160
c14 23 21 51 21 83v29h150v-7zM501 394v112h150v-112h-150zM219 700v-106h-153v106h153zM651 700v-106h-150v106h150z" />
    <glyph glyph-name="wgrave" unicode="&#x1e81;" horiz-adv-x="1040" 
d="M551 794l31 -94h10l140 -498l127 498h159l-191 -700h-178l-130 433l-130 -433h-176l-191 700h163l127 -498l140 498h8l-31 94h122z" />
    <glyph glyph-name="Wgrave" unicode="&#x1e80;" horiz-adv-x="1040" 
d="M551 794l31 -94h436l-29 -106h-938l-29 106h438l-31 94h122zM105 394l-30 112h890l-31 -112h-829zM557 306h353l-30 -112h-290zM129 306h352l-34 -112h-287zM649 0l-32 106h239l-29 -106h-178zM213 0l-29 106h237l-32 -106h-176z" />
    <glyph glyph-name="wgrave.alt" unicode="&#xe550;" horiz-adv-x="1040" 
d="M551 794l31 -94h436l-191 -700h-178l-130 433l-130 -433h-176l-191 700h438l-31 94h122z" />
    <glyph glyph-name="wacute" unicode="&#x1e83;" horiz-adv-x="1040" 
d="M452 700h9l32 94h122l-32 -94h9l140 -498l127 498h159l-191 -700h-178l-130 433l-130 -433h-176l-191 700h163l127 -498z" />
    <glyph glyph-name="Wacute" unicode="&#x1e82;" horiz-adv-x="1040" 
d="M22 700h439l32 94h122l-32 -94h435l-29 -106h-938zM105 394l-30 112h890l-31 -112h-829zM557 306h353l-30 -112h-290zM129 306h352l-34 -112h-287zM649 0l-32 106h239l-29 -106h-178zM213 0l-29 106h237l-32 -106h-176z" />
    <glyph glyph-name="wacute.alt" unicode="&#xe551;" horiz-adv-x="1040" 
d="M22 700h439l32 94h122l-32 -94h435l-191 -700h-178l-130 433l-130 -433h-176z" />
    <glyph glyph-name="wcircumflex" unicode="&#x175;" horiz-adv-x="1040" 
d="M682 663h-80l130 -461l127 498h159l-191 -700h-178l-130 433l-130 -433h-176l-191 700h163l127 -498l129 461h-83l88 131h147z" />
    <glyph glyph-name="Wcircumflex" unicode="&#x174;" horiz-adv-x="1040" 
d="M22 700h361l63 94h147l64 -94h361l-29 -106h-938zM105 394l-30 112h890l-31 -112h-829zM557 306h353l-30 -112h-290zM129 306h352l-34 -112h-287zM649 0l-32 106h239l-29 -106h-178zM213 0l-29 106h237l-32 -106h-176z" />
    <glyph glyph-name="wcircumflex.alt" unicode="&#xe552;" horiz-adv-x="1040" 
d="M22 700h361l63 94h147l64 -94h361l-191 -700h-178l-130 433l-130 -433h-176z" />
    <glyph glyph-name="wdieresis" unicode="&#x1e85;" horiz-adv-x="1040" 
d="M371 663v131h116v-94h65v94h116v-131h-66l130 -461l127 498h159l-191 -700h-178l-130 433l-130 -433h-176l-191 700h163l127 -498l129 461h-70z" />
    <glyph glyph-name="Wdieresis" unicode="&#x1e84;" horiz-adv-x="1040" 
d="M22 700h349v94h116v-94h65v94h116v-94h350l-29 -106h-938zM105 394l-30 112h890l-31 -112h-829zM557 306h353l-30 -112h-290zM129 306h352l-34 -112h-287zM649 0l-32 106h239l-29 -106h-178zM213 0l-29 106h237l-32 -106h-176z" />
    <glyph glyph-name="wdieresis.alt" unicode="&#xe553;" horiz-adv-x="1040" 
d="M22 700h349v94h116v-94h65v94h116v-94h350l-191 -700h-178l-130 433l-130 -433h-176z" />
    <glyph glyph-name="ygrave" unicode="&#x1ef3;" horiz-adv-x="676" 
d="M663 700l-248 -464v-236h-152v236l-250 464h171l154 -305l153 305h172zM361 794l44 -131h-122l-44 131h122z" />
    <glyph glyph-name="Ygrave" unicode="&#x1ef2;" horiz-adv-x="676" 
d="M361 794l31 -94h271l-57 -106h-536l-57 106h257l-31 94h122zM178 394l-61 112h442l-60 -112h-321zM263 236l-38 70h227l-37 -70v-42h-152v42zM415 0h-152v106h152v-106z" />
    <glyph glyph-name="ygrave.alt" unicode="&#xe361;" horiz-adv-x="676" 
d="M361 794l31 -94h271l-248 -464v-236h-152v236l-250 464h257l-31 94h122z" />
    <glyph glyph-name="yacute" unicode="&#xfd;" horiz-adv-x="676" 
d="M663 700l-248 -464v-236h-152v236l-250 464h171l154 -305l153 305h172zM272 663l44 131h122l-44 -131h-122z" />
    <glyph glyph-name="Yacute" unicode="&#xdd;" horiz-adv-x="676" 
d="M663 700l-57 -106h-536l-57 106h271l32 94h122l-32 -94h257zM178 394l-61 112h442l-60 -112h-321zM263 236l-38 70h227l-37 -70v-42h-152v42zM415 0h-152v106h152v-106z" />
    <glyph glyph-name="yacute.alt" unicode="&#xe362;" horiz-adv-x="676" 
d="M663 700l-248 -464v-236h-152v236l-250 464h271l32 94h122l-32 -94h257z" />
    <glyph glyph-name="ycircumflex" unicode="&#x177;" horiz-adv-x="676" 
d="M663 700l-248 -464v-236h-152v236l-250 464h171l7 -15l73 109h147l73 -108l7 14h172zM202 663l136 -268l134 268h-97l-37 63l-37 -63h-99z" />
    <glyph glyph-name="Ycircumflex" unicode="&#x176;" horiz-adv-x="676" 
d="M663 700l-57 -106h-536l-57 106h188l63 94h147l64 -94h188zM178 394l-61 112h442l-60 -112h-321zM263 236l-38 70h227l-37 -70v-42h-152v42zM415 0h-152v106h152v-106z" />
    <glyph glyph-name="ycircumflex.alt" unicode="&#xe363;" horiz-adv-x="676" 
d="M663 700l-248 -464v-236h-152v236l-250 464h188l63 94h147l64 -94h188z" />
    <glyph glyph-name="ydieresis" unicode="&#xff;" horiz-adv-x="676" 
d="M370 663v131h116v-104l5 10h172l-248 -464v-236h-152v236l-250 464h171l5 -10v104h116v-131h-103l136 -268l134 268h-102z" />
    <glyph glyph-name="Ydieresis" unicode="&#x178;" horiz-adv-x="676" 
d="M663 700l-57 -106h-536l-57 106h176v94h116v-94h65v94h116v-94h177zM178 394l-61 112h442l-60 -112h-321zM263 236l-38 70h227l-37 -70v-42h-152v42zM415 0h-152v106h152v-106z" />
    <glyph glyph-name="ydieresis.alt" unicode="&#xe364;" horiz-adv-x="676" 
d="M663 700l-248 -464v-236h-152v236l-250 464h176v94h116v-94h65v94h116v-94h177z" />
    <glyph glyph-name="zacute" unicode="&#x17a;" horiz-adv-x="654" 
d="M380 561h-303v139h190l32 94h122l-32 -94h194v-94l-324 -467h340v-139h-544v94z" />
    <glyph glyph-name="Zacute" unicode="&#x179;" horiz-adv-x="644" 
d="M561 700v-106h-474v106h174l32 94h122l-32 -94h178zM55 0v106h534v-106h-534zM256 394l75 112h163l-75 -112h-163zM122 194l75 112h163l-75 -112h-163z" />
    <glyph glyph-name="zcaron" unicode="&#x17e;" horiz-adv-x="654" 
d="M380 561h-303v139h150l-63 94h125l37 -63l37 63h124l-63 -94h159v-94l-324 -467h340v-139h-544v94z" />
    <glyph glyph-name="Zcaron" unicode="&#x17d;" horiz-adv-x="644" 
d="M561 700v-106h-474v106h128l-63 94h125l37 -63l37 63h124l-63 -94h149zM55 0v106h534v-106h-534zM256 394l75 112h163l-75 -112h-163zM122 194l75 112h163l-75 -112h-163z" />
    <glyph glyph-name="zdotaccent" unicode="&#x17c;" horiz-adv-x="654" 
d="M380 561h-303v139h192v94h116v-94h198v-94l-324 -467h340v-139h-544v94z" />
    <glyph glyph-name="Zdotaccent" unicode="&#x17b;" horiz-adv-x="644" 
d="M561 700v-106h-474v106h177v94h116v-94h181zM55 0v106h534v-106h-534zM256 394l75 112h163l-75 -112h-163zM122 194l75 112h163l-75 -112h-163z" />
    <glyph glyph-name="eng" unicode="&#x14b;" horiz-adv-x="761" 
d="M689 700v-638c0 -174 -96 -268 -236 -268c-41 0 -60 4 -74 8v138c10 -4 25 -8 47 -8c66 0 108 21 108 95l-309 412v-439h-153v700h135l330 -439v439h152z" />
    <glyph glyph-name="Eng" unicode="&#x14a;" horiz-adv-x="761" 
d="M437 394h-365v112h280zM324 306h365v-112h-281zM453 -206c-41 0 -60 4 -74 8v104h275c-9 -19 -61 -112 -201 -112zM534 27l-60 79h215v-60c0 -18 -1 -36 -4 -52h-154c2 10 3 21 3 33zM72 700h135l79 -106h-214v106zM72 194v112h153v-112h-153zM537 394v112h152v-112h-152
zM225 0h-153v106h153v-106zM689 700v-106h-152v106h152z" />
    <glyph glyph-name="eth" unicode="&#xf0;" horiz-adv-x="736" 
d="M0 294v113h72v293h237c244 0 387 -140 387 -350c0 -212 -143 -350 -387 -350h-237v294h-72zM292 139c201 0 246 115 246 211s-45 211 -247 211h-66v-154h153v-113h-153v-155h67z" />
    <glyph glyph-name="Eth" unicode="&#xd0;" horiz-adv-x="736" 
d="M0 294v113h72v293h237c244 0 387 -140 387 -350c0 -212 -143 -350 -387 -350h-237v294h-72zM292 139c201 0 246 115 246 211s-45 211 -247 211h-66v-154h153v-113h-153v-155h67z" />
    <glyph glyph-name="eth.alt" unicode="&#xe8fc;" horiz-adv-x="736" 
d="M0 294v113h72v293h237c244 0 387 -140 387 -350c0 -212 -143 -350 -387 -350h-237v294h-72z" />
    <glyph glyph-name="thorn" unicode="&#xfe;" horiz-adv-x="633" 
d="M72 700h153v-96h108c177 0 280 -102 280 -252c0 -135 -93 -254 -280 -254h-108v-98h-153v700zM458 350c0 52 -25 113 -133 113h-100v-226h100c108 0 133 61 133 113z" />
    <glyph glyph-name="Thorn" unicode="&#xde;" horiz-adv-x="633" 
d="M72 700h153v-96h108c177 0 280 -102 280 -252c0 -135 -93 -254 -280 -254h-108v-98h-153v700zM458 350c0 52 -25 113 -133 113h-100v-226h100c108 0 133 61 133 113z" />
    <glyph glyph-name="thorn.alt" unicode="&#xe8fd;" horiz-adv-x="633" 
d="M72 700h153v-96h108c177 0 280 -102 280 -252c0 -135 -93 -254 -280 -254h-108v-98h-153v700z" />
    <glyph glyph-name="alpha" unicode="&#x3b1;" 
d="M547 0l-56 157h-260l-55 -157h-163l260 700h175l263 -700h-164zM360 525l-79 -225h159z" />
    <glyph glyph-name="Alpha" unicode="&#x391;" 
d="M85 194l41 112h470l42 -112h-553zM159 394l41 112h321l42 -112h-404zM273 700h175l40 -106h-255zM547 0l-38 106h162l40 -106h-164zM176 0h-163l39 106h161z" />
    <glyph glyph-name="alpha.alt" unicode="&#xe560;" 
d="M547 0l-56 157h-260l-55 -157h-163l260 700h175l263 -700h-164z" />
    <glyph glyph-name="beta" unicode="&#x3b2;" horiz-adv-x="671" 
d="M593 511c0 -56 -27 -119 -101 -145c93 -14 134 -93 134 -155c0 -112 -80 -211 -236 -211h-318v700h312c131 0 209 -77 209 -189zM470 213c0 36 -19 78 -90 78h-155v-152h155c71 0 90 39 90 74zM225 561v-140h132c63 0 80 37 80 68c0 33 -17 72 -79 72h-133z" />
    <glyph glyph-name="Beta" unicode="&#x392;" horiz-adv-x="671" 
d="M626 211c0 -6 0 -12 -1 -17h-553v112h497c36 -17 57 -64 57 -95zM593 506c-1 -40 -17 -93 -69 -112h-452v112h521zM390 0h-318v106h527c-35 -62 -106 -106 -209 -106zM384 700c95 0 162 -41 192 -106h-504v106h312z" />
    <glyph glyph-name="beta.alt" unicode="&#xe901;" horiz-adv-x="671" 
d="M593 511c0 -56 -27 -119 -101 -145c93 -14 134 -93 134 -155c0 -112 -80 -211 -236 -211h-318v700h312c131 0 209 -77 209 -189z" />
    <glyph glyph-name="gamma" unicode="&#x3b3;" horiz-adv-x="515" 
d="M485 700v-139h-260v-561h-153v700h413z" />
    <glyph glyph-name="Gamma" unicode="&#x393;" horiz-adv-x="515" 
d="M72 106h153v-106h-153v106zM485 594h-413v106h413v-106zM72 506h153v-112h-153v112zM72 306h153v-112h-153v112z" />
    <glyph glyph-name="delta" unicode="&#x3b4;" 
d="M13 0l265 700h165l268 -700h-698zM360 505l-132 -361h265z" />
    <glyph glyph-name="uni0394" unicode="&#x394;" 
d="M13 0l40 106h617l41 -106h-698zM86 194l43 112h465l43 -112h-551zM163 394l42 112h313l43 -112h-398zM278 700h166l39 -106h-245z" />
    <glyph glyph-name="epsilon" unicode="&#x3b5;" horiz-adv-x="583" 
d="M535 700v-141h-310v-132h288v-139h-288v-149h310v-139h-463v700h463z" />
    <glyph glyph-name="Epsilon" unicode="&#x395;" horiz-adv-x="583" 
d="M535 700v-141h-310v-132h288v-139h-288v-149h310v-139h-463v700h463z" />
    <glyph glyph-name="zeta" unicode="&#x3b6;" horiz-adv-x="654" 
d="M380 561h-303v139h506v-94l-324 -467h340v-139h-544v94z" />
    <glyph glyph-name="Zeta" unicode="&#x396;" horiz-adv-x="660" 
d="M70 0v106h534v-106h-534zM576 700v-106h-474v106h474zM137 194l75 112h163l-75 -112h-163zM271 394l75 112h163l-75 -112h-163z" />
    <glyph glyph-name="eta" unicode="&#x3b7;" horiz-adv-x="743" 
d="M671 700v-700h-153v277h-293v-277h-153v700h153v-284h293v284h153z" />
    <glyph glyph-name="Eta" unicode="&#x397;" horiz-adv-x="743" 
d="M671 700v-700h-153v277h-293v-277h-153v700h153v-284h293v284h153z" />
    <glyph glyph-name="theta" unicode="&#x3b8;" horiz-adv-x="800" 
d="M270 288v124h259v-124h-259zM760 350c0 -223 -170 -360 -360 -360s-360 137 -360 360s170 360 360 360s360 -137 360 -360zM198 350c0 -125 88 -216 202 -216s202 91 202 216s-88 216 -202 216s-202 -91 -202 -216z" />
    <glyph glyph-name="Theta" unicode="&#x398;" horiz-adv-x="800" 
d="M270 288v124h259v-124h-259zM760 350c0 -223 -170 -360 -360 -360s-360 137 -360 360s170 360 360 360s360 -137 360 -360zM198 350c0 -125 88 -216 202 -216s202 91 202 216s-88 216 -202 216s-202 -91 -202 -216z" />
    <glyph glyph-name="iota" unicode="&#x3b9;" horiz-adv-x="297" 
d="M225 700v-700h-153v700h153z" />
    <glyph glyph-name="Iota" unicode="&#x399;" horiz-adv-x="297" 
d="M72 394v112h153v-112h-153zM72 194v112h153v-112h-153zM225 700v-106h-153v106h153zM225 0h-153v106h153v-106z" />
    <glyph glyph-name="kappa" unicode="&#x3ba;" horiz-adv-x="709" 
d="M654 700l-268 -335l308 -365h-210l-259 315v-315h-153v700h153v-317l240 317h189z" />
    <glyph glyph-name="Kappa" unicode="&#x39a;" horiz-adv-x="709" 
d="M324 194l-92 112h204l94 -112h-206zM484 0l-87 106h207l90 -106h-210zM233 394l85 112h180l-89 -112h-176zM654 700l-85 -106h-185l81 106h189zM72 394v112h153v-112h-153zM72 194v112h153v-112h-153zM225 700v-106h-153v106h153zM225 0h-153v106h153v-106z" />
    <glyph glyph-name="lambda" unicode="&#x3bb;" 
d="M362 494l-185 -494h-164l266 700h165l267 -700h-163z" />
    <glyph glyph-name="Lambda" unicode="&#x39b;" 
d="M53 106h164l-40 -106h-164zM508 106h163l40 -106h-163zM433 306h161l43 -112h-162zM484 594h-245l40 106h165zM205 506h313l42 -112h-160l-38 100l-37 -100h-162zM129 306h163l-42 -112h-164z" />
    <glyph glyph-name="uni03BC" unicode="&#x3bc;" horiz-adv-x="884" 
d="M430 132l-205 305v-437h-153v700h151l221 -341l221 341h147v-700h-153v437l-205 -305h-24z" />
    <glyph glyph-name="Mu" unicode="&#x39c;" horiz-adv-x="884" 
d="M421 394h-349v112h276zM812 394h-346l73 112h273v-112zM388 194l-75 112h258l-76 -112h-107zM72 700h151l68 -106h-219v106zM812 700v-106h-216l69 106h147zM72 194v112h153v-112h-153zM659 194v112h153v-112h-153zM225 0h-153v106h153v-106zM812 0h-153v106h153v-106z
" />
    <glyph glyph-name="nu" unicode="&#x3bd;" horiz-adv-x="761" 
d="M689 700v-700h-134l-330 434v-434h-153v700h135l330 -435v435h152z" />
    <glyph glyph-name="Nu" unicode="&#x39d;" horiz-adv-x="761" 
d="M439 394h-367v112h282zM322 306h367v-112h-282zM72 700h135l80 -106h-215v106zM555 0l-81 106h215v-106h-134zM72 194v112h153v-112h-153zM537 394v112h152v-112h-152zM225 0h-153v106h153v-106zM689 700v-106h-152v106h152z" />
    <glyph glyph-name="xi" unicode="&#x3be;" horiz-adv-x="599" 
d="M48 559v141h503v-141h-503zM70 288v139h459v-139h-459zM48 0v139h503v-139h-503z" />
    <glyph glyph-name="Xi" unicode="&#x39e;" horiz-adv-x="599" 
d="M48 559v141h503v-141h-503zM70 288v139h459v-139h-459zM48 0v139h503v-139h-503z" />
    <glyph glyph-name="omicron" unicode="&#x3bf;" horiz-adv-x="800" 
d="M760 350c0 -223 -170 -360 -360 -360s-360 137 -360 360s170 360 360 360s360 -137 360 -360zM198 350c0 -125 88 -216 202 -216s202 91 202 216s-88 216 -202 216s-202 -91 -202 -216z" />
    <glyph glyph-name="Omicron" unicode="&#x39f;" horiz-adv-x="800" 
d="M728 506c15 -34 25 -72 29 -112h-715c5 40 15 78 30 112h656zM72 194c-15 33 -25 71 -30 112h715c-4 -41 -14 -79 -29 -112h-656zM400 710c104 0 203 -42 270 -116h-541c68 74 166 116 271 116zM400 -10c-105 0 -203 41 -271 116h541c-67 -75 -166 -116 -270 -116z" />
    <glyph glyph-name="omicron.alt" unicode="&#xe902;" horiz-adv-x="800" 
d="M760 350c0 -223 -170 -360 -360 -360s-360 137 -360 360s170 360 360 360s360 -137 360 -360z" />
    <glyph glyph-name="pi" unicode="&#x3c0;" horiz-adv-x="723" 
d="M651 700v-700h-153v561h-273v-561h-153v700h579z" />
    <glyph glyph-name="Pi" unicode="&#x3a0;" horiz-adv-x="723" 
d="M72 106h153v-106h-153v106zM498 106h153v-106h-153v106zM651 194h-153v112h153v-112zM651 394h-153v112h153v-112zM651 594h-579v106h579v-106zM72 506h153v-112h-153v112zM72 306h153v-112h-153v112z" />
    <glyph glyph-name="rho" unicode="&#x3c1;" horiz-adv-x="633" 
d="M333 194h-108v-194h-153v700h261c177 0 280 -102 280 -252c0 -135 -93 -254 -280 -254zM458 447c0 52 -25 114 -133 114h-100v-228h100c108 0 133 62 133 114z" />
    <glyph glyph-name="Rho" unicode="&#x3a1;" horiz-adv-x="633" 
d="M613 448c0 -19 -2 -37 -6 -54h-535v112h535c3 -19 6 -38 6 -58zM333 194h-261v112h500c-44 -67 -124 -112 -239 -112zM333 700c110 0 191 -40 237 -106h-498v106h261zM225 0h-153v106h153v-106z" />
    <glyph glyph-name="rho.alt" unicode="&#xe903;" horiz-adv-x="633" 
d="M333 194h-108v-194h-153v700h261c177 0 280 -102 280 -252c0 -135 -93 -254 -280 -254z" />
    <glyph glyph-name="sigma1" unicode="&#x3c2;" horiz-adv-x="608" 
d="M563 559h-284l155 -165v-88l-156 -167h285v-139h-523v94l244 257l-244 255v94h523v-141z" />
    <glyph glyph-name="Sigma1" unicode="&#xe8fe;" horiz-adv-x="608" 
d="M40 106h523v-106h-523v106zM563 594h-523v106h523v-106zM434 394l-107 112h-191l107 -112h191zM241 306h193l-107 -112h-192z" />
    <glyph glyph-name="sigma" unicode="&#x3c3;" horiz-adv-x="608" 
d="M563 559h-284l155 -165v-88l-156 -167h285v-139h-523v94l244 257l-244 255v94h523v-141z" />
    <glyph glyph-name="Sigma" unicode="&#x3a3;" horiz-adv-x="608" 
d="M40 106h523v-106h-523v106zM563 594h-523v106h523v-106zM434 394l-107 112h-191l107 -112h191zM241 306h193l-107 -112h-192z" />
    <glyph glyph-name="tau" unicode="&#x3c4;" horiz-adv-x="608" 
d="M578 700v-139h-197v-561h-152v561h-199v139h548z" />
    <glyph glyph-name="Tau" unicode="&#x3a4;" horiz-adv-x="608" 
d="M578 700v-106h-548v106h548zM229 194v112h152v-112h-152zM229 394v112h152v-112h-152zM381 0h-152v106h152v-106z" />
    <glyph glyph-name="upsilon" unicode="&#x3c5;" horiz-adv-x="676" 
d="M663 700l-248 -464v-236h-152v236l-250 464h171l154 -305l153 305h172z" />
    <glyph glyph-name="Upsilon" unicode="&#x3a5;" horiz-adv-x="676" 
d="M663 700l-57 -106h-536l-57 106h650zM178 394l-61 112h442l-60 -112h-321zM263 236l-38 70h227l-37 -70v-42h-152v42zM415 0h-152v106h152v-106z" />
    <glyph glyph-name="upsilon.alt" unicode="&#xe904;" horiz-adv-x="676" 
d="M663 700l-248 -464v-236h-152v236l-250 464h650z" />
    <glyph glyph-name="phi" unicode="&#x3c6;" horiz-adv-x="760" 
d="M457 710v-74c169 -20 283 -122 283 -286s-114 -267 -283 -287v-73h-153v73c-170 20 -284 122 -284 287c0 164 114 266 284 286v74h153zM178 350c0 -89 38 -136 126 -151v302c-88 -15 -126 -63 -126 -151zM582 350c0 88 -38 135 -125 150v-301c87 15 125 63 125 151z" />
    <glyph glyph-name="Phi" unicode="&#x3a6;" horiz-adv-x="760" 
d="M737 394h-714c6 43 19 80 41 112h631c22 -32 36 -69 42 -112zM598 594h-435c40 21 88 36 141 42v74h153v-74c52 -6 101 -21 141 -42zM23 306h714c-6 -43 -20 -80 -42 -112h-631c-22 32 -35 69 -41 112zM163 106h435c-40 -21 -89 -36 -141 -42v-74h-153v74
c-53 6 -101 21 -141 42z" />
    <glyph glyph-name="phi.alt" unicode="&#xe905;" horiz-adv-x="760" 
d="M457 710v-74c169 -20 283 -122 283 -286s-114 -267 -283 -287v-73h-153v73c-170 20 -284 122 -284 287c0 164 114 266 284 286v74h153z" />
    <glyph glyph-name="chi" unicode="&#x3c7;" horiz-adv-x="740" 
d="M698 700l-227 -346l244 -354h-191l-164 245l-158 -245h-177l241 361l-229 339h191l147 -233l143 233h180z" />
    <glyph glyph-name="Chi" unicode="&#x3a7;" horiz-adv-x="740" 
d="M576 194h-416l78 112h257zM173 506h392l-77 -112h-236zM524 0l-71 106h186l76 -106h-191zM37 700h191l67 -106h-184zM698 700l-73 -106h-172l65 106h180zM202 0h-177l73 106h172z" />
    <glyph glyph-name="psi" unicode="&#x3c8;" horiz-adv-x="865" 
d="M356 0v194c-187 0 -296 105 -296 254v252h153v-229c0 -95 55 -138 143 -138v367h153v-367c88 0 143 43 143 138v229h153v-252c0 -149 -109 -254 -296 -254v-194h-153z" />
    <glyph glyph-name="Psi" unicode="&#x3a8;" horiz-adv-x="865" 
d="M213 594h-153v106h153v-106zM509 594h-153v106h153v-106zM805 594h-153v106h153v-106zM356 106h153v-106h-153v106zM800 394h-165c11 20 17 46 17 77v35h153v-58c0 -19 -2 -36 -5 -54zM356 506h153v-112h-153v112zM102 306h661c-47 -69 -134 -112 -254 -112h-153
c-120 0 -207 43 -254 112zM230 394h-165c-3 18 -5 35 -5 54v58h153v-35c0 -31 6 -57 17 -77z" />
    <glyph glyph-name="omega" unicode="&#x3c9;" horiz-adv-x="792" 
d="M396 710c190 0 341 -123 341 -328c0 -104 -35 -194 -116 -243h115v-139h-300v124c93 55 145 135 145 246c0 119 -71 196 -185 196s-185 -77 -185 -196c0 -111 52 -191 145 -246v-124h-300v139h115c-81 49 -116 139 -116 243c0 205 151 328 341 328z" />
    <glyph glyph-name="uni03A9" unicode="&#x3a9;" horiz-adv-x="792" 
d="M56 106h300v-106h-300v106zM77 506h178c-24 -28 -39 -68 -43 -112h-156c1 41 8 78 21 112zM65 306h152c9 -43 28 -80 54 -112h-157c-23 33 -39 72 -49 112zM665 594h-538c64 76 158 116 269 116s205 -40 269 -116zM436 106h300v-106h-300v106zM537 506h178
c13 -34 20 -71 21 -112h-156c-4 44 -19 84 -43 112zM575 306h152c-10 -40 -26 -79 -49 -112h-157c26 32 45 69 54 112z" />
    <glyph glyph-name="alphatonos" unicode="&#x3ac;" 
d="M547 0l-56 157h-260l-55 -157h-163l260 700h175l263 -700h-164zM11 506l36 194h117l-36 -194h-117zM360 525l-79 -225h159z" />
    <glyph glyph-name="Alphatonos" unicode="&#x386;" 
d="M85 194l41 112h470l42 -112h-553zM159 394l41 112h321l42 -112h-404zM273 700h175l40 -106h-255zM547 0l-38 106h162l40 -106h-164zM176 0h-163l39 106h161zM11 506l36 194h117l-36 -194h-117z" />
    <glyph glyph-name="alphatonos.alt" unicode="&#xe561;" 
d="M547 0l-56 157h-260l-55 -157h-163l260 700h175l263 -700h-164zM11 506l36 194h117l-36 -194h-117z" />
    <glyph glyph-name="epsilontonos" unicode="&#x3ad;" horiz-adv-x="693" 
d="M645 700v-139h-310v-134h288v-139h-288v-149h310v-139h-463v700h463zM0 506l36 194h117l-36 -194h-117z" />
    <glyph glyph-name="Epsilontonos" unicode="&#x388;" horiz-adv-x="693" 
d="M645 700v-139h-310v-134h288v-139h-288v-149h310v-139h-463v700h463zM0 506l36 194h117l-36 -194h-117z" />
    <glyph glyph-name="etatonos" unicode="&#x3ae;" horiz-adv-x="853" 
d="M781 700v-700h-153v277h-293v-277h-153v700h153v-284h293v284h153zM0 506l36 194h117l-36 -194h-117z" />
    <glyph glyph-name="Etatonos" unicode="&#x389;" horiz-adv-x="853" 
d="M781 700v-700h-153v277h-293v-277h-153v700h153v-284h293v284h153zM0 506l36 194h117l-36 -194h-117z" />
    <glyph glyph-name="iotadieresis" unicode="&#x3ca;" horiz-adv-x="297" 
d="M0 663v131h116v-94h65v94h116v-131h-72v-663h-153v663h-72z" />
    <glyph glyph-name="Iotadieresis" unicode="&#x3aa;" horiz-adv-x="297" 
d="M0 663v131h116v-94h65v94h116v-131h-72v-69h-153v69h-72zM72 394v112h153v-112h-153zM72 194v112h153v-112h-153zM225 0h-153v106h153v-106z" />
    <glyph glyph-name="iotadieresistonos" unicode="&#x390;" horiz-adv-x="297" 
d="M225 700v-700h-153v700h17l17 94h117l-17 -94h19zM-56 663v131h116v-131h-116zM239 663v131h116v-131h-116z" />
    <glyph glyph-name="Iotadieresistonos" unicode="&#xe8ff;" horiz-adv-x="297" 
d="M225 700v-106h-153v106h17l17 94h117l-17 -94h19zM72 194v112h153v-112h-153zM72 394v112h153v-112h-153zM225 0h-153v106h153v-106zM-56 663v131h116v-131h-116zM239 663v131h116v-131h-116z" />
    <glyph glyph-name="iotatonos" unicode="&#x3af;" horiz-adv-x="407" 
d="M335 700v-700h-153v700h153zM0 506l36 194h117l-36 -194h-117z" />
    <glyph glyph-name="Iotatonos" unicode="&#x38a;" horiz-adv-x="407" 
d="M182 394v112h153v-112h-153zM182 194v112h153v-112h-153zM335 700v-106h-153v106h153zM335 0h-153v106h153v-106zM0 506l36 194h117l-36 -194h-117z" />
    <glyph glyph-name="omicrontonos" unicode="&#x3cc;" horiz-adv-x="890" 
d="M850 350c0 -223 -170 -360 -360 -360s-360 137 -360 360s170 360 360 360s360 -137 360 -360zM288 350c0 -125 88 -216 202 -216s202 91 202 216s-88 216 -202 216s-202 -91 -202 -216zM0 506l36 194h117l-36 -194h-117z" />
    <glyph glyph-name="Omicrontonos" unicode="&#x38c;" horiz-adv-x="890" 
d="M818 506c15 -34 25 -72 29 -112h-715c5 40 15 78 30 112h656zM162 194c-15 33 -25 71 -30 112h715c-4 -41 -14 -79 -29 -112h-656zM490 710c104 0 203 -42 270 -116h-541c68 74 166 116 271 116zM490 -10c-105 0 -203 41 -271 116h541c-67 -75 -166 -116 -270 -116z
M0 506l36 194h117l-36 -194h-117z" />
    <glyph glyph-name="omicrontonos.alt" unicode="&#xe906;" horiz-adv-x="890" 
d="M850 350c0 -223 -170 -360 -360 -360s-360 137 -360 360s170 360 360 360s360 -137 360 -360zM0 506l36 194h117l-36 -194h-117z" />
    <glyph glyph-name="upsilondieresis" unicode="&#x3cb;" horiz-adv-x="676" 
d="M370 663v131h116v-104l5 10h172l-248 -464v-236h-152v236l-250 464h171l5 -10v104h116v-131h-103l136 -268l134 268h-102z" />
    <glyph glyph-name="Upsilondieresis" unicode="&#x3ab;" horiz-adv-x="676" 
d="M663 700l-57 -106h-536l-57 106h176v94h116v-94h65v94h116v-94h177zM178 394l-61 112h442l-60 -112h-321zM263 236l-38 70h227l-37 -70v-42h-152v42zM415 0h-152v106h152v-106z" />
    <glyph glyph-name="upsilondieresis.alt" unicode="&#xe907;" horiz-adv-x="676" 
d="M663 700l-248 -464v-236h-152v236l-250 464h176v94h116v-94h65v94h116v-94h177z" />
    <glyph glyph-name="upsilondieresistonos" unicode="&#x3b0;" horiz-adv-x="676" 
d="M424 663v131h116v-94h123l-248 -464v-236h-152v236l-250 464h116v94h116v-131h-43l136 -268l134 268h-48zM267 663l24 131h117l-24 -131h-117z" />
    <glyph glyph-name="Upsilondieresistonos" unicode="&#xe900;" horiz-adv-x="676" 
d="M663 700l-57 -106h-536l-57 106h116v94h116v-94h29l17 94h117l-17 -94h33v94h116v-94h123zM178 394l-61 112h442l-60 -112h-321zM263 236l-38 70h227l-37 -70v-42h-152v42zM415 0h-152v106h152v-106z" />
    <glyph glyph-name="upsilondieresistonos.alt" unicode="&#xe908;" horiz-adv-x="676" 
d="M663 700l-248 -464v-236h-152v236l-250 464h116v94h116v-94h29l17 94h117l-17 -94h33v94h116v-94h123z" />
    <glyph glyph-name="upsilontonos" unicode="&#x3cd;" horiz-adv-x="836" 
d="M823 700l-248 -464v-236h-152v236l-250 464h171l154 -305l153 305h172zM0 506l36 194h117l-36 -194h-117z" />
    <glyph glyph-name="Upsilontonos" unicode="&#x38e;" horiz-adv-x="836" 
d="M823 700l-57 -106h-536l-57 106h650zM338 394l-61 112h442l-60 -112h-321zM423 236l-38 70h227l-37 -70v-42h-152v42zM575 0h-152v106h152v-106zM0 506l36 194h117l-36 -194h-117z" />
    <glyph glyph-name="upsilontonos.alt" unicode="&#xe909;" horiz-adv-x="836" 
d="M823 700l-248 -464v-236h-152v236l-250 464h650zM0 506l36 194h117l-36 -194h-117z" />
    <glyph glyph-name="omegatonos" unicode="&#x3ce;" horiz-adv-x="874" 
d="M478 710c190 0 341 -123 341 -328c0 -104 -35 -194 -116 -243h115v-139h-300v124c93 55 145 135 145 246c0 119 -71 196 -185 196s-185 -77 -185 -196c0 -111 52 -191 145 -246v-124h-300v139h115c-81 49 -116 139 -116 243c0 205 151 328 341 328zM0 506l36 194h117
l-36 -194h-117z" />
    <glyph glyph-name="Omegatonos" unicode="&#x38f;" horiz-adv-x="868" 
d="M138 106h300v-106h-300v106zM159 506h178c-24 -28 -39 -68 -43 -112h-156c1 41 8 78 21 112zM147 306h152c9 -43 28 -80 54 -112h-157c-23 33 -39 72 -49 112zM747 594h-538c64 76 158 116 269 116s205 -40 269 -116zM518 106h300v-106h-300v106zM619 506h178
c13 -34 20 -71 21 -112h-156c-4 44 -19 84 -43 112zM657 306h152c-10 -40 -26 -79 -49 -112h-157c26 32 45 69 54 112zM0 506l36 194h117l-36 -194h-117z" />
    <glyph glyph-name="uni0430" unicode="&#x430;" 
d="M547 0l-56 157h-260l-55 -157h-163l260 700h175l263 -700h-164zM360 525l-79 -225h159z" />
    <glyph glyph-name="uni0410" unicode="&#x410;" 
d="M85 194l41 112h470l42 -112h-553zM159 394l41 112h321l42 -112h-404zM273 700h175l40 -106h-255zM547 0l-38 106h162l40 -106h-164zM176 0h-163l39 106h161z" />
    <glyph glyph-name="uni0430.alt" unicode="&#xe90a;" 
d="M547 0l-56 157h-260l-55 -157h-163l260 700h175l263 -700h-164z" />
    <glyph glyph-name="uni0431" unicode="&#x431;" horiz-adv-x="658" 
d="M72 0v700h468v-139h-315v-116h128c173 0 260 -102 260 -225c0 -129 -95 -220 -260 -220h-281zM458 223c0 50 -32 83 -113 83h-120v-167h120c73 0 113 28 113 84z" />
    <glyph glyph-name="uni0411" unicode="&#x411;" horiz-adv-x="658" 
d="M72 0v700h468v-139h-315v-116h128c173 0 260 -102 260 -225c0 -129 -95 -220 -260 -220h-281zM458 223c0 50 -32 83 -113 83h-120v-167h120c73 0 113 28 113 84z" />
    <glyph glyph-name="uni0431.alt" unicode="&#xe90b;" horiz-adv-x="658" 
d="M72 0v700h493v-139h-340v-116h128c173 0 260 -102 260 -225c0 -129 -95 -220 -260 -220h-281z" />
    <glyph glyph-name="uni0432" unicode="&#x432;" horiz-adv-x="671" 
d="M593 511c0 -56 -27 -119 -101 -145c93 -14 134 -93 134 -155c0 -112 -80 -211 -236 -211h-318v700h312c131 0 209 -77 209 -189zM470 213c0 36 -19 78 -90 78h-155v-152h155c71 0 90 39 90 74zM225 561v-140h132c63 0 80 37 80 68c0 33 -17 72 -79 72h-133z" />
    <glyph glyph-name="uni0412" unicode="&#x412;" horiz-adv-x="671" 
d="M626 211c0 -6 0 -12 -1 -17h-553v112h497c36 -17 57 -64 57 -95zM593 506c-1 -40 -17 -93 -69 -112h-452v112h521zM390 0h-318v106h527c-35 -62 -106 -106 -209 -106zM384 700c95 0 162 -41 192 -106h-504v106h312z" />
    <glyph glyph-name="uni0432.alt" unicode="&#xe90c;" horiz-adv-x="671" 
d="M593 511c0 -56 -27 -119 -101 -145c93 -14 134 -93 134 -155c0 -112 -80 -211 -236 -211h-318v700h312c131 0 209 -77 209 -189z" />
    <glyph glyph-name="uni0433" unicode="&#x433;" horiz-adv-x="515" 
d="M485 700v-139h-260v-561h-153v700h413z" />
    <glyph glyph-name="uni0413" unicode="&#x413;" horiz-adv-x="515" 
d="M72 106h153v-106h-153v106zM485 594h-413v106h413v-106zM72 506h153v-112h-153v112zM72 306h153v-112h-153v112z" />
    <glyph glyph-name="uni0434" unicode="&#x434;" horiz-adv-x="776" 
d="M35 -180v319h79c67 93 84 254 91 353l14 208h444v-561h78v-319h-143v180h-420v-180h-143zM345 394c-9 -118 -31 -201 -66 -255h231v422h-153z" />
    <glyph glyph-name="uni0414" unicode="&#x414;" horiz-adv-x="776" 
d="M741 0h-706v106h706v-106zM663 194h-518c16 34 27 73 36 112h482v-112zM663 394h-467c4 32 5 47 9 98l1 14h457v-112zM663 594h-452l8 106h444v-106zM598 -88h143v-92h-143v92zM35 -88h143v-92h-143v92z" />
    <glyph glyph-name="uni0434.alt" unicode="&#xe90d;" horiz-adv-x="776" 
d="M35 -180v319h79c67 93 84 254 91 353l14 208h444v-561h78v-319h-143v180h-420v-180h-143z" />
    <glyph glyph-name="uni0435" unicode="&#x435;" horiz-adv-x="583" 
d="M535 700v-141h-310v-132h288v-139h-288v-149h310v-139h-463v700h463z" />
    <glyph glyph-name="uni0415" unicode="&#x415;" horiz-adv-x="583" 
d="M535 700v-141h-310v-132h288v-139h-288v-149h310v-139h-463v700h463z" />
    <glyph glyph-name="uni0436" unicode="&#x436;" horiz-adv-x="999" 
d="M576 700v-317l195 317h177l-222 -335l256 -365h-192l-214 315v-315h-153v315l-214 -315h-192l256 365l-222 335h177l195 -317v317h153z" />
    <glyph glyph-name="uni0416" unicode="&#x416;" horiz-adv-x="999" 
d="M878 594h-172l65 106h177zM293 594h-172l-70 106h177zM576 594h-153v106h153v-106zM91 106h190l-72 -106h-192zM423 106h153v-106h-153v106zM718 106h190l74 -106h-192zM232 306h184l-75 -112h-188zM583 306h184l79 -112h-188zM416 394l-69 112h-167l74 -112h162z
M576 394v112h-153v-112h153zM745 394l74 112h-167l-69 -112h162zM576 194v112h-153v-112h153z" />
    <glyph glyph-name="uni0437" unicode="&#x437;" horiz-adv-x="578" 
d="M245 710c176 0 258 -76 258 -194c0 -50 -21 -117 -100 -150c101 -20 133 -101 133 -157c0 -117 -89 -219 -291 -219c-74 0 -143 19 -185 45v154c52 -36 117 -55 190 -55c103 0 130 42 130 77c0 37 -19 76 -116 76h-133v140h136c63 0 80 40 80 67c0 38 -35 72 -97 72
c-73 0 -138 -19 -190 -55v154c42 26 111 45 185 45z" />
    <glyph glyph-name="uni0417" unicode="&#x417;" horiz-adv-x="578" 
d="M245 710c176 0 258 -76 258 -194c0 -50 -21 -117 -100 -150c101 -20 133 -101 133 -157c0 -117 -89 -219 -291 -219c-74 0 -143 19 -185 45v154c52 -36 117 -55 190 -55c103 0 130 42 130 77c0 37 -19 76 -116 76h-133v140h136c63 0 80 40 80 67c0 38 -35 72 -97 72
c-73 0 -138 -19 -190 -55v154c42 26 111 45 185 45z" />
    <glyph glyph-name="uni0438" unicode="&#x438;" horiz-adv-x="761" 
d="M536 0v449l-330 -449h-134v700h153v-447l329 447h135v-700h-153z" />
    <glyph glyph-name="uni0418" unicode="&#x418;" horiz-adv-x="761" 
d="M689 394h-360l82 112h278v-112zM72 306h359l-83 -112h-276v112zM554 700h135v-106h-213zM284 106l-78 -106h-134v106h212zM689 306v-112h-153v112h153zM225 506v-112h-153v112h153zM689 0h-153v106h153v-106zM72 594v106h153v-106h-153z" />
    <glyph glyph-name="uni0439" unicode="&#x439;" horiz-adv-x="761" 
d="M536 0v449l-330 -449h-134v700h153v-447l329 447h135v-700h-153zM386 663c-100 0 -149 66 -149 131h112c0 -23 15 -43 37 -43s37 20 37 43h112c0 -65 -49 -131 -149 -131z" />
    <glyph glyph-name="uni0419" unicode="&#x419;" horiz-adv-x="761" 
d="M689 394h-360l82 112h278v-112zM72 306h359l-83 -112h-276v112zM554 700h135v-106h-213zM284 106l-78 -106h-134v106h212zM689 306v-112h-153v112h153zM225 506v-112h-153v112h153zM689 0h-153v106h153v-106zM72 594v106h153v-106h-153zM386 663c-100 0 -149 66 -149 131
h112c0 -23 15 -43 37 -43s37 20 37 43h112c0 -65 -49 -131 -149 -131z" />
    <glyph glyph-name="uni043A" unicode="&#x43a;" horiz-adv-x="709" 
d="M654 700l-268 -335l308 -365h-210l-259 315v-315h-153v700h153v-317l240 317h189z" />
    <glyph glyph-name="uni041A" unicode="&#x41a;" horiz-adv-x="709" 
d="M324 194l-92 112h204l94 -112h-206zM484 0l-87 106h207l90 -106h-210zM233 394l85 112h180l-89 -112h-176zM654 700l-85 -106h-185l81 106h189zM72 394v112h153v-112h-153zM72 194v112h153v-112h-153zM225 700v-106h-153v106h153zM225 0h-153v106h153v-106z" />
    <glyph glyph-name="uni043B" unicode="&#x43b;" horiz-adv-x="689" 
d="M617 700v-700h-153v561h-153l-12 -167c-23 -321 -80 -394 -253 -394h-16v139h15c71 0 93 34 114 353l14 208h444z" />
    <glyph glyph-name="uni041B" unicode="&#x41b;" horiz-adv-x="689" 
d="M464 106h153v-106h-153v106zM617 194h-153v112h153v-112zM617 394h-153v112h153v-112zM30 106h215c-38 -82 -99 -106 -199 -106h-16v106zM299 394h-147c2 30 5 61 7 98l1 14h147zM143 306h148c-5 -46 -10 -80 -18 -112h-153c9 25 17 61 23 112zM617 594h-451l7 106h444
v-106z" />
    <glyph glyph-name="uni043C" unicode="&#x43c;" horiz-adv-x="884" 
d="M430 132l-205 305v-437h-153v700h151l221 -341l221 341h147v-700h-153v437l-205 -305h-24z" />
    <glyph glyph-name="uni041C" unicode="&#x41c;" horiz-adv-x="884" 
d="M421 394h-349v112h276zM812 394h-346l73 112h273v-112zM388 194l-75 112h258l-76 -112h-107zM72 700h151l68 -106h-219v106zM812 700v-106h-216l69 106h147zM72 194v112h153v-112h-153zM659 194v112h153v-112h-153zM225 0h-153v106h153v-106zM812 0h-153v106h153v-106z
" />
    <glyph glyph-name="uni043D" unicode="&#x43d;" horiz-adv-x="743" 
d="M671 700v-700h-153v277h-293v-277h-153v700h153v-284h293v284h153z" />
    <glyph glyph-name="uni041D" unicode="&#x41d;" horiz-adv-x="743" 
d="M671 700v-700h-153v277h-293v-277h-153v700h153v-284h293v284h153z" />
    <glyph glyph-name="uni043E" unicode="&#x43e;" horiz-adv-x="800" 
d="M760 350c0 -223 -170 -360 -360 -360s-360 137 -360 360s170 360 360 360s360 -137 360 -360zM198 350c0 -125 88 -216 202 -216s202 91 202 216s-88 216 -202 216s-202 -91 -202 -216z" />
    <glyph glyph-name="uni041E" unicode="&#x41e;" horiz-adv-x="800" 
d="M728 506c15 -34 25 -72 29 -112h-715c5 40 15 78 30 112h656zM72 194c-15 33 -25 71 -30 112h715c-4 -41 -14 -79 -29 -112h-656zM400 710c104 0 203 -42 270 -116h-541c68 74 166 116 271 116zM400 -10c-105 0 -203 41 -271 116h541c-67 -75 -166 -116 -270 -116z" />
    <glyph glyph-name="uni043E.alt" unicode="&#xe90e;" horiz-adv-x="800" 
d="M760 350c0 -223 -170 -360 -360 -360s-360 137 -360 360s170 360 360 360s360 -137 360 -360z" />
    <glyph glyph-name="uni043F" unicode="&#x43f;" horiz-adv-x="723" 
d="M651 700v-700h-153v561h-273v-561h-153v700h579z" />
    <glyph glyph-name="uni041F" unicode="&#x41f;" horiz-adv-x="723" 
d="M72 106h153v-106h-153v106zM498 106h153v-106h-153v106zM651 194h-153v112h153v-112zM651 394h-153v112h153v-112zM651 594h-579v106h579v-106zM72 506h153v-112h-153v112zM72 306h153v-112h-153v112z" />
    <glyph glyph-name="uni0440" unicode="&#x440;" horiz-adv-x="633" 
d="M333 194h-108v-194h-153v700h261c177 0 280 -102 280 -252c0 -135 -93 -254 -280 -254zM458 447c0 52 -25 114 -133 114h-100v-228h100c108 0 133 62 133 114z" />
    <glyph glyph-name="uni0420" unicode="&#x420;" horiz-adv-x="633" 
d="M613 448c0 -19 -2 -37 -6 -54h-535v112h535c3 -19 6 -38 6 -58zM333 194h-261v112h500c-44 -67 -124 -112 -239 -112zM333 700c110 0 191 -40 237 -106h-498v106h261zM225 0h-153v106h153v-106z" />
    <glyph glyph-name="uni0440.alt" unicode="&#xe90f;" horiz-adv-x="633" 
d="M333 194h-108v-194h-153v700h261c177 0 280 -102 280 -252c0 -135 -93 -254 -280 -254z" />
    <glyph glyph-name="uni0441" unicode="&#x441;" horiz-adv-x="619" 
d="M400 -10c-191 0 -360 131 -360 360s169 360 360 360c79 0 131 -18 164 -36v-155c-33 25 -91 47 -154 47c-121 0 -212 -89 -212 -216s92 -216 212 -216c63 0 121 22 154 47v-155c-33 -18 -96 -36 -164 -36z" />
    <glyph glyph-name="uni0421" unicode="&#x421;" horiz-adv-x="617" 
d="M562 674v-80h-437c67 75 166 116 273 116c79 0 131 -18 164 -36zM398 -10c-106 0 -205 40 -273 116h437v-80c-33 -18 -96 -36 -164 -36zM199 306c8 -45 29 -83 58 -112h-188c-15 33 -25 71 -29 112h159zM257 506c-29 -29 -50 -68 -58 -112h-159c4 41 14 78 29 112h188z
" />
    <glyph glyph-name="uni0442" unicode="&#x442;" horiz-adv-x="608" 
d="M578 700v-139h-197v-561h-152v561h-199v139h548z" />
    <glyph glyph-name="uni0422" unicode="&#x422;" horiz-adv-x="608" 
d="M578 700v-106h-548v106h548zM229 194v112h152v-112h-152zM229 394v112h152v-112h-152zM381 0h-152v106h152v-106z" />
    <glyph glyph-name="uni0443" unicode="&#x443;" horiz-adv-x="676" 
d="M234 211l21 40l-242 449h171l155 -307l153 307h171l-295 -552c-50 -94 -117 -148 -254 -148h-9v139h8c65 0 91 15 121 72z" />
    <glyph glyph-name="uni0423" unicode="&#x423;" horiz-adv-x="676" 
d="M606 594h-536l-57 106h650zM105 106h237c-48 -68 -113 -106 -228 -106h-9v106zM392 194h-167l30 57l-30 55h227zM499 394h-321l-61 112h442z" />
    <glyph glyph-name="uni0443.alt" unicode="&#xe910;" horiz-adv-x="676" 
d="M234 211l21 40l-242 449h650l-295 -552c-50 -94 -117 -148 -254 -148h-9v139h8c65 0 91 15 121 72z" />
    <glyph glyph-name="uni0444" unicode="&#x444;" horiz-adv-x="760" 
d="M457 710v-74c169 -20 283 -122 283 -286s-114 -267 -283 -287v-73h-153v73c-170 20 -284 122 -284 287c0 164 114 266 284 286v74h153zM178 350c0 -89 38 -136 126 -151v302c-88 -15 -126 -63 -126 -151zM582 350c0 88 -38 135 -125 150v-301c87 15 125 63 125 151z" />
    <glyph glyph-name="uni0424" unicode="&#x424;" horiz-adv-x="760" 
d="M737 394h-714c6 43 19 80 41 112h631c22 -32 36 -69 42 -112zM598 594h-435c40 21 88 36 141 42v74h153v-74c52 -6 101 -21 141 -42zM23 306h714c-6 -43 -20 -80 -42 -112h-631c-22 32 -35 69 -41 112zM163 106h435c-40 -21 -89 -36 -141 -42v-74h-153v74
c-53 6 -101 21 -141 42z" />
    <glyph glyph-name="uni0444.alt" unicode="&#xe911;" horiz-adv-x="760" 
d="M457 710v-74c169 -20 283 -122 283 -286s-114 -267 -283 -287v-73h-153v73c-170 20 -284 122 -284 287c0 164 114 266 284 286v74h153z" />
    <glyph glyph-name="uni0445" unicode="&#x445;" horiz-adv-x="740" 
d="M698 700l-227 -346l244 -354h-191l-164 245l-158 -245h-177l241 361l-229 339h191l147 -233l143 233h180z" />
    <glyph glyph-name="uni0425" unicode="&#x425;" horiz-adv-x="740" 
d="M576 194h-416l78 112h257zM173 506h392l-77 -112h-236zM524 0l-71 106h186l76 -106h-191zM37 700h191l67 -106h-184zM698 700l-73 -106h-172l65 106h180zM202 0h-177l73 106h172z" />
    <glyph glyph-name="uni0446" unicode="&#x446;" horiz-adv-x="764" 
d="M586 -180v180h-514v700h153v-561h273v561h153v-561h78v-319h-143z" />
    <glyph glyph-name="uni0426" unicode="&#x426;" horiz-adv-x="764" 
d="M225 594h-153v106h153v-106zM72 106h657v-106h-657v106zM225 194h-153v112h153v-112zM225 394h-153v112h153v-112zM651 594h-153v106h153v-106zM498 506h153v-112h-153v112zM498 306h153v-112h-153v112zM586 -88h143v-92h-143v92z" />
    <glyph glyph-name="uni0447" unicode="&#x447;" horiz-adv-x="671" 
d="M213 700v-229c0 -95 56 -138 145 -138h88v367h153v-700h-153v194h-108c-173 0 -278 105 -278 254v252h153z" />
    <glyph glyph-name="uni0427" unicode="&#x427;" horiz-adv-x="671" 
d="M213 594h-153v106h153v-106zM60 506h153v-35c0 -31 6 -57 17 -77h-165c-3 17 -5 35 -5 54v58zM599 594h-153v106h153v-106zM446 506h153v-112h-153v112zM599 194h-261c-109 0 -192 42 -238 112h499v-112zM446 106h153v-106h-153v106z" />
    <glyph glyph-name="uni0448" unicode="&#x448;" horiz-adv-x="969" 
d="M897 700v-700h-825v700h153v-561h183v561h153v-561h183v561h153z" />
    <glyph glyph-name="uni0428" unicode="&#x428;" horiz-adv-x="969" 
d="M225 594h-153v106h153v-106zM561 594h-153v106h153v-106zM408 506h153v-112h-153v112zM408 306h153v-112h-153v112zM72 106h825v-106h-825v106zM225 194h-153v112h153v-112zM225 394h-153v112h153v-112zM897 594h-153v106h153v-106zM744 506h153v-112h-153v112zM744 306
h153v-112h-153v112z" />
    <glyph glyph-name="uni0449" unicode="&#x449;" horiz-adv-x="1010" 
d="M832 -180v180h-760v700h153v-561h183v561h153v-561h183v561h153v-561h78v-319h-143z" />
    <glyph glyph-name="uni0429" unicode="&#x429;" horiz-adv-x="1010" 
d="M225 594h-153v106h153v-106zM561 594h-153v106h153v-106zM408 506h153v-112h-153v112zM408 306h153v-112h-153v112zM72 106h903v-106h-903v106zM225 194h-153v112h153v-112zM225 394h-153v112h153v-112zM897 594h-153v106h153v-106zM744 506h153v-112h-153v112zM744 306
h153v-112h-153v112zM832 -88h143v-92h-143v92z" />
    <glyph glyph-name="uni044A" unicode="&#x44a;" horiz-adv-x="789" 
d="M30 561v139h351v-194h108c187 0 280 -119 280 -254c0 -150 -103 -252 -280 -252h-261v561h-198zM614 253c0 52 -25 114 -133 114h-100v-228h100c108 0 133 62 133 114z" />
    <glyph glyph-name="uni042A" unicode="&#x42a;" horiz-adv-x="788" 
d="M768 252c0 -20 -3 -39 -6 -58h-535v112h535c4 -17 6 -35 6 -54zM227 506h261c115 0 195 -45 239 -112h-500v112zM488 0h-261v106h498c-46 -66 -127 -106 -237 -106zM30 700h350v-106h-350v106z" />
    <glyph glyph-name="uni044A.alt" unicode="&#xe912;" horiz-adv-x="789" 
d="M30 561v139h351v-194h108c187 0 280 -119 280 -254c0 -150 -103 -252 -280 -252h-261v561h-198z" />
    <glyph glyph-name="uni044B" unicode="&#x44b;" horiz-adv-x="907" 
d="M225 700v-194h98c187 0 280 -119 280 -254c0 -150 -103 -252 -280 -252h-251v700h153zM835 700v-700h-153v700h153zM448 253c0 52 -25 114 -133 114h-90v-228h90c108 0 133 62 133 114z" />
    <glyph glyph-name="uni042B" unicode="&#x42b;" horiz-adv-x="907" 
d="M603 252c0 -20 -3 -39 -6 -58h-525v112h525c4 -17 6 -35 6 -54zM72 506h251c115 0 195 -45 239 -112h-490v112zM323 0h-251v106h488c-46 -66 -127 -106 -237 -106zM72 700h153v-106h-153v106zM682 394v112h153v-112h-153zM682 194v112h153v-112h-153zM835 700v-106h-153
v106h153zM835 0h-153v106h153v-106z" />
    <glyph glyph-name="uni044B.alt" unicode="&#xe913;" horiz-adv-x="907" 
d="M225 700v-194h98c187 0 280 -119 280 -254c0 -150 -103 -252 -280 -252h-251v700h153zM835 700v-700h-153v700h153z" />
    <glyph glyph-name="uni044C" unicode="&#x44c;" horiz-adv-x="633" 
d="M225 700v-194h108c187 0 280 -119 280 -254c0 -150 -103 -252 -280 -252h-261v700h153zM458 253c0 52 -25 114 -133 114h-100v-228h100c108 0 133 62 133 114z" />
    <glyph glyph-name="uni042C" unicode="&#x42c;" horiz-adv-x="633" 
d="M613 252c0 -20 -3 -39 -6 -58h-535v112h535c4 -17 6 -35 6 -54zM72 506h261c115 0 195 -45 239 -112h-500v112zM333 0h-261v106h498c-46 -66 -127 -106 -237 -106zM72 700h153v-106h-153v106z" />
    <glyph glyph-name="uni044C.alt" unicode="&#xe914;" horiz-adv-x="633" 
d="M225 506h108c187 0 280 -119 280 -254c0 -150 -103 -252 -280 -252h-261v700h153v-194z" />
    <glyph glyph-name="uni044D" unicode="&#x44d;" horiz-adv-x="639" 
d="M239 -10c-81 0 -147 23 -184 48v155c37 -30 98 -59 174 -59c99 0 179 61 204 154h-346v139h342c-29 84 -106 139 -200 139c-74 0 -137 -27 -174 -57v155c37 22 104 46 184 46c191 0 360 -131 360 -360s-169 -360 -360 -360z" />
    <glyph glyph-name="uni042D" unicode="&#x42d;" horiz-adv-x="639" 
d="M239 -10c-81 0 -147 23 -184 48v155c37 -30 98 -59 174 -59c99 0 179 61 204 154h-346v139h342c-29 84 -106 139 -200 139c-74 0 -137 -27 -174 -57v155c37 22 104 46 184 46c191 0 360 -131 360 -360s-169 -360 -360 -360z" />
    <glyph glyph-name="uni044E" unicode="&#x44e;" horiz-adv-x="1070" 
d="M225 700v-284h90c30 184 184 294 355 294c190 0 360 -137 360 -360s-170 -360 -360 -360c-169 0 -321 107 -354 287h-91v-277h-153v700h153zM468 350c0 -125 88 -216 202 -216s202 91 202 216s-88 216 -202 216s-202 -91 -202 -216z" />
    <glyph glyph-name="uni042E" unicode="&#x42e;" horiz-adv-x="1070" 
d="M225 700v-284h90c30 184 184 294 355 294c190 0 360 -137 360 -360s-170 -360 -360 -360c-169 0 -321 107 -354 287h-91v-277h-153v700h153zM468 350c0 -125 88 -216 202 -216s202 91 202 216s-88 216 -202 216s-202 -91 -202 -216z" />
    <glyph glyph-name="uni044E.alt" unicode="&#xe915;" horiz-adv-x="1070" 
d="M225 700v-284h90c30 184 184 294 355 294c190 0 360 -137 360 -360s-170 -360 -360 -360c-169 0 -321 107 -354 287h-91v-277h-153v700h153z" />
    <glyph glyph-name="uni044F" unicode="&#x44f;" horiz-adv-x="664" 
d="M200 0h-189l204 257c-107 25 -162 112 -162 210c0 141 93 233 264 233h275v-700h-153v250h-49zM208 469c0 -47 23 -96 110 -96h121v188h-121c-88 0 -110 -57 -110 -92z" />
    <glyph glyph-name="uni042F" unicode="&#x42f;" horiz-adv-x="664" 
d="M592 594l-507 -1c41 67 120 107 232 107h275v-106zM439 106h153v-106h-153v106zM95 106h186l-81 -106h-189zM592 194h-427l50 63c-39 9 -71 26 -96 49h473v-112zM592 394h-528c-7 23 -11 47 -11 73c0 13 1 27 3 39h536v-112z" />
    <glyph glyph-name="uni044F.alt" unicode="&#xe916;" horiz-adv-x="664" 
d="M200 0h-189l204 257c-107 25 -162 112 -162 210c0 141 93 233 264 233h275v-700h-153v250h-49z" />
    <glyph glyph-name="uni0453" unicode="&#x453;" horiz-adv-x="515" 
d="M485 700v-139h-260v-561h-153v700h157l32 94h122l-32 -94h134z" />
    <glyph glyph-name="uni0403" unicode="&#x403;" horiz-adv-x="515" 
d="M485 594h-413v106h157l32 94h122l-32 -94h134v-106zM72 306h153v-112h-153v112zM72 506h153v-112h-153v112zM72 106h153v-106h-153v106z" />
    <glyph glyph-name="uni0491" unicode="&#x491;" horiz-adv-x="515" 
d="M225 561v-561h-153v700h270v180h143v-319h-260z" />
    <glyph glyph-name="uni0490" unicode="&#x490;" horiz-adv-x="515" 
d="M72 106h153v-106h-153v106zM485 594h-413v106h413v-106zM72 506h153v-112h-153v112zM72 306h153v-112h-153v112zM342 880h143v-92h-143v92z" />
    <glyph glyph-name="uni0452" unicode="&#x452;" horiz-adv-x="789" 
d="M30 561v139h548v-139h-197v-116h128c173 0 260 -102 260 -225c0 -129 -95 -225 -243 -225c-28 0 -49 4 -62 8v144c8 -3 25 -8 53 -8c57 0 97 28 97 84c0 50 -32 83 -113 83h-120v-306h-153v561h-198z" />
    <glyph glyph-name="uni0402" unicode="&#x402;" horiz-adv-x="789" 
d="M30 561v139h548v-139h-197v-116h128c173 0 260 -102 260 -225c0 -129 -95 -225 -243 -225c-28 0 -49 4 -62 8v144c8 -3 25 -8 53 -8c57 0 97 28 97 84c0 50 -32 83 -113 83h-120v-306h-153v561h-198z" />
    <glyph glyph-name="uni0454" unicode="&#x454;" horiz-adv-x="639" 
d="M400 -10c-191 0 -360 131 -360 360s169 360 360 360c80 0 147 -24 184 -46v-155c-37 30 -100 57 -174 57c-95 0 -172 -55 -200 -139h342v-139h-346c24 -93 104 -154 204 -154c76 0 137 29 174 59v-155c-37 -25 -103 -48 -184 -48z" />
    <glyph glyph-name="uni0404" unicode="&#x404;" horiz-adv-x="639" 
d="M400 -10c-191 0 -360 131 -360 360s169 360 360 360c80 0 147 -24 184 -46v-155c-37 30 -100 57 -174 57c-95 0 -172 -55 -200 -139h342v-139h-346c24 -93 104 -154 204 -154c76 0 137 29 174 59v-155c-37 -25 -103 -48 -184 -48z" />
    <glyph glyph-name="uni0455" unicode="&#x455;" horiz-adv-x="611" 
d="M560 204c0 -121 -86 -214 -290 -214c-63 0 -151 16 -194 47v144c45 -30 130 -54 196 -54c96 0 131 24 131 67c0 122 -336 59 -336 314c0 133 121 202 266 202c78 0 144 -18 177 -36v-143c-43 23 -107 42 -168 42c-66 0 -118 -10 -118 -59c0 -116 336 -57 336 -310z" />
    <glyph glyph-name="uni0405" unicode="&#x405;" horiz-adv-x="611" 
d="M270 -10c-63 0 -151 16 -194 47v69h461c-38 -70 -123 -116 -267 -116zM510 674v-80h-423c41 76 136 116 246 116c78 0 144 -18 177 -36zM224 506c9 -60 116 -70 207 -112h-333c-19 28 -31 65 -31 112h157zM560 204v-10h-157c0 64 -93 77 -181 112h313
c15 -27 25 -61 25 -102z" />
    <glyph glyph-name="uni0450" unicode="&#x450;" horiz-adv-x="583" 
d="M338 794l31 -94h166v-139h-310v-134h288v-139h-288v-149h310v-139h-463v700h175l-31 94h122z" />
    <glyph glyph-name="uni0400" unicode="&#x400;" horiz-adv-x="583" 
d="M338 794l31 -94h166v-139h-310v-134h288v-139h-288v-149h310v-139h-463v700h175l-31 94h122z" />
    <glyph glyph-name="uni0451" unicode="&#x451;" horiz-adv-x="583" 
d="M535 700v-139h-310v-134h288v-139h-288v-149h310v-139h-463v700h83v94h116v-94h65v94h116v-94h83z" />
    <glyph glyph-name="uni0401" unicode="&#x401;" horiz-adv-x="583" 
d="M535 700v-139h-310v-134h288v-139h-288v-149h310v-139h-463v700h83v94h116v-94h65v94h116v-94h83z" />
    <glyph glyph-name="uni0456" unicode="&#x456;" horiz-adv-x="297" 
d="M225 700v-700h-153v700h153z" />
    <glyph glyph-name="uni0406" unicode="&#x406;" horiz-adv-x="297" 
d="M72 394v112h153v-112h-153zM72 194v112h153v-112h-153zM225 700v-106h-153v106h153zM225 0h-153v106h153v-106z" />
    <glyph glyph-name="uni0457" unicode="&#x457;" horiz-adv-x="297" 
d="M0 663v131h116v-94h65v94h116v-131h-72v-663h-153v663h-72z" />
    <glyph glyph-name="uni0407" unicode="&#x407;" horiz-adv-x="297" 
d="M0 663v131h116v-94h65v94h116v-131h-72v-69h-153v69h-72zM72 194v112h153v-112h-153zM72 394v112h153v-112h-153zM225 0h-153v106h153v-106z" />
    <glyph glyph-name="uni0458" unicode="&#x458;" horiz-adv-x="401" 
d="M336 700v-453c0 -152 -96 -252 -238 -252c-32 0 -57 4 -72 8v144c6 -3 25 -8 47 -8c66 0 111 31 111 136v425h152z" />
    <glyph glyph-name="uni0408" unicode="&#x408;" horiz-adv-x="401" 
d="M98 -5c-32 0 -57 4 -72 8v103h275c-40 -70 -112 -111 -203 -111zM170 194c9 20 14 46 14 81v31h152v-59c0 -19 -2 -36 -5 -53h-161zM184 394v112h152v-112h-152zM336 700v-106h-152v106h152z" />
    <glyph glyph-name="uni045D" unicode="&#x45d;" horiz-adv-x="761" 
d="M536 0v449l-330 -449h-134v700h153v-447l329 447h135v-700h-153zM395 794l44 -131h-122l-44 131h122z" />
    <glyph glyph-name="uni040D" unicode="&#x40d;" horiz-adv-x="761" 
d="M689 394h-360l82 112h278v-112zM72 306h359l-83 -112h-276v112zM554 700h135v-106h-213zM284 106l-78 -106h-134v106h212zM689 306v-112h-153v112h153zM225 506v-112h-153v112h153zM689 0h-153v106h153v-106zM72 594v106h153v-106h-153zM395 794l44 -131h-122l-44 131
h122z" />
    <glyph glyph-name="uni045C" unicode="&#x45c;" horiz-adv-x="709" 
d="M654 700l-268 -335l308 -365h-210l-259 315v-315h-153v700h153v-317l240 317h189zM267 663l44 131h122l-44 -131h-122z" />
    <glyph glyph-name="uni040C" unicode="&#x40c;" horiz-adv-x="709" 
d="M324 194l-92 112h204l94 -112h-206zM484 0l-87 106h207l90 -106h-210zM233 394l85 112h180l-89 -112h-176zM654 700l-85 -106h-185l81 106h189zM72 394v112h153v-112h-153zM72 194v112h153v-112h-153zM225 700v-106h-153v106h153zM225 0h-153v106h153v-106zM267 663
l44 131h122l-44 -131h-122z" />
    <glyph glyph-name="uni0459" unicode="&#x459;" horiz-adv-x="1026" 
d="M618 700v-194h108c187 0 280 -119 280 -254c0 -150 -103 -252 -280 -252h-261v561h-154l-12 -167c-23 -321 -80 -394 -253 -394h-16v139h15c71 0 93 34 114 353l14 208h445zM851 253c0 52 -25 114 -133 114h-100v-228h100c108 0 133 62 133 114z" />
    <glyph glyph-name="uni0409" unicode="&#x409;" horiz-adv-x="1026" 
d="M1006 252c0 -20 -3 -39 -6 -58h-535v112h535c4 -17 6 -35 6 -54zM465 506h261c115 0 195 -45 239 -112h-500v112zM726 0h-261v106h498c-46 -66 -127 -106 -237 -106zM619 594h-455l9 106h446v-106zM30 106h215c-38 -82 -99 -106 -199 -106h-16v106zM299 394h-147
c2 30 5 61 7 98l1 14h147zM143 306h148c-5 -46 -10 -80 -18 -112h-153c9 25 17 61 23 112z" />
    <glyph glyph-name="uni0459.alt" unicode="&#xe917;" horiz-adv-x="1026" 
d="M618 700v-194h108c187 0 280 -119 280 -254c0 -150 -103 -252 -280 -252h-261v561h-154l-12 -167c-23 -321 -80 -394 -253 -394h-16v139h15c71 0 93 34 114 353l14 208h445z" />
    <glyph glyph-name="uni045A" unicode="&#x45a;" horiz-adv-x="1079" 
d="M72 0v700h153v-255h293v255h153v-255h128c173 0 260 -102 260 -225c0 -129 -95 -220 -260 -220h-281v306h-293v-306h-153zM904 223c0 50 -32 83 -113 83h-120v-167h120c73 0 113 28 113 84z" />
    <glyph glyph-name="uni040A" unicode="&#x40a;" horiz-adv-x="1079" 
d="M72 0v700h153v-255h293v255h153v-255h128c173 0 260 -102 260 -225c0 -129 -95 -220 -260 -220h-281v306h-293v-306h-153zM904 223c0 50 -32 83 -113 83h-120v-167h120c73 0 113 28 113 84z" />
    <glyph glyph-name="uni045A.alt" unicode="&#xe918;" horiz-adv-x="1079" 
d="M72 0v700h153v-255h293v255h153v-255h128c173 0 260 -102 260 -225c0 -129 -95 -220 -260 -220h-281v306h-293v-306h-153z" />
    <glyph glyph-name="uni045B" unicode="&#x45b;" horiz-adv-x="827" 
d="M614 0v168c0 95 -56 138 -145 138h-88v-306h-153v561h-198v139h548v-139h-197v-116h108c173 0 278 -105 278 -254v-191h-153z" />
    <glyph glyph-name="uni040B" unicode="&#x40b;" horiz-adv-x="827" 
d="M614 0v168c0 95 -56 138 -145 138h-88v-306h-153v561h-198v139h548v-139h-197v-116h108c173 0 278 -105 278 -254v-191h-153z" />
    <glyph glyph-name="uni045E" unicode="&#x45e;" horiz-adv-x="676" 
d="M234 211l21 40l-242 449h171l155 -307l153 307h171l-295 -552c-50 -94 -117 -148 -254 -148h-9v139h8c65 0 91 15 121 72zM343 663c-100 0 -149 66 -149 131h112c0 -23 15 -43 37 -43s37 20 37 43h112c0 -65 -49 -131 -149 -131z" />
    <glyph glyph-name="uni040E" unicode="&#x40e;" horiz-adv-x="676" 
d="M606 594h-536l-57 106h222c-27 25 -41 59 -41 94h112c0 -23 15 -43 37 -43s37 20 37 43h112c0 -35 -14 -69 -42 -94h213zM499 394h-321l-61 112h442zM392 194h-167l30 57l-30 55h227zM105 106h237c-48 -68 -113 -106 -228 -106h-9v106z" />
    <glyph glyph-name="uni045E.alt" unicode="&#xe919;" horiz-adv-x="676" 
d="M234 211l21 40l-242 449h222c-27 25 -41 59 -41 94h112c0 -23 15 -43 37 -43s37 20 37 43h112c0 -35 -14 -69 -42 -94h213l-295 -552c-50 -94 -117 -148 -254 -148h-9v139h8c65 0 91 15 121 72z" />
    <glyph glyph-name="uni045F" unicode="&#x45f;" horiz-adv-x="723" 
d="M290 -180v180h-218v700h153v-561h273v561h153v-700h-218v-180h-143z" />
    <glyph glyph-name="uni040F" unicode="&#x40f;" horiz-adv-x="723" 
d="M225 594h-153v106h153v-106zM651 594h-153v106h153v-106zM498 506h153v-112h-153v112zM498 306h153v-112h-153v112zM72 106h579v-106h-579v106zM225 194h-153v112h153v-112zM225 394h-153v112h153v-112zM290 -88h143v-92h-143v92z" />
    <glyph glyph-name="uni0463" unicode="&#x463;" horiz-adv-x="789" 
d="M30 561v139h548v-139h-197v-116h128c173 0 260 -102 260 -225c0 -129 -95 -220 -260 -220h-281v561h-198zM614 223c0 50 -32 83 -113 83h-120v-167h120c73 0 113 28 113 84z" />
    <glyph glyph-name="uni0462" unicode="&#x462;" horiz-adv-x="789" 
d="M30 561v139h548v-139h-197v-116h128c173 0 260 -102 260 -225c0 -129 -95 -220 -260 -220h-281v561h-198zM614 223c0 50 -32 83 -113 83h-120v-167h120c73 0 113 28 113 84z" />
    <glyph glyph-name="uni0463.alt" unicode="&#xe91a;" horiz-adv-x="789" 
d="M30 561v139h548v-139h-197v-116h128c173 0 260 -102 260 -225c0 -129 -95 -220 -260 -220h-281v561h-198z" />
    <glyph glyph-name="uni0473" unicode="&#x473;" horiz-adv-x="800" 
d="M760 350c0 -223 -170 -360 -360 -360s-360 137 -360 360s170 360 360 360s360 -137 360 -360zM400 566c-94 0 -170 -61 -194 -152h388c-25 91 -101 152 -194 152zM400 134c91 0 165 58 192 145h-384c26 -87 101 -145 192 -145z" />
    <glyph glyph-name="uni0472" unicode="&#x472;" horiz-adv-x="800" 
d="M760 350c0 -223 -170 -360 -360 -360s-360 137 -360 360s170 360 360 360s360 -137 360 -360zM400 566c-94 0 -170 -61 -194 -152h388c-25 91 -101 152 -194 152zM400 134c91 0 165 58 192 145h-384c26 -87 101 -145 192 -145z" />
    <glyph glyph-name="uni0475" unicode="&#x475;" horiz-adv-x="733" 
d="M360 206l95 275c37 106 70 174 108 219h170c-51 -67 -83 -135 -114 -219l-176 -481h-165l-265 700h163z" />
    <glyph glyph-name="uni0474" unicode="&#x474;" horiz-adv-x="733" 
d="M238 106h244l-39 -106h-165zM215 594h-162l-40 106h163zM87 506h161l42 -112h-161zM667 594h-168c20 43 42 80 64 106h170c-28 -36 -46 -67 -66 -106zM464 506h164l-41 -112h-162zM395 306h160l-41 -112h-309l-42 112h160l37 -100z" />
    <glyph glyph-name="uni0493" unicode="&#x493;" horiz-adv-x="585" 
d="M10 283v112h132v305h413v-139h-260v-166h132v-112h-132v-283h-153v283h-132z" />
    <glyph glyph-name="uni0492" unicode="&#x492;" horiz-adv-x="585" 
d="M10 283v112h132v305h413v-139h-260v-166h132v-112h-132v-283h-153v283h-132z" />
    <glyph glyph-name="uni0497" unicode="&#x497;" horiz-adv-x="1037" 
d="M576 700v-317l195 317h177l-222 -335l158 -226h118v-319h-143v180h-69l-214 315v-315h-153v315l-214 -315h-192l256 365l-222 335h177l195 -317v317h153z" />
    <glyph glyph-name="uni0496" unicode="&#x496;" horiz-adv-x="1037" 
d="M878 594h-172l65 106h177zM293 594h-172l-70 106h177zM576 594h-153v106h153v-106zM91 106h190l-72 -106h-192zM423 106h153v-106h-153v106zM718 106h284v-106h-212zM232 306h184l-75 -112h-188zM583 306h184l79 -112h-188zM416 394l-69 112h-167l74 -112h162zM576 394
v112h-153v-112h153zM745 394l74 112h-167l-69 -112h162zM576 194v112h-153v-112h153zM859 -88h143v-92h-143v92z" />
    <glyph glyph-name="uni049B" unicode="&#x49b;" horiz-adv-x="728" 
d="M550 -180v180h-66l-259 315v-315h-153v700h153v-317l240 317h189l-268 -335l191 -226h116v-319h-143z" />
    <glyph glyph-name="uni049A" unicode="&#x49a;" horiz-adv-x="728" 
d="M324 194l-92 112h204l94 -112h-206zM484 0l-87 106h296v-106h-209zM233 394l85 112h180l-89 -112h-176zM654 700l-85 -106h-185l81 106h189zM72 394v112h153v-112h-153zM72 194v112h153v-112h-153zM225 700v-106h-153v106h153zM225 0h-153v106h153v-106zM550 -88h143v-92
h-143v92z" />
    <glyph glyph-name="uni04A3" unicode="&#x4a3;" horiz-adv-x="784" 
d="M606 -180v180h-88v277h-293v-277h-153v700h153v-284h293v284h153v-561h78v-319h-143z" />
    <glyph glyph-name="uni04A2" unicode="&#x4a2;" horiz-adv-x="784" 
d="M606 -180v180h-88v277h-293v-277h-153v700h153v-284h293v284h153v-561h78v-319h-143z" />
    <glyph glyph-name="uni04AF" unicode="&#x4af;" horiz-adv-x="676" 
d="M663 700l-248 -464v-236h-152v236l-250 464h171l154 -305l153 305h172z" />
    <glyph glyph-name="uni04AE" unicode="&#x4ae;" horiz-adv-x="676" 
d="M663 700l-57 -106h-536l-57 106h650zM178 394l-61 112h442l-60 -112h-321zM263 236l-38 70h227l-37 -70v-42h-152v42zM415 0h-152v106h152v-106z" />
    <glyph glyph-name="uni04AF.alt" unicode="&#xe91b;" horiz-adv-x="676" 
d="M663 700l-248 -464v-236h-152v236l-250 464h650z" />
    <glyph glyph-name="uni04B1" unicode="&#x4b1;" horiz-adv-x="676" 
d="M663 700l-211 -394h96v-112h-133v-194h-152v194h-133v112h95l-212 394h171l154 -305l153 305h172z" />
    <glyph glyph-name="uni04B0" unicode="&#x4b0;" horiz-adv-x="676" 
d="M184 700l54 -106h-168l-57 106h171zM438 594l53 106h172l-57 -106h-168zM338 394l56 112h165l-60 -112h-161zM282 506l56 -112h-160l-61 112h165zM415 0h-152v106h152v-106zM130 194v112h418v-112h-418z" />
    <glyph glyph-name="uni04B3" unicode="&#x4b3;" horiz-adv-x="771" 
d="M593 -180v180h-69l-164 245l-158 -245h-177l241 361l-229 339h191l147 -233l143 233h180l-227 -346l148 -215h117v-319h-143z" />
    <glyph glyph-name="uni04B2" unicode="&#x4b2;" horiz-adv-x="771" 
d="M576 194h-416l78 112h257zM173 506h392l-77 -112h-236zM524 0l-71 106h283v-106h-212zM37 700h191l67 -106h-184zM698 700l-73 -106h-172l65 106h180zM202 0h-177l73 106h172zM593 -88h143v-92h-143v92z" />
    <glyph glyph-name="uni04B7" unicode="&#x4b7;" horiz-adv-x="712" 
d="M213 700v-229c0 -95 56 -138 145 -138h88v367h153v-561h78v-319h-143v180h-88v194h-108c-173 0 -278 105 -278 254v252h153z" />
    <glyph glyph-name="uni04B6" unicode="&#x4b6;" horiz-adv-x="712" 
d="M213 594h-153v106h153v-106zM60 506h153v-35c0 -31 6 -57 17 -77h-165c-3 17 -5 35 -5 54v58zM599 594h-153v106h153v-106zM446 506h153v-112h-153v112zM599 194h-261c-109 0 -192 42 -238 112h499v-112zM446 106h231v-106h-231v106zM534 -88h143v-92h-143v92z" />
    <glyph glyph-name="uni04BB" unicode="&#x4bb;" horiz-adv-x="671" 
d="M458 0v229c0 95 -56 138 -145 138h-88v-367h-153v700h153v-194h108c173 0 278 -105 278 -254v-252h-153z" />
    <glyph glyph-name="uni04BA" unicode="&#x4ba;" horiz-adv-x="671" 
d="M458 106h153v-106h-153v106zM611 194h-153v35c0 31 -6 57 -17 77h165c3 -17 5 -35 5 -54v-58zM72 106h153v-106h-153v106zM225 194h-153v112h153v-112zM72 506h261c109 0 192 -42 238 -112h-499v112zM225 594h-153v106h153v-106z" />
    <glyph glyph-name="uni04CF" unicode="&#x4cf;" horiz-adv-x="297" 
d="M225 700v-700h-153v700h153z" />
    <glyph glyph-name="uni04C0" unicode="&#x4c0;" horiz-adv-x="297" 
d="M72 394v112h153v-112h-153zM72 194v112h153v-112h-153zM225 700v-106h-153v106h153zM225 0h-153v106h153v-106z" />
    <glyph glyph-name="uni04D9" unicode="&#x4d9;" horiz-adv-x="765" 
d="M47 394h516c-18 103 -102 172 -228 172c-101 0 -188 -41 -237 -81v160c49 32 128 65 247 65c211 0 380 -131 380 -360s-159 -360 -345 -360c-175 0 -335 119 -335 360c0 15 1 30 2 44zM377 134c92 0 154 53 178 134h-343c20 -86 77 -134 165 -134z" />
    <glyph glyph-name="uni04D8" unicode="&#x4d8;" horiz-adv-x="765" 
d="M123 106h519c-64 -75 -158 -116 -262 -116c-102 0 -193 39 -257 116zM696 194h-624c-13 32 -21 72 -25 112h676c-4 -41 -13 -78 -27 -112zM636 594h-538v51c49 32 128 65 247 65c117 0 221 -40 291 -116zM504 506h190c15 -33 25 -71 29 -112h-160c-8 44 -29 83 -59 112z
" />
    <glyph glyph-name="uni04D9.alt" unicode="&#xe91c;" horiz-adv-x="760" 
d="M42 394h516c-18 103 -102 172 -228 172c-101 0 -188 -41 -237 -81v160c49 32 128 65 247 65c211 0 380 -131 380 -360s-159 -360 -345 -360c-175 0 -335 119 -335 360c0 15 1 30 2 44z" />
    <glyph glyph-name="uni04E3" unicode="&#x4e3;" horiz-adv-x="761" 
d="M536 0v449l-330 -449h-134v700h153v-447l329 447h135v-700h-153zM230 680v114h297v-114h-297z" />
    <glyph glyph-name="uni04E2" unicode="&#x4e2;" horiz-adv-x="761" 
d="M689 394h-360l82 112h278v-112zM72 306h359l-83 -112h-276v112zM554 700h135v-106h-213zM284 106l-78 -106h-134v106h212zM689 306v-112h-153v112h153zM225 506v-112h-153v112h153zM689 0h-153v106h153v-106zM72 594v106h153v-106h-153zM240 680v114h297v-114h-297z" />
    <glyph glyph-name="uni04E9" unicode="&#x4e9;" horiz-adv-x="800" 
d="M760 350c0 -223 -170 -360 -360 -360s-360 137 -360 360s170 360 360 360s360 -137 360 -360zM400 566c-94 0 -170 -61 -194 -152h388c-25 91 -101 152 -194 152zM400 134c91 0 165 58 192 145h-384c26 -87 101 -145 192 -145z" />
    <glyph glyph-name="uni04E8" unicode="&#x4e8;" horiz-adv-x="800" 
d="M760 350c0 -223 -170 -360 -360 -360s-360 137 -360 360s170 360 360 360s360 -137 360 -360zM400 566c-94 0 -170 -61 -194 -152h388c-25 91 -101 152 -194 152zM400 134c91 0 165 58 192 145h-384c26 -87 101 -145 192 -145z" />
    <glyph glyph-name="uni04EF" unicode="&#x4ef;" horiz-adv-x="676" 
d="M234 211l21 40l-242 449h171l5 -10v104h297v-106l6 12h171l-295 -552c-50 -94 -117 -148 -254 -148h-9v139h8c65 0 91 15 121 72zM194 680l145 -287l143 287h-288z" />
    <glyph glyph-name="uni04EE" unicode="&#x4ee;" horiz-adv-x="676" 
d="M606 594h-536l-57 106h176v94h297v-94h177zM499 394h-321l-61 112h442zM392 194h-167l30 57l-30 55h227zM105 106h237c-48 -68 -113 -106 -228 -106h-9v106z" />
    <glyph glyph-name="uni04EF.alt" unicode="&#xe91d;" horiz-adv-x="676" 
d="M234 211l21 40l-242 449h176v94h297v-94h177l-295 -552c-50 -94 -117 -148 -254 -148h-9v139h8c65 0 91 15 121 72z" />
    <glyph glyph-name="grave" unicode="`" horiz-adv-x="500" 
d="M289 794l44 -131h-122l-44 131h122z" />
    <glyph glyph-name="grave" unicode="&#x300;" horiz-adv-x="500" 
d="M289 794l44 -131h-122l-44 131h122z" />
    <glyph glyph-name="grave" unicode="&#x2cb;" horiz-adv-x="500" 
d="M289 794l44 -131h-122l-44 131h122z" />
    <glyph glyph-name="acute" unicode="&#xb4;" horiz-adv-x="500" 
d="M167 663l44 131h122l-44 -131h-122z" />
    <glyph glyph-name="acute" unicode="&#x301;" horiz-adv-x="500" 
d="M167 663l44 131h122l-44 -131h-122z" />
    <glyph glyph-name="acute" unicode="&#x2ca;" horiz-adv-x="500" 
d="M167 663l44 131h122l-44 -131h-122z" />
    <glyph glyph-name="circumflex" unicode="&#x2c6;" horiz-adv-x="500" 
d="M412 663h-125l-37 63l-37 -63h-125l88 131h147z" />
    <glyph glyph-name="circumflex" unicode="&#x302;" horiz-adv-x="500" 
d="M412 663h-125l-37 63l-37 -63h-125l88 131h147z" />
    <glyph glyph-name="caron" unicode="&#x2c7;" horiz-adv-x="500" 
d="M322 663h-147l-88 131h125l37 -63l37 63h124z" />
    <glyph glyph-name="caron" unicode="&#x30c;" horiz-adv-x="500" 
d="M322 663h-147l-88 131h125l37 -63l37 63h124z" />
    <glyph glyph-name="tilde" unicode="&#x2dc;" horiz-adv-x="500" 
d="M87 658v52c0 68 47 84 79 84c42 0 109 -30 138 -30c20 0 25 9 25 30h83v-52c0 -68 -47 -84 -79 -84c-42 0 -109 30 -138 30c-20 0 -25 -9 -25 -30h-83z" />
    <glyph glyph-name="tilde" unicode="&#x303;" horiz-adv-x="500" 
d="M87 658v52c0 68 47 84 79 84c42 0 109 -30 138 -30c20 0 25 9 25 30h83v-52c0 -68 -47 -84 -79 -84c-42 0 -109 30 -138 30c-20 0 -25 -9 -25 -30h-83z" />
    <glyph glyph-name="dieresis" unicode="&#xa8;" horiz-adv-x="500" 
d="M101 663v131h116v-131h-116zM282 663v131h116v-131h-116z" />
    <glyph glyph-name="dieresis" unicode="&#x308;" horiz-adv-x="500" 
d="M101 663v131h116v-131h-116zM282 663v131h116v-131h-116z" />
    <glyph glyph-name="macron" unicode="&#xaf;" horiz-adv-x="500" 
d="M101 680v114h297v-114h-297z" />
    <glyph glyph-name="macron" unicode="&#x304;" horiz-adv-x="500" 
d="M101 680v114h297v-114h-297z" />
    <glyph glyph-name="macron" unicode="&#x2c9;" horiz-adv-x="500" 
d="M101 680v114h297v-114h-297z" />
    <glyph glyph-name="breve" unicode="&#x2d8;" horiz-adv-x="500" 
d="M250 663c-100 0 -149 66 -149 131h112c0 -23 15 -43 37 -43s37 20 37 43h112c0 -65 -49 -131 -149 -131z" />
    <glyph glyph-name="breve" unicode="&#x306;" horiz-adv-x="500" 
d="M250 663c-100 0 -149 66 -149 131h112c0 -23 15 -43 37 -43s37 20 37 43h112c0 -65 -49 -131 -149 -131z" />
    <glyph glyph-name="ring" unicode="&#x2da;" horiz-adv-x="500" 
d="M250 837c-28 0 -41 -22 -41 -41s13 -42 41 -42s40 23 40 42s-12 41 -40 41zM250 670c-97 0 -141 64 -141 126c0 61 44 125 141 125s141 -64 141 -125c0 -62 -44 -126 -141 -126z" />
    <glyph glyph-name="ring" unicode="&#x30a;" horiz-adv-x="500" 
d="M250 837c-28 0 -41 -22 -41 -41s13 -42 41 -42s40 23 40 42s-12 41 -40 41zM250 670c-97 0 -141 64 -141 126c0 61 44 125 141 125s141 -64 141 -125c0 -62 -44 -126 -141 -126z" />
    <glyph glyph-name="hungarumlaut" unicode="&#x2dd;" horiz-adv-x="500" 
d="M76 663l44 131h122l-44 -131h-122zM257 663l44 131h122l-44 -131h-122z" />
    <glyph glyph-name="hungarumlaut" unicode="&#x30b;" horiz-adv-x="500" 
d="M76 663l44 131h122l-44 -131h-122zM257 663l44 131h122l-44 -131h-122z" />
    <glyph glyph-name="dotaccent" unicode="&#x2d9;" horiz-adv-x="500" 
d="M192 663v131h116v-131h-116z" />
    <glyph glyph-name="dotaccent" unicode="&#x307;" horiz-adv-x="500" 
d="M192 663v131h116v-131h-116z" />
    <glyph glyph-name="cedilla" unicode="&#xb8;" horiz-adv-x="500" 
d="M160 -88v4c32 33 44 78 48 111h122c0 -29 -14 -76 -39 -115h-131z" />
    <glyph glyph-name="cedilla" unicode="&#x327;" horiz-adv-x="500" 
d="M160 -88v4c32 33 44 78 48 111h122c0 -29 -14 -76 -39 -115h-131z" />
    <glyph glyph-name="ogonek" unicode="&#x2db;" horiz-adv-x="500" 
d="M333 27v-4c-36 -25 -56 -66 -58 -111h-122c-1 36 21 86 69 115h111z" />
    <glyph glyph-name="ogonek" unicode="&#x328;" horiz-adv-x="500" 
d="M333 27v-4c-36 -25 -56 -66 -58 -111h-122c-1 36 21 86 69 115h111z" />
    <glyph glyph-name="commaaccent" unicode="&#x326;" horiz-adv-x="500" 
d="M193 -30h152l-62 -121h-128z" />
    <glyph glyph-name="breveCyr" unicode="&#xe91e;" horiz-adv-x="500" 
d="M250 663c-100 0 -149 66 -149 131h112c0 -23 15 -43 37 -43s37 20 37 43h112c0 -65 -49 -131 -149 -131z" />
    <glyph glyph-name="anoteleia" unicode="&#x387;" horiz-adv-x="267" 
d="M53 267v166h159v-166h-159z" />
    <glyph glyph-name="dieresistonos" unicode="&#x385;" horiz-adv-x="500" 
d="M44 663v131h116v-131h-116zM339 663v131h116v-131h-116zM182 663l24 131h117l-24 -131h-117z" />
    <glyph glyph-name="tonos" unicode="&#x384;" horiz-adv-x="500" 
d="M167 506l36 194h117l-36 -194h-117z" />
    <glyph glyph-name="comma" unicode="," horiz-adv-x="300" 
d="M87 106h152l-105 -257h-128z" />
    <glyph glyph-name="semicolon" unicode=";" horiz-adv-x="308" 
d="M75 106h152l-105 -257h-128zM75 381v166h159v-166h-159z" />
    <glyph glyph-name="uni037E" unicode="&#x37e;" horiz-adv-x="308" 
d="M75 106h152l-105 -257h-128zM75 381v166h159v-166h-159z" />
    <glyph glyph-name="colon" unicode=":" horiz-adv-x="300" 
d="M70 0v166h159v-166h-159zM70 381v166h159v-166h-159z" />
    <glyph glyph-name="period" unicode="." horiz-adv-x="300" 
d="M70 0v166h159v-166h-159z" />
    <glyph glyph-name="ellipsis" unicode="&#x2026;" horiz-adv-x="900" 
d="M70 0v166h159v-166h-159zM370 0v166h159v-166h-159zM670 0v166h159v-166h-159z" />
    <glyph glyph-name="hyphen" unicode="-" horiz-adv-x="300" 
d="M20 278v145h260v-145h-260z" />
    <glyph glyph-name="exclam" unicode="!" horiz-adv-x="303" 
d="M72 0v146h159v-146h-159zM85 229l-13 471h159l-13 -471h-133z" />
    <glyph glyph-name="exclamdown" unicode="&#xa1;" horiz-adv-x="303" 
d="M72 554v146h159v-146h-159zM72 0l10 471h139l10 -471h-159z" />
    <glyph glyph-name="question" unicode="?" horiz-adv-x="514" 
d="M305 229h-133l-9 107l42 26c91 56 105 95 105 130c0 50 -35 81 -101 81c-46 0 -102 -16 -149 -52v141c37 30 114 48 177 48c145 0 228 -86 228 -195c0 -78 -38 -146 -129 -203l-24 -15zM159 0v146h159v-146h-159z" />
    <glyph glyph-name="questiondown" unicode="&#xbf;" horiz-adv-x="514" 
d="M366 700v-146h-159v146h159zM220 471h133l9 -107l-42 -26c-91 -56 -105 -95 -105 -130c0 -50 35 -81 101 -81c46 0 102 16 149 52v-141c-37 -30 -114 -48 -177 -48c-145 0 -228 86 -228 195c0 78 38 146 129 203l24 15z" />
    <glyph glyph-name="quoteleft" unicode="&#x2018;" horiz-adv-x="280" 
d="M168 394h-153l121 306h129z" />
    <glyph glyph-name="quoteright" unicode="&#x2019;" horiz-adv-x="280" 
d="M112 700h153l-121 -306h-129z" />
    <glyph glyph-name="quotedblleft" unicode="&#x201c;" horiz-adv-x="513" 
d="M168 394h-153l121 306h129zM401 394h-153l121 306h129z" />
    <glyph glyph-name="quotedblright" unicode="&#x201d;" horiz-adv-x="513" 
d="M345 700h153l-121 -306h-129zM112 700h153l-121 -306h-129z" />
    <glyph glyph-name="quotesinglbase" unicode="&#x201a;" horiz-adv-x="280" 
d="M102 155h153l-121 -306h-129z" />
    <glyph glyph-name="quotedblbase" unicode="&#x201e;" horiz-adv-x="513" 
d="M335 155h153l-121 -306h-129zM102 155h153l-121 -306h-129z" />
    <glyph glyph-name="quotesingle" unicode="'" horiz-adv-x="325" 
d="M90 700h145l-12 -306h-121z" />
    <glyph glyph-name="quotedbl" unicode="&#x22;" horiz-adv-x="549" 
d="M90 700h145l-12 -306h-121zM314 700h145l-12 -306h-121z" />
    <glyph glyph-name="guilsinglleft" unicode="&#x2039;" horiz-adv-x="360" 
d="M40 350l152 230h128l-132 -230l132 -230h-128z" />
    <glyph glyph-name="guilsinglright" unicode="&#x203a;" horiz-adv-x="360" 
d="M168 580l152 -230l-152 -230h-128l132 230l-132 230h128z" />
    <glyph glyph-name="guillemotleft" unicode="&#xab;" horiz-adv-x="589" 
d="M269 350l152 230h128l-132 -230l132 -230h-128zM40 350l152 230h128l-132 -230l132 -230h-128z" />
    <glyph glyph-name="guillemotright" unicode="&#xbb;" horiz-adv-x="589" 
d="M168 580l152 -230l-152 -230h-128l132 230l-132 230h128zM397 580l152 -230l-152 -230h-128l132 230l-132 230h128z" />
    <glyph glyph-name="slash" unicode="/" horiz-adv-x="480" 
d="M10 0l320 700h140l-320 -700h-140z" />
    <glyph glyph-name="backslash" unicode="\" horiz-adv-x="480" 
d="M150 700l320 -700h-140l-320 700h140z" />
    <glyph glyph-name="bar" unicode="|" horiz-adv-x="327" 
d="M100 -200v949h127v-949h-127z" />
    <glyph glyph-name="brokenbar" unicode="&#xa6;" horiz-adv-x="327" 
d="M100 386v363h127v-363h-127zM100 -200v363h127v-363h-127z" />
    <glyph glyph-name="endash" unicode="&#x2013;" horiz-adv-x="600" 
d="M20 292v118h560v-118h-560z" />
    <glyph glyph-name="underscore" unicode="_" horiz-adv-x="600" 
d="M0 -230v130h600v-130h-600z" />
    <glyph glyph-name="emdash" unicode="&#x2014;" horiz-adv-x="1200" 
d="M20 292v118h1160v-118h-1160z" />
    <glyph glyph-name="bullet" unicode="&#x2022;" horiz-adv-x="500" 
d="M102 203v294h294v-294h-294z" />
    <glyph glyph-name="periodcentered" unicode="&#xb7;" horiz-adv-x="267" 
d="M53 267v166h159v-166h-159z" />
    <glyph glyph-name="periodcentered" unicode="&#x2219;" horiz-adv-x="267" 
d="M53 267v166h159v-166h-159z" />
    <glyph glyph-name="parenleft" unicode="(" horiz-adv-x="392" 
d="M218 349c0 -208 77 -371 142 -439h-127c-61 51 -157 212 -157 439s96 388 157 439h127c-65 -68 -142 -231 -142 -439z" />
    <glyph glyph-name="parenright" unicode=")" horiz-adv-x="390" 
d="M172 349c0 208 -75 368 -140 439h127c61 -54 155 -212 155 -439s-94 -385 -155 -439h-127c65 71 140 231 140 439z" />
    <glyph glyph-name="bracketleft" unicode="[" horiz-adv-x="400" 
d="M105 -90v878h235v-104h-96v-670h96v-104h-235z" />
    <glyph glyph-name="bracketright" unicode="]" horiz-adv-x="400" 
d="M295 788v-878h-235v104h96v670h-96v104h235z" />
    <glyph glyph-name="braceleft" unicode="{" horiz-adv-x="412" 
d="M45 292v114c41 0 78 5 78 67c0 57 -10 94 -10 161c0 94 42 154 167 154h72v-104h-47c-36 0 -53 -15 -53 -59c0 -68 10 -106 10 -155c0 -72 -47 -108 -118 -121c71 -13 118 -49 118 -121c0 -49 -10 -87 -10 -155c0 -44 17 -59 53 -59h47v-104h-72c-125 0 -167 60 -167 154
c0 67 10 104 10 161c0 62 -37 67 -78 67z" />
    <glyph glyph-name="braceright" unicode="}" horiz-adv-x="412" 
d="M367 406v-114c-41 0 -78 -5 -78 -67c0 -57 10 -94 10 -161c0 -94 -42 -154 -167 -154h-72v104h47c36 0 53 15 53 59c0 68 -10 106 -10 155c0 72 47 108 118 121c-71 13 -118 49 -118 121c0 49 10 87 10 155c0 44 -17 59 -53 59h-47v104h72c125 0 167 -60 167 -154
c0 -67 -10 -104 -10 -161c0 -62 37 -67 78 -67z" />
    <glyph glyph-name="asterisk" unicode="*" horiz-adv-x="493" 
d="M319 300l-72 115l-73 -116l-84 56l73 113l-125 39l29 98l130 -44v139h100v-137l129 43l29 -98l-124 -39l72 -112z" />
    <glyph glyph-name="dagger" unicode="&#x2020;" horiz-adv-x="472" 
d="M60 414v115h114v171h124v-171h114v-115h-114v-414h-124v414h-114z" />
    <glyph glyph-name="daggerdbl" unicode="&#x2021;" horiz-adv-x="472" 
d="M60 414v115h114v171h124v-171h114v-115h-114v-128h114v-115h-114v-171h-124v171h-114v115h114v128h-114z" />
    <glyph glyph-name="section" unicode="&#xa7;" horiz-adv-x="568" 
d="M99 -109v123c45 -26 109 -40 152 -40c71 0 94 28 94 48c0 92 -300 52 -300 245c0 67 46 122 104 148c-39 27 -58 72 -58 120c0 113 100 175 223 175c51 0 102 -11 135 -32v-123c-36 20 -90 35 -129 35c-59 0 -80 -19 -80 -41c0 -89 296 -43 296 -251
c0 -60 -34 -113 -96 -145c30 -26 55 -58 55 -118c0 -109 -102 -181 -236 -181c-60 0 -129 16 -160 37zM329 213c28 11 47 35 47 65c0 38 -37 56 -114 73c-36 -7 -57 -35 -57 -59c0 -44 41 -59 124 -79z" />
    <glyph glyph-name="paragraph" unicode="&#xb6;" horiz-adv-x="596" 
d="M441 -94h-136c52 55 85 132 85 268v404h-100v-303h-40c-94 0 -208 60 -208 213c0 151 114 212 208 212h274v-544c0 -118 -31 -200 -83 -250z" />
    <glyph glyph-name="at" unicode="@" horiz-adv-x="785" 
d="M576 261h7c43 0 71 41 71 118c0 149 -114 243 -258 243s-259 -94 -259 -272c0 -168 115 -272 259 -272c63 0 132 18 163 41v-93c-41 -26 -110 -36 -172 -36c-181 0 -347 127 -347 360s166 360 356 360s355 -129 355 -331c0 -119 -61 -220 -231 -220h-59l-7 33
c-22 -20 -61 -38 -106 -38c-76 0 -127 52 -127 119c0 72 56 125 151 125c25 0 59 -4 77 -12v5c0 33 -18 54 -89 54c-37 0 -81 -14 -104 -32v106c25 21 80 36 126 36c123 0 194 -56 194 -190v-104zM401 251c35 0 51 18 51 34c0 14 -8 25 -51 25c-36 0 -47 -11 -47 -29
s9 -30 47 -30z" />
    <glyph glyph-name="copyright" unicode="&#xa9;" horiz-adv-x="800" 
d="M40 350c0 199 161 360 360 360s360 -161 360 -360s-161 -360 -360 -360s-360 161 -360 360zM126 350c0 -151 123 -274 274 -274s273 123 273 274s-122 273 -273 273s-274 -122 -274 -273zM229 350c0 122 93 193 194 193c46 0 69 -9 86 -16v-104c-13 7 -41 18 -75 18
c-55 0 -91 -41 -91 -91s36 -91 91 -91c34 0 62 11 75 18v-104c-17 -7 -40 -16 -86 -16c-101 0 -194 71 -194 193z" />
    <glyph glyph-name="registered" unicode="&#xae;" horiz-adv-x="800" 
d="M40 350c0 199 161 360 360 360s360 -161 360 -360s-161 -360 -360 -360s-360 161 -360 360zM126 350c0 -151 123 -274 274 -274s273 123 273 274s-122 273 -273 273s-274 -122 -274 -273zM449 168l-75 122h-11v-122h-110v364h179c61 0 133 -34 133 -122
c0 -53 -29 -92 -74 -110l85 -132h-127zM363 434v-73h40c37 0 48 15 48 36c0 22 -11 37 -48 37h-40z" />
    <glyph glyph-name="published" unicode="&#x2117;" horiz-adv-x="800" 
d="M40 350c0 199 161 360 360 360s360 -161 360 -360s-161 -360 -360 -360s-360 161 -360 360zM126 350c0 -151 123 -274 274 -274s273 123 273 274s-122 273 -273 273s-274 -122 -274 -273zM427 256h-49v-88h-110v364h159c89 0 152 -55 152 -139c0 -83 -63 -137 -152 -137z
M464 393c0 24 -12 41 -53 41h-33v-82h33c41 0 53 17 53 41z" />
    <glyph glyph-name="published" unicode="&#xe039;" horiz-adv-x="800" 
d="M40 350c0 199 161 360 360 360s360 -161 360 -360s-161 -360 -360 -360s-360 161 -360 360zM126 350c0 -151 123 -274 274 -274s273 123 273 274s-122 273 -273 273s-274 -122 -274 -273zM427 256h-49v-88h-110v364h159c89 0 152 -55 152 -139c0 -83 -63 -137 -152 -137z
M464 393c0 24 -12 41 -53 41h-33v-82h33c41 0 53 17 53 41z" />
    <glyph glyph-name="trademark" unicode="&#x2122;" horiz-adv-x="956" 
d="M412 700v-102h-122v-262h-111v262h-123v102h356zM668 408l-87 117v-189h-112v364h109l103 -148l103 148h102v-364h-113v189l-89 -117h-16z" />
    <glyph glyph-name="ordfeminine" unicode="&#xaa;" horiz-adv-x="417" 
d="M44 135v118h328v-118h-328zM275 330l-6 31c-26 -25 -63 -37 -102 -37c-82 0 -124 55 -124 113c0 66 46 118 141 118c32 0 60 -6 81 -13v14c0 37 -27 57 -82 57c-38 0 -76 -11 -104 -31v101c26 16 76 27 119 27c100 0 174 -42 174 -148v-232h-97zM200 413
c34 0 65 12 65 32c0 19 -26 27 -65 27c-25 0 -46 -8 -46 -31c0 -21 19 -28 46 -28z" />
    <glyph glyph-name="ordmasculine" unicode="&#xba;" horiz-adv-x="450" 
d="M52 135v118h346v-118h-346zM225 423c46 0 79 32 79 95s-33 95 -79 95s-79 -32 -79 -95s33 -95 79 -95zM225 326c-91 0 -190 64 -190 192s99 192 190 192s190 -64 190 -192s-99 -192 -190 -192z" />
    <glyph glyph-name="numero" unicode="&#x2116;" horiz-adv-x="1201" 
d="M689 700v-700h-134l-330 434v-434h-153v700h135l330 -435v435h152zM803 135v118h346v-118h-346zM976 423c46 0 79 32 79 95s-33 95 -79 95s-79 -32 -79 -95s33 -95 79 -95zM976 326c-91 0 -190 64 -190 192s99 192 190 192s190 -64 190 -192s-99 -192 -190 -192z" />
    <glyph glyph-name="numbersign" unicode="#" horiz-adv-x="673" 
d="M334 0l19 165h-93l-19 -165h-106l19 165h-104v132h120l12 106h-104v132h120l19 165h106l-19 -165h93l19 165h106l-19 -165h120v-132h-136l-12 -106h120v-132h-136l-19 -165h-106zM288 403l-12 -106h93l12 106h-93z" />
    <glyph glyph-name="Euro" unicode="&#x20ac;" horiz-adv-x="592" 
d="M40 379v108h80c44 144 164 223 321 223c41 0 89 -10 116 -25v-135c-35 16 -67 26 -116 26c-69 0 -126 -30 -156 -89h202v-108h-222c-1 -10 -1 -20 -1 -29c0 -10 0 -20 1 -29h222v-108h-200c30 -52 91 -89 179 -89c38 0 65 8 91 23v-134c-29 -15 -71 -23 -108 -23
c-163 0 -284 79 -329 223h-80v108h68v58h-68z" />
    <glyph glyph-name="dollar" unicode="$" horiz-adv-x="584" 
d="M192 -109l6 104c-54 8 -101 24 -134 42v144c38 -24 94 -44 144 -52l12 175c-82 33 -166 80 -166 203c0 117 94 188 212 201l8 101h115l-8 -103c46 -6 85 -17 109 -30v-144c-33 17 -77 31 -118 38l-12 -158c87 -33 177 -79 177 -204c0 -115 -79 -201 -224 -215l-6 -102
h-115zM381 194c0 29 -20 49 -49 65l-9 -129c48 12 58 37 58 64zM200 518c0 -29 19 -47 49 -63l8 115c-38 -8 -57 -26 -57 -52z" />
    <glyph glyph-name="cent" unicode="&#xa2;" horiz-adv-x="569" 
d="M318 656h115l-7 -103c33 -4 65 -12 81 -22v-135c-27 18 -57 27 -90 32l-21 -312c40 3 78 13 111 35v-135c-23 -15 -72 -23 -119 -25l-7 -100h-115l7 110c-112 28 -211 111 -211 272c0 179 117 263 249 280zM205 273c0 -62 28 -111 77 -137l20 283
c-61 -23 -97 -77 -97 -146z" />
    <glyph glyph-name="sterling" unicode="&#xa3;" horiz-adv-x="542" 
d="M55 276v118h75l-2 26c-17 221 116 290 233 290c62 0 95 -12 127 -27v-135c-39 19 -66 25 -105 25c-52 0 -112 -26 -101 -169l1 -10h164v-118h-155l11 -137h214v-139h-462v139h95l-11 137h-84z" />
    <glyph glyph-name="florin" unicode="&#x192;" horiz-adv-x="537" 
d="M50 276v118h95v60c0 173 98 256 238 256c46 0 78 -9 109 -25v-136c-29 16 -60 24 -92 24c-69 0 -103 -35 -103 -137v-42h164v-118h-164v-276h-152v276h-95z" />
    <glyph glyph-name="yen" unicode="&#xa5;" horiz-adv-x="659" 
d="M62 379v108h78l-110 213h168l134 -287l132 287h165l-109 -213h78v-108h-134l-29 -58h163v-108h-191v-213h-152v213h-193v108h164l-30 58h-134z" />
    <glyph glyph-name="zero" unicode="0" horiz-adv-x="706" 
d="M32 350c0 220 139 360 321 360s321 -140 321 -360s-139 -360 -321 -360s-321 140 -321 360zM187 350c0 -159 90 -216 166 -216s166 57 166 216s-90 216 -166 216s-166 -57 -166 -216z" />
    <glyph glyph-name="zero.OP" unicode="&#xe061;" horiz-adv-x="706" 
d="M59 194c-13 34 -22 71 -25 112h638c-4 -41 -12 -78 -25 -112h-588zM647 506c13 -34 21 -72 25 -112h-638c3 40 12 78 25 112h588zM353 -10c-100 0 -187 42 -245 116h489c-58 -74 -145 -116 -244 -116zM353 710c99 0 186 -42 244 -116h-489c58 74 145 116 245 116z" />
    <glyph glyph-name="zero.alt" unicode="&#xe91f;" horiz-adv-x="706" 
d="M32 350c0 220 139 360 321 360s321 -140 321 -360s-139 -360 -321 -360s-321 140 -321 360z" />
    <glyph glyph-name="one" unicode="1" horiz-adv-x="431" 
d="M40 638l203 62h93v-700h-153v531l-143 -38v145z" />
    <glyph glyph-name="one.OP" unicode="&#xe062;" horiz-adv-x="431" 
d="M40 638l203 62h93v-106h-296v44zM183 394v112h153v-112h-153zM183 194v112h153v-112h-153zM336 0h-153v106h153v-106z" />
    <glyph glyph-name="two" unicode="2" horiz-adv-x="580" 
d="M54 502v154c40 30 107 54 187 54c186 0 276 -119 276 -230c0 -113 -59 -198 -182 -296l-39 -31h252v-153h-505v94l190 171c94 84 129 134 129 190c0 63 -49 111 -146 111c-53 0 -132 -31 -162 -64z" />
    <glyph glyph-name="two.OP" unicode="&#xe063;" horiz-adv-x="580" 
d="M43 0v106h505v-106h-505zM241 710c121 0 201 -51 242 -116h-429v62c40 30 107 54 187 54zM233 265c16 14 31 28 44 41h181c-27 -37 -64 -74 -111 -112h-193zM362 455c0 18 -4 36 -13 51h166c1 -9 2 -18 2 -26c0 -31 -5 -59 -13 -86h-158c11 21 16 40 16 61z" />
    <glyph glyph-name="three" unicode="3" horiz-adv-x="578" 
d="M60 35v154c52 -36 117 -55 190 -55c82 0 132 36 132 89s-41 95 -214 95h-22v32l155 197h-241v153h455v-94l-146 -185c93 -15 168 -87 168 -197c0 -114 -71 -234 -292 -234c-74 0 -143 19 -185 45z" />
    <glyph glyph-name="three.OP" unicode="&#xe064;" horiz-adv-x="578" 
d="M515 606l-10 -12h-445v106h455v-94zM60 35v71h446c-39 -66 -119 -116 -261 -116c-74 0 -143 19 -185 45zM369 421c27 -5 52 -14 75 -27h-264l88 112h168zM537 224c0 -10 -1 -20 -2 -30h-159c3 9 6 18 6 29c0 36 -19 67 -84 83h223c10 -24 16 -52 16 -82z" />
    <glyph glyph-name="four" unicode="4" horiz-adv-x="640" 
d="M531 700v-407h79v-138h-79v-155h-153v155h-348v96l325 449h176zM378 510l-150 -217h150v217z" />
    <glyph glyph-name="four.OP" unicode="&#xe065;" horiz-adv-x="640" 
d="M30 194v70l31 42h549v-112h-580zM127 394l83 112h321v-112h-404zM531 700v-106h-255l79 106h176zM531 0h-153v106h153v-106z" />
    <glyph glyph-name="four.alt" unicode="&#xe920;" horiz-adv-x="640" 
d="M531 700v-407h79v-138h-79v-155h-153v155h-348v96l325 449h176z" />
    <glyph glyph-name="five" unicode="5" horiz-adv-x="610" 
d="M101 306l-16 16l35 378h392v-153h-263l-9 -89c24 4 49 5 57 5c181 0 263 -103 263 -220c0 -131 -70 -253 -285 -253c-55 0 -141 14 -195 45v154c34 -21 110 -55 190 -55c95 0 135 43 135 94c0 49 -40 99 -163 99c-48 0 -109 -11 -141 -21z" />
    <glyph glyph-name="five.OP" unicode="&#xe066;" horiz-adv-x="610" 
d="M512 700v-106h-402l10 106h392zM275 -10c-55 0 -141 14 -195 45v71h447c-40 -68 -117 -116 -252 -116zM297 463c92 0 159 -27 202 -69h-408l11 112h143l-5 -48c24 4 49 5 57 5zM405 228c0 29 -14 59 -52 78h198c6 -20 9 -42 9 -63c0 -17 -1 -33 -4 -49h-158
c5 10 7 22 7 34z" />
    <glyph glyph-name="six" unicode="6" horiz-adv-x="630" 
d="M314 134c66 0 119 46 119 116s-53 115 -119 115s-118 -45 -118 -115s52 -116 118 -116zM588 255c0 -166 -124 -265 -274 -265c-159 0 -273 113 -273 265c0 110 62 226 184 352l90 93h187l-123 -129c-33 -34 -61 -63 -75 -82c9 3 24 5 39 5c138 0 245 -91 245 -239z" />
    <glyph glyph-name="six.OP" unicode="&#xe067;" horiz-adv-x="630" 
d="M588 261c0 -24 -3 -46 -7 -67h-534c-4 19 -6 40 -6 61c0 17 1 34 4 51h539c3 -15 4 -30 4 -45zM138 506h163c127 0 211 -42 252 -112h-481c16 36 38 74 66 112zM314 -10c-100 0 -183 45 -230 116h460c-49 -75 -134 -116 -230 -116zM502 700l-101 -106h-189c4 4 9 8 13 13
l90 93h187z" />
    <glyph glyph-name="six.alt" unicode="&#xe921;" horiz-adv-x="630" 
d="M588 255c0 -166 -124 -265 -274 -265c-159 0 -273 113 -273 265c0 110 60 226 182 352l90 93h194l-123 -129c-33 -34 -60 -62 -74 -82c9 3 24 5 33 5c138 0 245 -91 245 -239z" />
    <glyph glyph-name="seven" unicode="7" horiz-adv-x="600" 
d="M555 700v-96l-327 -604h-173l299 547h-292v153h493z" />
    <glyph glyph-name="seven.OP" unicode="&#xe068;" horiz-adv-x="600" 
d="M555 700v-96l-6 -10h-487v106h493zM161 194l61 112h171l-60 -112h-172zM270 394l61 112h171l-61 -112h-171zM228 0h-173l58 106h172z" />
    <glyph glyph-name="eight" unicode="8" horiz-adv-x="664" 
d="M332 123c68 0 118 29 118 89s-50 89 -118 89s-118 -29 -118 -89s50 -89 118 -89zM332 431c52 0 94 22 94 72s-42 72 -94 72s-94 -22 -94 -72s42 -72 94 -72zM332 -10c-173 0 -277 97 -277 211c0 79 41 147 125 176c-53 15 -98 70 -98 141c0 86 74 192 250 192
s250 -106 250 -192c0 -71 -45 -126 -98 -141c84 -29 125 -97 125 -176c0 -114 -104 -211 -277 -211z" />
    <glyph glyph-name="eight.OP" unicode="&#xe069;" horiz-adv-x="664" 
d="M609 206c0 -4 0 -8 -1 -12h-553v12c0 37 12 71 33 100h487c22 -29 34 -63 34 -100zM581 506c-4 -45 -33 -88 -70 -112h-358c-37 24 -66 67 -71 112h499zM332 -10c-120 0 -206 48 -248 116h496c-42 -68 -129 -116 -248 -116zM332 710c124 0 197 -55 230 -116h-460
c32 61 106 116 230 116z" />
    <glyph glyph-name="eight.alt" unicode="&#xe922;" horiz-adv-x="664" 
d="M332 -10c-173 0 -277 97 -277 211c0 79 41 147 125 176c-53 15 -98 70 -98 141c0 86 74 192 250 192s250 -106 250 -192c0 -71 -45 -126 -98 -141c84 -29 125 -97 125 -176c0 -114 -104 -211 -277 -211z" />
    <glyph glyph-name="nine" unicode="9" horiz-adv-x="630" 
d="M315 566c-66 0 -119 -46 -119 -116s53 -115 119 -115s118 45 118 115s-52 116 -118 116zM41 445c0 166 124 265 274 265c159 0 273 -113 273 -265c0 -110 -62 -226 -184 -352l-90 -93h-187l123 129c33 34 61 63 75 82c-9 -3 -24 -5 -39 -5c-138 0 -245 91 -245 239z" />
    <glyph glyph-name="nine.OP" unicode="&#xe06a;" horiz-adv-x="630" 
d="M41 439c0 24 3 46 7 67h534c4 -19 6 -40 6 -61c0 -17 -1 -34 -4 -51h-539c-3 15 -4 30 -4 45zM491 194h-163c-127 0 -211 42 -252 112h481c-16 -36 -38 -74 -66 -112zM315 710c100 0 183 -45 230 -116h-460c49 75 134 116 230 116zM127 0l101 106h189
c-4 -4 -9 -8 -13 -13l-90 -93h-187z" />
    <glyph glyph-name="nine.alt" unicode="&#xe923;" horiz-adv-x="630" 
d="M41 445c0 166 124 265 274 265c159 0 273 -113 273 -265c0 -110 -60 -226 -182 -352l-90 -93h-194l123 129c33 34 60 62 74 82c-9 -3 -24 -5 -33 -5c-138 0 -245 91 -245 239z" />
    <glyph glyph-name="zero.numr" unicode="&#xe06e;" horiz-adv-x="417" 
d="M21 489c0 142 83 218 187 218c105 0 188 -76 188 -218s-83 -219 -188 -219c-104 0 -187 77 -187 219zM141 489c0 -72 22 -113 67 -113c46 0 67 41 67 113s-21 113 -67 113c-45 0 -67 -41 -67 -113z" />
    <glyph glyph-name="one.numr" unicode="&#xe06f;" horiz-adv-x="272" 
d="M15 657l139 43h61v-424h-113v305l-87 -27v103z" />
    <glyph glyph-name="two.numr" unicode="&#xe070;" horiz-adv-x="373" 
d="M42 565v107c33 24 72 34 119 34c113 0 171 -72 171 -141c0 -60 -25 -101 -96 -163l-23 -20h138v-106h-320v61l117 103c50 44 63 71 63 100c0 35 -28 59 -77 59c-34 0 -66 -12 -92 -34z" />
    <glyph glyph-name="three.numr" unicode="&#xe071;" horiz-adv-x="377" 
d="M45 293v108c31 -16 65 -25 100 -25c52 0 81 15 81 42c0 26 -28 42 -98 42h-34v26l87 107h-136v107h291v-58l-90 -112c64 -13 101 -53 101 -115c0 -77 -56 -146 -186 -146c-52 0 -87 10 -116 24z" />
    <glyph glyph-name="four.numr" unicode="&#xe072;" horiz-adv-x="417" 
d="M344 700v-239h48v-97h-48v-88h-113v88h-209v71l188 265h134zM231 570l-78 -109h78v109z" />
    <glyph glyph-name="five.numr" unicode="&#xe073;" horiz-adv-x="374" 
d="M196 550c112 0 152 -68 152 -129c0 -82 -60 -151 -182 -151c-48 0 -92 9 -120 24v108c31 -16 73 -25 104 -25c57 0 77 15 77 39c0 26 -24 40 -89 40c-27 0 -62 -3 -88 -10l-3 3l23 252h247v-107h-156l-5 -47c10 2 25 3 40 3z" />
    <glyph glyph-name="six.numr" unicode="&#xe074;" horiz-adv-x="408" 
d="M201 373c39 0 61 27 61 57c0 29 -21 56 -61 56s-61 -27 -61 -56c0 -30 21 -57 61 -57zM376 434c0 -100 -75 -164 -175 -164c-105 0 -173 73 -173 164c0 66 31 136 124 235l29 31h132l-67 -70c-29 -31 -39 -45 -42 -51c3 1 11 3 20 3c83 0 152 -59 152 -148z" />
    <glyph glyph-name="seven.numr" unicode="&#xe075;" horiz-adv-x="360" 
d="M350 700v-61l-200 -363h-129l175 317h-167v107h321z" />
    <glyph glyph-name="eight.numr" unicode="&#xe076;" horiz-adv-x="418" 
d="M209 366c42 0 58 18 58 44s-16 44 -58 44s-58 -18 -58 -44s16 -44 58 -44zM209 539c32 0 41 18 41 35s-9 35 -41 35s-41 -18 -41 -35s9 -35 41 -35zM388 400c0 -78 -74 -131 -179 -131s-179 53 -179 131c0 47 27 91 78 103c-41 11 -61 43 -61 85c0 56 46 118 162 118
s162 -62 162 -118c0 -42 -20 -74 -61 -85c51 -12 78 -56 78 -103z" />
    <glyph glyph-name="nine.numr" unicode="&#xe077;" horiz-adv-x="408" 
d="M207 603c-39 0 -61 -27 -61 -57c0 -29 21 -56 61 -56s61 27 61 56c0 30 -21 57 -61 57zM32 542c0 100 75 164 175 164c105 0 173 -73 173 -164c0 -66 -31 -136 -124 -235l-29 -31h-132l67 70c29 31 39 45 42 51c-3 -1 -11 -3 -20 -3c-83 0 -152 59 -152 148z" />
    <glyph glyph-name="zero.dnom" unicode="&#xe078;" horiz-adv-x="417" 
d="M21 212c0 142 83 218 187 218c105 0 188 -76 188 -218s-83 -219 -188 -219c-104 0 -187 77 -187 219zM141 212c0 -72 22 -113 67 -113c46 0 67 41 67 113s-21 113 -67 113c-45 0 -67 -41 -67 -113z" />
    <glyph glyph-name="one.dnom" unicode="&#xe079;" horiz-adv-x="278" 
d="M20 381l139 43h61v-424h-113v305l-87 -27v103z" />
    <glyph glyph-name="two.dnom" unicode="&#xe07a;" horiz-adv-x="373" 
d="M42 289v107c33 24 72 34 119 34c113 0 171 -72 171 -141c0 -60 -25 -101 -96 -163l-23 -20h138v-106h-320v61l117 103c50 44 63 71 63 100c0 35 -28 59 -77 59c-34 0 -66 -12 -92 -34z" />
    <glyph glyph-name="three.dnom" unicode="&#xe07b;" horiz-adv-x="377" 
d="M45 17v108c31 -16 65 -25 100 -25c52 0 81 15 81 42c0 26 -28 42 -98 42h-34v26l87 107h-136v107h291v-58l-90 -112c64 -13 101 -53 101 -115c0 -77 -56 -146 -186 -146c-52 0 -87 10 -116 24z" />
    <glyph glyph-name="four.dnom" unicode="&#xe07c;" horiz-adv-x="404" 
d="M340 424v-239h48v-97h-48v-88h-113v88h-209v71l188 265h134zM227 294l-78 -109h78v109z" />
    <glyph glyph-name="five.dnom" unicode="&#xe07d;" horiz-adv-x="374" 
d="M196 273c112 0 152 -68 152 -129c0 -82 -60 -151 -182 -151c-48 0 -92 9 -120 24v108c31 -16 73 -25 104 -25c57 0 77 15 77 39c0 26 -24 40 -89 40c-27 0 -62 -3 -88 -10l-3 3l23 252h247v-107h-156l-5 -47c10 2 25 3 40 3z" />
    <glyph glyph-name="six.dnom" unicode="&#xe07e;" horiz-adv-x="408" 
d="M201 97c39 0 61 27 61 57c0 29 -21 56 -61 56s-61 -27 -61 -56c0 -30 21 -57 61 -57zM376 158c0 -100 -75 -164 -175 -164c-105 0 -173 73 -173 164c0 66 31 136 124 235l29 31h132l-67 -70c-29 -31 -39 -45 -42 -51c3 1 11 3 20 3c83 0 152 -59 152 -148z" />
    <glyph glyph-name="seven.dnom" unicode="&#xe07f;" horiz-adv-x="360" 
d="M350 424v-61l-200 -363h-129l175 317h-167v107h321z" />
    <glyph glyph-name="eight.dnom" unicode="&#xe080;" horiz-adv-x="418" 
d="M209 90c42 0 58 18 58 44s-16 44 -58 44s-58 -18 -58 -44s16 -44 58 -44zM209 263c32 0 41 18 41 35s-9 35 -41 35s-41 -18 -41 -35s9 -35 41 -35zM388 124c0 -78 -74 -131 -179 -131s-179 53 -179 131c0 47 27 91 78 103c-41 11 -61 43 -61 85c0 56 46 118 162 118
s162 -62 162 -118c0 -42 -20 -74 -61 -85c51 -12 78 -56 78 -103z" />
    <glyph glyph-name="nine.dnom" unicode="&#xe081;" horiz-adv-x="408" 
d="M207 327c-39 0 -61 -27 -61 -57c0 -29 21 -56 61 -56s61 27 61 56c0 30 -21 57 -61 57zM32 266c0 100 75 164 175 164c105 0 173 -73 173 -164c0 -66 -31 -136 -124 -235l-29 -31h-132l67 70c29 31 39 45 42 51c-3 -1 -11 -3 -20 -3c-83 0 -152 59 -152 148z" />
    <glyph glyph-name="fraction" unicode="&#x2044;" horiz-adv-x="209" 
d="M-157 0l400 700h123l-400 -700h-123z" />
    <glyph glyph-name="onehalf" unicode="&#xbd;" horiz-adv-x="878" 
d="M130 0l400 700h123l-400 -700h-123zM15 658l139 43h61v-424h-113v305l-87 -27v103zM546 289v107c33 24 72 34 119 34c113 0 171 -72 171 -141c0 -60 -25 -101 -96 -163l-23 -20h138v-106h-320v61l117 103c50 44 63 71 63 100c0 35 -28 59 -77 59c-34 0 -66 -12 -92 -34z
" />
    <glyph glyph-name="onequarter" unicode="&#xbc;" horiz-adv-x="847" 
d="M130 0l400 700h123l-400 -700h-123zM15 658l139 43h61v-424h-113v305l-87 -27v103zM778 424v-239h48v-97h-48v-88h-113v88h-209v71l188 265h134zM665 294l-78 -109h78v109z" />
    <glyph glyph-name="threequarters" unicode="&#xbe;" horiz-adv-x="941" 
d="M224 0l400 700h123l-400 -700h-123zM872 424v-239h48v-97h-48v-88h-113v88h-209v71l188 265h134zM759 294l-78 -109h78v109zM56 294v108c31 -16 65 -25 100 -25c52 0 81 15 81 42c0 26 -28 42 -98 42h-34v26l87 107h-136v107h291v-58l-90 -112c64 -13 101 -53 101 -115
c0 -77 -56 -146 -186 -146c-52 0 -87 10 -116 24z" />
    <glyph glyph-name="percent" unicode="%" horiz-adv-x="970" 
d="M221 0l400 700h123l-400 -700h-123zM21 489c0 142 83 218 187 218c105 0 188 -76 188 -218s-83 -219 -188 -219c-104 0 -187 77 -187 219zM141 489c0 -72 22 -113 67 -113c46 0 67 41 67 113s-21 113 -67 113c-45 0 -67 -41 -67 -113zM574 212c0 142 83 218 187 218
c105 0 188 -76 188 -218s-83 -219 -188 -219c-104 0 -187 77 -187 219zM694 212c0 -72 22 -113 67 -113c46 0 67 41 67 113s-21 113 -67 113c-45 0 -67 -41 -67 -113z" />
    <glyph glyph-name="perthousand" unicode="&#x2030;" horiz-adv-x="1388" 
d="M221 0l400 700h123l-400 -700h-123zM21 489c0 142 83 218 187 218c105 0 188 -76 188 -218s-83 -219 -188 -219c-104 0 -187 77 -187 219zM141 489c0 -72 22 -113 67 -113c46 0 67 41 67 113s-21 113 -67 113c-45 0 -67 -41 -67 -113zM574 212c0 142 83 218 187 218
c105 0 188 -76 188 -218s-83 -219 -188 -219c-104 0 -187 77 -187 219zM694 212c0 -72 22 -113 67 -113c46 0 67 41 67 113s-21 113 -67 113c-45 0 -67 -41 -67 -113zM992 212c0 142 83 218 187 218c105 0 188 -76 188 -218s-83 -219 -188 -219c-104 0 -187 77 -187 219z
M1112 212c0 -72 22 -113 67 -113c46 0 67 41 67 113s-21 113 -67 113c-45 0 -67 -41 -67 -113z" />
    <glyph glyph-name="plus" unicode="+" horiz-adv-x="530" 
d="M209 299h-177v102h177v177h113v-177h176v-102h-176v-176h-113v176z" />
    <glyph glyph-name="minus" unicode="&#x2212;" horiz-adv-x="530" 
d="M487 299h-444v102h444v-102z" />
    <glyph glyph-name="plusminus" unicode="&#xb1;" horiz-adv-x="531" 
d="M487 118h-444v101h444v-101zM209 380h-165v103h165v100h113v-100h166v-103h-166v-99h-113v99z" />
    <glyph glyph-name="multiply" unicode="&#xd7;" horiz-adv-x="530" 
d="M40 194l156 157l-157 157l69 69l157 -157l156 156l69 -69l-156 -156l157 -158l-69 -69l-157 157l-156 -156z" />
    <glyph glyph-name="divide" unicode="&#xf7;" horiz-adv-x="531" 
d="M503 307h-476v87h476v-87zM200 454v141h133v-141h-133zM197 107v141h133v-141h-133z" />
    <glyph glyph-name="equal" unicode="=" horiz-adv-x="527" 
d="M480 402h-434v107h434v-107zM480 193h-434v107h434v-107z" />
    <glyph glyph-name="notequal" unicode="&#x2260;" horiz-adv-x="527" 
d="M227 97h-110l35 96h-106v107h145l37 102h-182v107h221l35 94h109l-34 -94h103v-107h-142l-37 -102h179v-107h-218z" />
    <glyph glyph-name="asciitilde" unicode="~" horiz-adv-x="522" 
d="M475 431v-113c-36 -38 -70 -50 -116 -50c-67 0 -132 56 -197 56c-46 0 -70 -13 -116 -56v113c36 38 70 50 116 50c67 0 132 -56 197 -56c46 0 70 13 116 56z" />
    <glyph glyph-name="approxequal" unicode="&#x2248;" horiz-adv-x="522" 
d="M475 530v-113c-36 -38 -70 -50 -116 -50c-67 0 -132 56 -197 56c-46 0 -70 -13 -116 -56v113c36 38 70 50 116 50c67 0 132 -56 197 -56c46 0 70 13 116 56zM475 332v-113c-36 -38 -70 -50 -116 -50c-67 0 -132 56 -197 56c-46 0 -70 -13 -116 -56v113
c36 38 70 50 116 50c67 0 132 -56 197 -56c46 0 70 13 116 56z" />
    <glyph glyph-name="asciicircum" unicode="^" horiz-adv-x="530" 
d="M333 700l146 -376h-112l-102 276l-104 -276h-110l144 376h138z" />
    <glyph glyph-name="less" unicode="&#x3c;" horiz-adv-x="500" 
d="M40 275v152l423 147v-123l-312 -101l312 -99v-123z" />
    <glyph glyph-name="greater" unicode="&#x3e;" horiz-adv-x="500" 
d="M463 427v-152l-423 -147v123l312 99l-312 101v123z" />
    <glyph glyph-name="lessequal" unicode="&#x2264;" horiz-adv-x="500" 
d="M40 118v106h423v-106h-423zM40 355v133l423 95v-107l-285 -55l285 -54v-110z" />
    <glyph glyph-name="greaterequal" unicode="&#x2265;" horiz-adv-x="500" 
d="M463 118v106h-423v-106h423zM463 488v-133l-423 -98v110l285 54l-285 55v107z" />
    <glyph glyph-name="logicalnot" unicode="&#xac;" horiz-adv-x="530" 
d="M491 220h-107v178h-342v106h449v-284z" />
    <glyph glyph-name="currency" unicode="&#xa4;" horiz-adv-x="560" 
d="M200 351c0 -45 35 -80 79 -80s79 35 79 80c0 43 -35 77 -79 77s-79 -34 -79 -77zM106 351c0 30 8 58 21 83l-73 74l69 69l74 -74c24 12 52 20 82 20s58 -8 83 -21l74 74l69 -69l-75 -75c13 -24 21 -52 21 -81c0 -30 -7 -58 -20 -82l75 -76l-69 -69l-76 75
c-24 -13 -52 -21 -82 -21s-57 7 -82 20l-73 -73l-69 69l73 73c-14 25 -22 53 -22 84z" />
    <glyph glyph-name="infinity" unicode="&#x221e;" horiz-adv-x="700" 
d="M503 537c95 0 170 -69 170 -191c0 -93 -63 -180 -168 -180c-65 0 -114 31 -156 88c-41 -58 -82 -89 -153 -89c-95 0 -169 69 -169 191c0 93 63 180 168 180c64 0 113 -32 155 -87c40 57 82 88 153 88zM409 352l-6 -11c30 -49 61 -75 97 -75c43 0 70 40 70 90
c0 30 -19 76 -65 76c-38 0 -65 -25 -96 -80zM290 350l6 11c-30 49 -60 75 -96 75c-43 0 -70 -40 -70 -90c0 -30 18 -76 64 -76c38 0 65 25 96 80z" />
    <glyph glyph-name="lozenge" unicode="&#x25ca;" horiz-adv-x="612" 
d="M371 686l195 -349l-195 -349h-132l-195 349l195 349h132zM440 337l-135 241l-134 -241c44 -81 90 -162 134 -242z" />
    <glyph glyph-name="Delta" unicode="&#x2206;" 
d="M13 0l265 700h165l268 -700h-698zM360 505l-132 -361h265z" />
    <glyph glyph-name="Omega" unicode="&#x2126;" horiz-adv-x="792" 
d="M396 710c190 0 341 -123 341 -328c0 -104 -35 -194 -116 -243h115v-139h-300v124c93 55 145 135 145 246c0 119 -71 196 -185 196s-185 -77 -185 -196c0 -111 52 -191 145 -246v-124h-300v139h115c-81 49 -116 139 -116 243c0 205 151 328 341 328z" />
    <glyph glyph-name="partialdiff" unicode="&#x2202;" horiz-adv-x="599" 
d="M275 467c60 0 105 -20 135 -41c-22 79 -88 163 -286 163v121c411 0 432 -279 432 -383c0 -197 -94 -337 -270 -337c-117 0 -239 81 -239 241c0 139 97 236 228 236zM288 111c80 0 120 67 130 165c-36 49 -80 70 -126 70c-72 0 -109 -56 -109 -115c0 -78 53 -120 105 -120
z" />
    <glyph glyph-name="integral" unicode="&#x222b;" horiz-adv-x="391" 
d="M243 524v-548c0 -155 -84 -201 -180 -201c-21 0 -54 4 -83 14v119c16 -6 34 -9 56 -9c66 0 72 45 72 92v548c0 155 84 201 180 201c21 0 54 -4 83 -14v-119c-16 6 -34 9 -56 9c-66 0 -72 -45 -72 -92z" />
    <glyph glyph-name="radical" unicode="&#x221a;" horiz-adv-x="704" 
d="M10 477v117h173l143 -408l237 638h131l-312 -824h-115l-173 477h-84z" />
    <glyph glyph-name="summation" unicode="&#x2211;" horiz-adv-x="558" 
d="M257 291l-200 315v94h453v-139h-255l156 -259v-24l-156 -259h255v-139h-453v94z" />
    <glyph glyph-name="product" unicode="&#x220f;" horiz-adv-x="727" 
d="M655 700v-820h-153v681h-277v-681h-153v820h583z" />
    <glyph glyph-name="pi.lc" unicode="&#xe924;" horiz-adv-x="688" 
d="M614 127h23v-127h-23c-146 0 -219 80 -219 221v192h-121c-2 -136 -9 -274 -29 -413h-135c20 136 27 274 29 413h-89v134h588v-134h-108v-170c0 -86 39 -116 84 -116z" />
    <glyph glyph-name="mu" unicode="&#xb5;" horiz-adv-x="699" 
d="M235 547v-316c0 -72 41 -117 115 -117c47 0 86 21 114 44v389h135v-547h-135v41c-37 -26 -93 -51 -160 -51c-28 0 -58 5 -87 16c11 -39 18 -81 18 -128v-78h-135v747h135z" />
    <glyph glyph-name="degree" unicode="&#xb0;" horiz-adv-x="388" 
d="M20 536c0 96 78 174 174 174s174 -78 174 -174s-78 -174 -174 -174s-174 78 -174 174zM118 536c0 -41 35 -76 76 -76c42 0 76 35 76 76s-34 76 -76 76c-41 0 -76 -35 -76 -76z" />
    <glyph glyph-name="litre" unicode="&#x2113;" horiz-adv-x="499" 
d="M449 548c0 -126 -63 -208 -207 -304c12 -103 43 -143 107 -143c11 0 28 2 47 8v-109c-21 -6 -47 -10 -77 -10c-121 0 -176 75 -200 183l-78 -46v117l63 36c-3 40 -4 83 -4 126v31c0 185 67 273 193 273c110 0 156 -90 156 -162zM236 358c83 62 112 116 112 174
c0 27 -10 67 -51 67c-48 0 -61 -61 -61 -187v-54z" />
    <glyph glyph-name="estimated" unicode="&#x212e;" horiz-adv-x="850" 
d="M775 192c-63 -120 -195 -202 -350 -202c-215 0 -389 161 -389 360c0 201 174 360 389 360c216 0 389 -159 389 -360c0 -7 0 -23 -1 -29h-588v-193c54 -42 123 -67 200 -67c110 0 206 52 260 131h90zM225 572v-174h399v175c-54 42 -124 65 -199 65
c-77 0 -146 -24 -200 -66z" />
    <glyph glyph-name="ampersand" unicode="&#x26;" horiz-adv-x="758" 
d="M570 0l-58 61c-60 -48 -132 -71 -217 -71c-159 0 -265 98 -265 224c0 94 49 169 142 210c-29 39 -44 78 -44 120c0 96 77 166 210 166c107 0 198 -67 198 -156c0 -77 -40 -132 -135 -175l104 -110c15 27 30 64 45 125h152c-25 -105 -59 -178 -96 -233l152 -161h-188z
M311 127c38 0 72 12 104 37l-158 167c-42 -19 -69 -54 -69 -95c0 -81 68 -109 123 -109zM282 539c0 -26 10 -43 40 -76c51 20 70 45 70 74c0 20 -15 46 -56 46c-37 0 -54 -23 -54 -44z" />
    <glyph glyph-name="ampersand.alt" unicode="&#xe4b3;" horiz-adv-x="758" 
d="M570 0l-58 61c-60 -48 -132 -71 -217 -71c-159 0 -265 98 -265 224c0 94 49 169 142 210c-29 39 -44 78 -44 120c0 96 77 166 210 166c107 0 198 -67 198 -156c0 -77 -40 -132 -135 -175l104 -110c15 27 30 64 45 125h152c-25 -105 -59 -178 -96 -233l152 -161h-188z" />
    <glyph glyph-name="fi" unicode="&#xfb01;" horiz-adv-x="859" 
d="M524 700v-139h-299v-149h277v-139h-277v-273h-153v700h452zM787 700v-700h-153v700h153z" />
    <glyph glyph-name="fl" unicode="&#xfb02;" horiz-adv-x="1111" 
d="M524 700v-139h-299v-149h277v-139h-277v-273h-153v700h452zM634 700h153v-561h284v-139h-437v700z" />
    <glyph glyph-name="space.stripe" unicode="&#xe925;" horiz-adv-x="300" 
 />
    <glyph glyph-name="escape" unicode="&#x241b;" horiz-adv-x="0" 
 />
    <glyph glyph-name="escape.stripe" unicode="&#xe926;" horiz-adv-x="0" 
 />
    <glyph glyph-name="escape.alt" unicode="&#xe927;" horiz-adv-x="0" 
 />
    </font>
</defs>
</svg>
